%TF.GenerationSoftware,KiCad,Pcbnew,9.0.7*%
%TF.CreationDate,2026-05-29T22:56:43-04:00*%
%TF.ProjectId,AI250,41493235-302e-46b6-9963-61645f706362,rev?*%
%TF.SameCoordinates,Original*%
%TF.FileFunction,Profile,NP*%
%FSLAX46Y46*%
G04 Gerber Fmt 4.6, Leading zero omitted, Abs format (unit mm)*
G04 Created by KiCad (PCBNEW 9.0.7) date 2026-05-29 22:56:43*
%MOMM*%
%LPD*%
G01*
G04 APERTURE LIST*
%TA.AperFunction,Profile*%
%ADD10C,0.050000*%
%TD*%
G04 APERTURE END LIST*
D10*
X96451240Y-88899000D02*
G75*
G02*
X89308760Y-88899000I-3571240J0D01*
G01*
X89308760Y-88899000D02*
G75*
G02*
X96451240Y-88899000I3571240J0D01*
G01*
X126350630Y-53930000D02*
G75*
G02*
X118809370Y-53930000I-3770630J0D01*
G01*
X118809370Y-53930000D02*
G75*
G02*
X126350630Y-53930000I3770630J0D01*
G01*
X90950630Y-53930000D02*
G75*
G02*
X83409370Y-53930000I-3770630J0D01*
G01*
X83409370Y-53930000D02*
G75*
G02*
X90950630Y-53930000I3770630J0D01*
G01*
X132054500Y-120046000D02*
G75*
G02*
X128879500Y-120046000I-1587500J0D01*
G01*
X128879500Y-120046000D02*
G75*
G02*
X132054500Y-120046000I1587500J0D01*
G01*
X132255000Y-126791000D02*
G75*
G02*
X125505000Y-126791000I-3375000J0D01*
G01*
X125505000Y-126791000D02*
G75*
G02*
X132255000Y-126791000I3375000J0D01*
G01*
X84255000Y-143791000D02*
G75*
G02*
X77505000Y-143791000I-3375000J0D01*
G01*
X77505000Y-143791000D02*
G75*
G02*
X84255000Y-143791000I3375000J0D01*
G01*
X83700630Y-77244000D02*
G75*
G02*
X76159370Y-77244000I-3770630J0D01*
G01*
X76159370Y-77244000D02*
G75*
G02*
X83700630Y-77244000I3770630J0D01*
G01*
X133600630Y-100554000D02*
G75*
G02*
X126059370Y-100554000I-3770630J0D01*
G01*
X126059370Y-100554000D02*
G75*
G02*
X133600630Y-100554000I3770630J0D01*
G01*
X120255000Y-143791000D02*
G75*
G02*
X113505000Y-143791000I-3375000J0D01*
G01*
X113505000Y-143791000D02*
G75*
G02*
X120255000Y-143791000I3375000J0D01*
G01*
X133600630Y-77244000D02*
G75*
G02*
X126059370Y-77244000I-3770630J0D01*
G01*
X126059370Y-77244000D02*
G75*
G02*
X133600630Y-77244000I3770630J0D01*
G01*
X120451240Y-88899000D02*
G75*
G02*
X113308760Y-88899000I-3571240J0D01*
G01*
X113308760Y-88899000D02*
G75*
G02*
X120451240Y-88899000I3571240J0D01*
G01*
X108255000Y-109791000D02*
G75*
G02*
X101505000Y-109791000I-3375000J0D01*
G01*
X101505000Y-109791000D02*
G75*
G02*
X108255000Y-109791000I3375000J0D01*
G01*
X108255000Y-143791000D02*
G75*
G02*
X101505000Y-143791000I-3375000J0D01*
G01*
X101505000Y-143791000D02*
G75*
G02*
X108255000Y-143791000I3375000J0D01*
G01*
X108650630Y-77244000D02*
G75*
G02*
X101109370Y-77244000I-3770630J0D01*
G01*
X101109370Y-77244000D02*
G75*
G02*
X108650630Y-77244000I3770630J0D01*
G01*
X108255000Y-126791000D02*
G75*
G02*
X101505000Y-126791000I-3375000J0D01*
G01*
X101505000Y-126791000D02*
G75*
G02*
X108255000Y-126791000I3375000J0D01*
G01*
X96451240Y-143791000D02*
G75*
G02*
X89308760Y-143791000I-3571240J0D01*
G01*
X89308760Y-143791000D02*
G75*
G02*
X96451240Y-143791000I3571240J0D01*
G01*
X120054500Y-120046000D02*
G75*
G02*
X116879500Y-120046000I-1587500J0D01*
G01*
X116879500Y-120046000D02*
G75*
G02*
X120054500Y-120046000I1587500J0D01*
G01*
X120255000Y-126791000D02*
G75*
G02*
X113505000Y-126791000I-3375000J0D01*
G01*
X113505000Y-126791000D02*
G75*
G02*
X120255000Y-126791000I3375000J0D01*
G01*
X132255000Y-143791000D02*
G75*
G02*
X125505000Y-143791000I-3375000J0D01*
G01*
X125505000Y-143791000D02*
G75*
G02*
X132255000Y-143791000I3375000J0D01*
G01*
X83700630Y-100554000D02*
G75*
G02*
X76159370Y-100554000I-3770630J0D01*
G01*
X76159370Y-100554000D02*
G75*
G02*
X83700630Y-100554000I3770630J0D01*
G01*
X96255000Y-109791000D02*
G75*
G02*
X89505000Y-109791000I-3375000J0D01*
G01*
X89505000Y-109791000D02*
G75*
G02*
X96255000Y-109791000I3375000J0D01*
G01*
X84255000Y-126791000D02*
G75*
G02*
X77505000Y-126791000I-3375000J0D01*
G01*
X77505000Y-126791000D02*
G75*
G02*
X84255000Y-126791000I3375000J0D01*
G01*
X96255000Y-126791000D02*
G75*
G02*
X89505000Y-126791000I-3375000J0D01*
G01*
X89505000Y-126791000D02*
G75*
G02*
X96255000Y-126791000I3375000J0D01*
G01*
X133360000Y-32522500D02*
X132360000Y-32522500D01*
X133360000Y-32522500D02*
G75*
G02*
X133360000Y-35697500I0J-1587500D01*
G01*
X132360000Y-35697500D02*
X133360000Y-35697500D01*
X132360000Y-35697500D02*
G75*
G02*
X132360000Y-32522500I0J1587500D01*
G01*
X76480000Y-35697500D02*
X77480000Y-35697500D01*
X76480000Y-35697500D02*
G75*
G02*
X76480000Y-32522500I0J1587500D01*
G01*
X77480000Y-32522500D02*
X76480000Y-32522500D01*
X77480000Y-32522500D02*
G75*
G02*
X77480000Y-35697500I0J-1587500D01*
G01*
X132360000Y-158197500D02*
X133360000Y-158197500D01*
X132360000Y-158197500D02*
G75*
G02*
X132360000Y-155022500I0J1587500D01*
G01*
X133360000Y-155022500D02*
X132360000Y-155022500D01*
X133360000Y-155022500D02*
G75*
G02*
X133360000Y-158197500I0J-1587500D01*
G01*
X76480000Y-158197500D02*
G75*
G02*
X76480000Y-155022500I0J1587500D01*
G01*
X77480000Y-155022500D02*
X76480000Y-155022500D01*
X77480000Y-155022500D02*
G75*
G02*
X77480000Y-158197500I0J-1587500D01*
G01*
X76480000Y-158197500D02*
X77480000Y-158197500D01*
X140280000Y-159610000D02*
X69480000Y-159610000D01*
X140280000Y-31110000D02*
X140280000Y-159610000D01*
X69480000Y-31110000D02*
X140280000Y-31110000D01*
X69480000Y-159610000D02*
X69480000Y-31110000D01*
X120255000Y-109791000D02*
G75*
G02*
X113505000Y-109791000I-3375000J0D01*
G01*
X113505000Y-109791000D02*
G75*
G02*
X120255000Y-109791000I3375000J0D01*
G01*
M02*
