%TF.GenerationSoftware,KiCad,Pcbnew,9.0.7*%
%TF.CreationDate,2026-05-29T22:56:43-04:00*%
%TF.ProjectId,AI250,41493235-302e-46b6-9963-61645f706362,rev?*%
%TF.SameCoordinates,Original*%
%TF.FileFunction,Soldermask,Top*%
%TF.FilePolarity,Negative*%
%FSLAX46Y46*%
G04 Gerber Fmt 4.6, Leading zero omitted, Abs format (unit mm)*
G04 Created by KiCad (PCBNEW 9.0.7) date 2026-05-29 22:56:43*
%MOMM*%
%LPD*%
G01*
G04 APERTURE LIST*
%ADD10C,0.000000*%
G04 APERTURE END LIST*
D10*
%TO.C,G\u002A\u002A\u002A*%
G36*
X133106162Y-32287459D02*
G01*
X133290174Y-32287699D01*
X133439220Y-32288305D01*
X133556982Y-32289442D01*
X133647144Y-32291280D01*
X133713390Y-32293984D01*
X133759402Y-32297723D01*
X133788864Y-32302665D01*
X133805459Y-32308975D01*
X133812870Y-32316823D01*
X133814781Y-32326375D01*
X133814833Y-32329749D01*
X133819466Y-32353393D01*
X133839822Y-32366169D01*
X133885582Y-32371304D01*
X133941833Y-32372083D01*
X134012765Y-32373627D01*
X134051093Y-32380412D01*
X134066498Y-32395666D01*
X134068833Y-32414416D01*
X134075933Y-32442112D01*
X134104630Y-32454352D01*
X134153499Y-32456749D01*
X134208891Y-32460299D01*
X134233372Y-32474648D01*
X134238166Y-32499083D01*
X134245266Y-32526779D01*
X134273963Y-32539019D01*
X134322833Y-32541416D01*
X134378225Y-32544966D01*
X134402706Y-32559314D01*
X134407499Y-32583749D01*
X134422466Y-32619125D01*
X134449833Y-32626083D01*
X134485209Y-32641050D01*
X134492166Y-32668416D01*
X134507133Y-32703792D01*
X134534499Y-32710749D01*
X134568829Y-32723021D01*
X134576833Y-32740205D01*
X134594878Y-32766843D01*
X134629749Y-32782941D01*
X134669482Y-32803613D01*
X134682666Y-32827569D01*
X134694503Y-32855473D01*
X134704356Y-32858916D01*
X134727107Y-32876437D01*
X134746166Y-32911832D01*
X134771946Y-32951245D01*
X134798559Y-32964749D01*
X134824997Y-32982428D01*
X134830833Y-33007083D01*
X134846010Y-33042718D01*
X134870810Y-33049416D01*
X134903131Y-33064043D01*
X134922513Y-33112562D01*
X134924303Y-33121455D01*
X134941766Y-33173469D01*
X134966328Y-33204201D01*
X134968992Y-33205458D01*
X134994658Y-33233975D01*
X135000166Y-33260418D01*
X135012199Y-33295109D01*
X135029447Y-33303416D01*
X135058309Y-33323297D01*
X135077259Y-33379378D01*
X135084524Y-33466316D01*
X135084543Y-33469439D01*
X135092448Y-33523639D01*
X135119465Y-33548860D01*
X135127166Y-33551283D01*
X135148528Y-33561196D01*
X135161239Y-33583228D01*
X135167478Y-33626541D01*
X135169426Y-33700297D01*
X135169499Y-33729218D01*
X135171337Y-33817285D01*
X135177617Y-33869739D01*
X135189490Y-33893173D01*
X135198603Y-33896083D01*
X135224769Y-33916827D01*
X135242687Y-33978989D01*
X135252337Y-34082457D01*
X135254166Y-34173895D01*
X135251865Y-34255541D01*
X135244081Y-34301661D01*
X135229494Y-34318858D01*
X135225062Y-34319416D01*
X135199050Y-34340048D01*
X135181065Y-34401262D01*
X135171317Y-34502034D01*
X135169499Y-34588627D01*
X135167851Y-34664091D01*
X135160971Y-34707431D01*
X135145957Y-34728795D01*
X135127166Y-34736616D01*
X135098166Y-34754327D01*
X135086173Y-34794961D01*
X135084833Y-34829885D01*
X135078584Y-34889379D01*
X135059010Y-34911723D01*
X135054943Y-34912083D01*
X135030881Y-34931907D01*
X135012719Y-34986084D01*
X135010749Y-34996749D01*
X134993995Y-35055012D01*
X134970884Y-35080857D01*
X134966805Y-35081416D01*
X134943111Y-35101228D01*
X134925515Y-35155341D01*
X134923627Y-35166083D01*
X134908891Y-35223928D01*
X134885784Y-35248331D01*
X134870461Y-35250749D01*
X134837081Y-35266970D01*
X134830833Y-35293083D01*
X134815865Y-35328459D01*
X134788499Y-35335416D01*
X134753123Y-35350383D01*
X134746166Y-35377749D01*
X134731199Y-35413125D01*
X134703833Y-35420083D01*
X134668456Y-35435050D01*
X134661499Y-35462416D01*
X134646532Y-35497792D01*
X134619166Y-35504749D01*
X134583790Y-35519716D01*
X134576833Y-35547083D01*
X134561865Y-35582459D01*
X134534499Y-35589416D01*
X134499123Y-35604383D01*
X134492166Y-35631749D01*
X134476986Y-35667392D01*
X134452301Y-35674083D01*
X134415055Y-35691960D01*
X134401366Y-35716416D01*
X134382139Y-35746504D01*
X134338111Y-35758029D01*
X134314231Y-35758749D01*
X134262343Y-35763220D01*
X134240994Y-35780801D01*
X134238166Y-35801083D01*
X134230823Y-35829100D01*
X134201359Y-35841253D01*
X134155968Y-35843416D01*
X134098295Y-35848631D01*
X134069959Y-35867944D01*
X134062699Y-35885749D01*
X134049869Y-35910509D01*
X134020790Y-35923329D01*
X133964533Y-35927814D01*
X133934283Y-35928083D01*
X133859526Y-35931727D01*
X133816254Y-35944516D01*
X133796218Y-35965124D01*
X133788686Y-35974123D01*
X133774554Y-35981596D01*
X133750046Y-35987720D01*
X133711385Y-35992667D01*
X133654793Y-35996611D01*
X133576493Y-35999728D01*
X133472708Y-36002190D01*
X133339660Y-36004173D01*
X133173573Y-36005850D01*
X132970668Y-36007395D01*
X132863833Y-36008111D01*
X132643768Y-36009508D01*
X132462311Y-36010461D01*
X132315740Y-36010819D01*
X132200330Y-36010430D01*
X132112357Y-36009143D01*
X132048099Y-36006807D01*
X132003831Y-36003270D01*
X131975830Y-35998382D01*
X131960373Y-35991990D01*
X131953734Y-35983943D01*
X131952192Y-35974091D01*
X131952166Y-35971069D01*
X131947769Y-35947227D01*
X131928148Y-35934264D01*
X131883652Y-35928965D01*
X131823184Y-35928083D01*
X131750217Y-35926212D01*
X131709047Y-35918496D01*
X131689222Y-35901774D01*
X131683132Y-35885749D01*
X131660460Y-35853451D01*
X131609308Y-35843164D01*
X131605739Y-35843127D01*
X131520680Y-35836092D01*
X131464760Y-35817247D01*
X131444175Y-35788703D01*
X131444166Y-35788030D01*
X131426527Y-35764284D01*
X131401833Y-35758749D01*
X131366456Y-35743782D01*
X131359499Y-35716416D01*
X131351466Y-35687538D01*
X131319876Y-35675656D01*
X131283434Y-35674083D01*
X131227719Y-35667761D01*
X131201041Y-35644935D01*
X131196299Y-35631749D01*
X131170419Y-35597161D01*
X131145364Y-35589416D01*
X131111799Y-35573295D01*
X131105499Y-35547083D01*
X131090532Y-35511706D01*
X131063166Y-35504749D01*
X131027790Y-35489782D01*
X131020833Y-35462416D01*
X131005865Y-35427040D01*
X130978499Y-35420083D01*
X130942856Y-35404902D01*
X130936166Y-35380218D01*
X130918469Y-35342383D01*
X130896701Y-35330033D01*
X130862157Y-35299886D01*
X130842825Y-35242897D01*
X130824772Y-35188491D01*
X130799593Y-35166195D01*
X130797623Y-35166083D01*
X130772174Y-35148588D01*
X130766833Y-35126218D01*
X130748955Y-35088972D01*
X130724499Y-35075283D01*
X130693928Y-35055344D01*
X130682660Y-35009775D01*
X130682166Y-34990616D01*
X130675295Y-34935671D01*
X130650779Y-34909670D01*
X130639833Y-34905949D01*
X130614944Y-34892993D01*
X130602131Y-34863610D01*
X130597730Y-34806808D01*
X130597499Y-34778949D01*
X130595145Y-34710177D01*
X130585638Y-34672604D01*
X130565317Y-34655237D01*
X130555166Y-34651949D01*
X130541749Y-34646784D01*
X130531513Y-34635775D01*
X130524027Y-34613770D01*
X130518863Y-34575619D01*
X130515590Y-34516169D01*
X130513781Y-34430267D01*
X130513005Y-34312762D01*
X130512833Y-34158502D01*
X130512833Y-34143949D01*
X130512850Y-34124913D01*
X131020698Y-34124913D01*
X131022805Y-34212037D01*
X131031412Y-34291162D01*
X131046630Y-34352305D01*
X131068570Y-34385485D01*
X131069596Y-34386094D01*
X131091215Y-34409561D01*
X131102379Y-34455550D01*
X131105499Y-34532134D01*
X131107069Y-34602709D01*
X131113957Y-34640716D01*
X131129428Y-34655869D01*
X131147833Y-34658083D01*
X131176710Y-34666116D01*
X131188592Y-34697706D01*
X131190166Y-34734147D01*
X131196488Y-34789863D01*
X131219314Y-34816541D01*
X131232499Y-34821283D01*
X131267087Y-34847163D01*
X131274833Y-34872218D01*
X131290953Y-34905782D01*
X131317166Y-34912083D01*
X131352542Y-34927050D01*
X131359499Y-34954416D01*
X131371700Y-34988747D01*
X131388780Y-34996749D01*
X131417211Y-35014483D01*
X131429132Y-35039083D01*
X131451240Y-35073494D01*
X131471466Y-35081416D01*
X131501520Y-35099167D01*
X131513799Y-35123749D01*
X131542167Y-35159583D01*
X131569184Y-35166083D01*
X131605875Y-35180043D01*
X131613499Y-35208416D01*
X131628466Y-35243792D01*
X131655833Y-35250749D01*
X131690164Y-35262950D01*
X131698166Y-35280030D01*
X131717563Y-35308045D01*
X131769171Y-35327682D01*
X131841041Y-35335127D01*
X131878794Y-35346781D01*
X131888666Y-35365614D01*
X131906212Y-35395845D01*
X131925708Y-35405492D01*
X131954144Y-35407587D01*
X132020374Y-35409638D01*
X132119860Y-35411588D01*
X132248061Y-35413379D01*
X132400440Y-35414954D01*
X132572456Y-35416254D01*
X132759571Y-35417222D01*
X132880189Y-35417627D01*
X133101083Y-35418171D01*
X133283400Y-35418404D01*
X133430898Y-35418163D01*
X133547331Y-35417288D01*
X133636458Y-35415617D01*
X133702034Y-35412989D01*
X133747816Y-35409243D01*
X133777560Y-35404218D01*
X133795023Y-35397751D01*
X133803961Y-35389681D01*
X133808131Y-35379848D01*
X133808699Y-35377749D01*
X133826410Y-35348749D01*
X133867044Y-35336756D01*
X133901968Y-35335416D01*
X133956368Y-35331634D01*
X133979967Y-35316459D01*
X133984166Y-35293083D01*
X133999315Y-35257499D01*
X134024768Y-35250749D01*
X134089065Y-35240943D01*
X134126564Y-35214767D01*
X134132333Y-35195568D01*
X134150718Y-35172513D01*
X134185249Y-35166083D01*
X134226744Y-35156161D01*
X134238166Y-35123749D01*
X134253133Y-35088373D01*
X134280499Y-35081416D01*
X134316142Y-35066236D01*
X134322833Y-35041551D01*
X134340710Y-35004305D01*
X134365166Y-34990616D01*
X134395254Y-34971389D01*
X134406779Y-34927361D01*
X134407499Y-34903481D01*
X134411970Y-34851593D01*
X134429551Y-34830244D01*
X134449833Y-34827416D01*
X134485345Y-34812322D01*
X134492166Y-34786134D01*
X134508308Y-34742220D01*
X134526748Y-34725500D01*
X134553219Y-34688374D01*
X134569882Y-34614922D01*
X134571600Y-34599258D01*
X134582341Y-34530304D01*
X134600319Y-34493896D01*
X134621685Y-34481957D01*
X134636793Y-34475109D01*
X134647522Y-34459512D01*
X134654614Y-34428828D01*
X134658809Y-34376716D01*
X134660849Y-34296837D01*
X134661476Y-34182850D01*
X134661499Y-34141481D01*
X134661240Y-34016703D01*
X134659936Y-33928088D01*
X134656796Y-33869467D01*
X134651028Y-33834669D01*
X134641841Y-33817526D01*
X134628444Y-33811868D01*
X134619166Y-33811416D01*
X134590720Y-33803712D01*
X134578569Y-33773143D01*
X134576543Y-33732041D01*
X134569954Y-33638928D01*
X134551763Y-33579495D01*
X134523146Y-33557468D01*
X134521447Y-33557416D01*
X134497823Y-33539745D01*
X134492166Y-33514418D01*
X134478631Y-33473823D01*
X134460992Y-33459458D01*
X134436263Y-33432161D01*
X134417546Y-33381544D01*
X134416303Y-33375455D01*
X134398187Y-33322158D01*
X134367786Y-33303633D01*
X134362810Y-33303416D01*
X134329158Y-33287344D01*
X134322833Y-33261083D01*
X134307865Y-33225706D01*
X134280499Y-33218749D01*
X134245123Y-33203782D01*
X134238166Y-33176416D01*
X134223199Y-33141040D01*
X134195833Y-33134083D01*
X134160456Y-33119115D01*
X134153499Y-33091749D01*
X134146399Y-33064053D01*
X134117702Y-33051813D01*
X134068833Y-33049416D01*
X134013440Y-33045866D01*
X133988959Y-33031517D01*
X133984166Y-33007083D01*
X133977066Y-32979386D01*
X133948369Y-32967146D01*
X133899499Y-32964749D01*
X133844107Y-32961199D01*
X133819626Y-32946851D01*
X133814833Y-32922416D01*
X133811150Y-32901033D01*
X133794344Y-32888286D01*
X133755777Y-32881909D01*
X133686811Y-32879636D01*
X133650791Y-32879376D01*
X133518863Y-32878895D01*
X133365408Y-32878479D01*
X133196751Y-32878132D01*
X133019216Y-32877857D01*
X132839127Y-32877660D01*
X132662810Y-32877544D01*
X132496588Y-32877514D01*
X132346785Y-32877572D01*
X132219727Y-32877723D01*
X132121738Y-32877972D01*
X132059142Y-32878322D01*
X132055176Y-32878362D01*
X131972122Y-32880459D01*
X131922084Y-32886147D01*
X131895761Y-32897798D01*
X131883853Y-32917786D01*
X131882533Y-32922416D01*
X131865740Y-32950715D01*
X131827218Y-32962941D01*
X131784814Y-32964749D01*
X131728634Y-32968129D01*
X131703453Y-32981864D01*
X131698166Y-33007083D01*
X131682986Y-33042726D01*
X131658301Y-33049416D01*
X131621055Y-33067294D01*
X131607366Y-33091749D01*
X131584578Y-33124120D01*
X131533278Y-33134072D01*
X131530814Y-33134083D01*
X131480784Y-33142158D01*
X131465333Y-33167814D01*
X131447683Y-33200617D01*
X131426322Y-33211747D01*
X131392962Y-33237074D01*
X131362501Y-33285710D01*
X131359217Y-33293551D01*
X131333258Y-33344080D01*
X131306384Y-33374248D01*
X131302978Y-33375954D01*
X131279832Y-33403443D01*
X131274833Y-33429752D01*
X131260199Y-33465581D01*
X131232499Y-33472749D01*
X131204803Y-33479849D01*
X131192563Y-33508546D01*
X131190166Y-33557416D01*
X131186616Y-33612808D01*
X131172267Y-33637289D01*
X131147833Y-33642083D01*
X131124188Y-33646716D01*
X131111412Y-33667072D01*
X131106277Y-33712832D01*
X131105499Y-33769083D01*
X131102856Y-33843689D01*
X131093754Y-33883563D01*
X131076433Y-33896044D01*
X131075046Y-33896083D01*
X131052264Y-33915376D01*
X131035538Y-33966600D01*
X131024979Y-34039774D01*
X131020698Y-34124913D01*
X130512850Y-34124913D01*
X130512974Y-33986421D01*
X130513684Y-33866074D01*
X130515391Y-33777756D01*
X130518526Y-33716315D01*
X130523518Y-33676599D01*
X130530796Y-33653456D01*
X130540789Y-33641733D01*
X130553926Y-33636280D01*
X130555166Y-33635949D01*
X130579832Y-33623210D01*
X130592657Y-33594352D01*
X130597202Y-33538489D01*
X130597499Y-33506481D01*
X130599275Y-33438509D01*
X130606980Y-33402839D01*
X130624175Y-33389507D01*
X130639833Y-33388083D01*
X130667529Y-33380982D01*
X130679769Y-33352285D01*
X130682166Y-33303416D01*
X130685985Y-33247569D01*
X130700754Y-33223015D01*
X130721794Y-33218749D01*
X130750743Y-33207027D01*
X130768726Y-33165996D01*
X130774961Y-33134082D01*
X130792360Y-33072670D01*
X130817962Y-33049517D01*
X130819999Y-33049416D01*
X130845575Y-33031790D01*
X130851499Y-33007083D01*
X130866466Y-32971706D01*
X130893833Y-32964749D01*
X130929209Y-32949782D01*
X130936166Y-32922416D01*
X130951133Y-32887040D01*
X130978499Y-32880083D01*
X131013875Y-32865115D01*
X131020833Y-32837749D01*
X131035800Y-32802373D01*
X131063166Y-32795416D01*
X131098542Y-32780449D01*
X131105499Y-32753083D01*
X131120466Y-32717706D01*
X131147833Y-32710749D01*
X131183209Y-32695782D01*
X131190166Y-32668416D01*
X131205315Y-32632832D01*
X131230768Y-32626083D01*
X131295065Y-32616276D01*
X131332564Y-32590100D01*
X131338333Y-32570901D01*
X131356718Y-32547846D01*
X131391249Y-32541416D01*
X131432744Y-32531494D01*
X131444166Y-32499083D01*
X131451083Y-32471635D01*
X131479198Y-32459332D01*
X131530814Y-32456749D01*
X131589937Y-32452160D01*
X131619474Y-32434902D01*
X131628533Y-32414416D01*
X131644693Y-32386622D01*
X131681735Y-32374257D01*
X131729739Y-32372082D01*
X131829651Y-32367089D01*
X131903541Y-32353143D01*
X131945207Y-32331792D01*
X131952166Y-32316520D01*
X131958021Y-32309408D01*
X131977844Y-32303512D01*
X132015019Y-32298729D01*
X132072930Y-32294950D01*
X132154962Y-32292072D01*
X132264499Y-32289987D01*
X132404925Y-32288591D01*
X132579625Y-32287778D01*
X132791983Y-32287441D01*
X132883499Y-32287416D01*
X133106162Y-32287459D01*
G37*
G36*
X77226162Y-32287459D02*
G01*
X77410174Y-32287699D01*
X77559220Y-32288305D01*
X77676982Y-32289442D01*
X77767144Y-32291280D01*
X77833390Y-32293984D01*
X77879402Y-32297723D01*
X77908864Y-32302665D01*
X77925459Y-32308975D01*
X77932870Y-32316823D01*
X77934781Y-32326375D01*
X77934833Y-32329749D01*
X77939466Y-32353393D01*
X77959822Y-32366169D01*
X78005582Y-32371304D01*
X78061833Y-32372083D01*
X78132765Y-32373627D01*
X78171093Y-32380412D01*
X78186498Y-32395666D01*
X78188833Y-32414416D01*
X78195933Y-32442112D01*
X78224630Y-32454352D01*
X78273499Y-32456749D01*
X78328891Y-32460299D01*
X78353372Y-32474648D01*
X78358166Y-32499083D01*
X78365266Y-32526779D01*
X78393963Y-32539019D01*
X78442833Y-32541416D01*
X78498225Y-32544966D01*
X78522706Y-32559314D01*
X78527499Y-32583749D01*
X78542466Y-32619125D01*
X78569833Y-32626083D01*
X78605209Y-32641050D01*
X78612166Y-32668416D01*
X78627133Y-32703792D01*
X78654499Y-32710749D01*
X78688816Y-32723565D01*
X78696833Y-32741540D01*
X78716216Y-32767075D01*
X78767242Y-32785518D01*
X78770380Y-32786128D01*
X78822609Y-32802301D01*
X78847877Y-32834134D01*
X78857037Y-32869806D01*
X78879785Y-32927502D01*
X78910489Y-32950236D01*
X78944262Y-32978038D01*
X78950833Y-33005101D01*
X78964793Y-33041792D01*
X78993166Y-33049416D01*
X79028542Y-33064383D01*
X79035499Y-33091749D01*
X79048614Y-33126122D01*
X79066999Y-33134082D01*
X79093104Y-33154453D01*
X79111131Y-33213315D01*
X79112038Y-33218749D01*
X79126774Y-33276595D01*
X79149881Y-33300998D01*
X79165204Y-33303416D01*
X79187444Y-33308863D01*
X79199461Y-33331543D01*
X79204223Y-33380960D01*
X79204833Y-33430416D01*
X79206377Y-33501348D01*
X79213162Y-33539676D01*
X79228416Y-33555081D01*
X79247166Y-33557416D01*
X79268258Y-33560951D01*
X79280899Y-33577234D01*
X79287218Y-33614779D01*
X79289343Y-33682103D01*
X79289499Y-33726749D01*
X79291294Y-33815537D01*
X79297434Y-33868697D01*
X79309049Y-33892811D01*
X79318603Y-33896083D01*
X79344317Y-33916512D01*
X79362433Y-33976023D01*
X79372369Y-34071948D01*
X79374166Y-34150083D01*
X79369697Y-34267630D01*
X79356679Y-34350448D01*
X79335695Y-34395869D01*
X79318603Y-34404083D01*
X79303343Y-34414526D01*
X79294206Y-34450246D01*
X79290061Y-34517825D01*
X79289499Y-34573416D01*
X79288615Y-34657785D01*
X79284545Y-34708349D01*
X79275158Y-34733625D01*
X79258327Y-34742126D01*
X79247166Y-34742749D01*
X79217068Y-34751884D01*
X79205518Y-34786686D01*
X79204543Y-34811541D01*
X79197598Y-34898124D01*
X79178881Y-34954707D01*
X79150315Y-34975568D01*
X79149447Y-34975583D01*
X79126625Y-34993950D01*
X79120166Y-35028499D01*
X79110244Y-35069994D01*
X79077833Y-35081416D01*
X79050136Y-35088516D01*
X79037896Y-35117213D01*
X79035499Y-35166083D01*
X79031949Y-35221475D01*
X79017601Y-35245956D01*
X78993166Y-35250749D01*
X78957790Y-35265716D01*
X78950833Y-35293083D01*
X78935865Y-35328459D01*
X78908499Y-35335416D01*
X78873123Y-35350383D01*
X78866166Y-35377749D01*
X78851199Y-35413125D01*
X78823833Y-35420083D01*
X78788456Y-35435050D01*
X78781499Y-35462416D01*
X78766532Y-35497792D01*
X78739166Y-35504749D01*
X78703790Y-35519716D01*
X78696833Y-35547083D01*
X78681865Y-35582459D01*
X78654499Y-35589416D01*
X78619123Y-35604383D01*
X78612166Y-35631749D01*
X78596986Y-35667392D01*
X78572301Y-35674083D01*
X78535055Y-35691960D01*
X78521366Y-35716416D01*
X78502139Y-35746504D01*
X78458111Y-35758029D01*
X78434231Y-35758749D01*
X78382343Y-35763220D01*
X78360994Y-35780801D01*
X78358166Y-35801083D01*
X78350823Y-35829100D01*
X78321359Y-35841253D01*
X78275968Y-35843416D01*
X78218295Y-35848631D01*
X78189959Y-35867944D01*
X78182699Y-35885749D01*
X78169960Y-35910415D01*
X78141102Y-35923241D01*
X78085239Y-35927786D01*
X78053231Y-35928083D01*
X77980258Y-35931374D01*
X77943025Y-35942258D01*
X77934833Y-35957187D01*
X77916427Y-35980962D01*
X77871813Y-35998862D01*
X77868687Y-35999520D01*
X77833517Y-36002399D01*
X77760910Y-36005062D01*
X77655761Y-36007440D01*
X77522966Y-36009463D01*
X77367419Y-36011061D01*
X77194017Y-36012165D01*
X77007654Y-36012706D01*
X76937353Y-36012749D01*
X76723459Y-36012701D01*
X76548077Y-36012430D01*
X76407386Y-36011751D01*
X76297564Y-36010475D01*
X76214791Y-36008417D01*
X76155244Y-36005389D01*
X76115103Y-36001205D01*
X76090546Y-35995677D01*
X76077753Y-35988617D01*
X76072901Y-35979841D01*
X76072166Y-35970416D01*
X76067602Y-35946915D01*
X76047497Y-35934138D01*
X76002233Y-35928926D01*
X75943184Y-35928083D01*
X75870217Y-35926212D01*
X75829047Y-35918496D01*
X75809222Y-35901774D01*
X75803132Y-35885749D01*
X75774712Y-35850036D01*
X75744260Y-35843416D01*
X75668091Y-35837463D01*
X75606089Y-35821911D01*
X75569463Y-35800218D01*
X75564166Y-35787853D01*
X75546524Y-35764250D01*
X75521833Y-35758749D01*
X75486174Y-35743565D01*
X75479499Y-35719121D01*
X75467777Y-35690172D01*
X75426746Y-35672189D01*
X75394833Y-35665954D01*
X75333420Y-35648555D01*
X75310267Y-35622953D01*
X75310166Y-35620916D01*
X75292540Y-35595340D01*
X75267833Y-35589416D01*
X75232456Y-35574449D01*
X75225499Y-35547083D01*
X75210532Y-35511706D01*
X75183166Y-35504749D01*
X75147790Y-35489782D01*
X75140833Y-35462416D01*
X75125865Y-35427040D01*
X75098499Y-35420083D01*
X75063123Y-35405115D01*
X75056166Y-35377749D01*
X75040982Y-35342091D01*
X75016538Y-35335416D01*
X74987589Y-35323693D01*
X74969606Y-35282663D01*
X74963371Y-35250749D01*
X74945972Y-35189337D01*
X74920370Y-35166183D01*
X74918332Y-35166083D01*
X74892756Y-35148457D01*
X74886833Y-35123749D01*
X74871865Y-35088373D01*
X74844499Y-35081416D01*
X74816803Y-35074316D01*
X74804563Y-35045619D01*
X74802166Y-34996749D01*
X74798616Y-34941357D01*
X74784267Y-34916876D01*
X74759833Y-34912083D01*
X74736188Y-34907449D01*
X74723412Y-34887093D01*
X74718277Y-34841333D01*
X74717499Y-34785083D01*
X74715955Y-34714150D01*
X74709169Y-34675822D01*
X74693916Y-34660417D01*
X74675166Y-34658083D01*
X74661887Y-34656630D01*
X74651721Y-34648949D01*
X74644253Y-34630058D01*
X74639066Y-34594973D01*
X74635747Y-34538713D01*
X74633879Y-34456295D01*
X74633047Y-34342736D01*
X74632837Y-34193053D01*
X74632833Y-34150083D01*
X75140833Y-34150083D01*
X75142628Y-34238871D01*
X75148767Y-34292031D01*
X75160382Y-34316144D01*
X75169937Y-34319416D01*
X75195233Y-34339591D01*
X75213537Y-34396971D01*
X75223734Y-34486837D01*
X75225499Y-34554895D01*
X75227847Y-34617401D01*
X75237759Y-34648195D01*
X75259543Y-34657772D01*
X75267833Y-34658083D01*
X75295529Y-34665183D01*
X75307769Y-34693880D01*
X75310166Y-34742749D01*
X75313716Y-34798141D01*
X75328064Y-34822622D01*
X75352499Y-34827416D01*
X75387875Y-34842383D01*
X75394833Y-34869749D01*
X75409800Y-34905125D01*
X75437166Y-34912083D01*
X75472542Y-34927050D01*
X75479499Y-34954416D01*
X75491700Y-34988747D01*
X75508780Y-34996749D01*
X75537211Y-35014483D01*
X75549132Y-35039083D01*
X75571240Y-35073494D01*
X75591466Y-35081416D01*
X75621520Y-35099167D01*
X75633799Y-35123749D01*
X75662167Y-35159583D01*
X75689184Y-35166083D01*
X75725875Y-35180043D01*
X75733499Y-35208416D01*
X75748466Y-35243792D01*
X75775833Y-35250749D01*
X75810165Y-35262878D01*
X75818166Y-35279853D01*
X75837459Y-35303353D01*
X75887868Y-35322482D01*
X75958183Y-35333781D01*
X75998260Y-35335416D01*
X76043005Y-35352314D01*
X76057132Y-35377749D01*
X76060810Y-35387862D01*
X76068549Y-35396222D01*
X76084072Y-35402994D01*
X76111103Y-35408347D01*
X76153366Y-35412447D01*
X76214583Y-35415461D01*
X76298480Y-35417555D01*
X76408778Y-35418897D01*
X76549202Y-35419655D01*
X76723476Y-35419993D01*
X76935322Y-35420080D01*
X77001518Y-35420083D01*
X77224438Y-35420040D01*
X77408704Y-35419800D01*
X77557996Y-35419197D01*
X77675993Y-35418063D01*
X77766374Y-35416231D01*
X77832819Y-35413536D01*
X77879006Y-35409808D01*
X77908617Y-35404883D01*
X77925329Y-35398593D01*
X77932822Y-35390771D01*
X77934776Y-35381249D01*
X77934833Y-35377749D01*
X77941933Y-35350053D01*
X77970630Y-35337813D01*
X78019499Y-35335416D01*
X78075186Y-35331688D01*
X78099719Y-35317066D01*
X78104166Y-35294943D01*
X78115502Y-35265475D01*
X78155555Y-35247029D01*
X78188833Y-35240166D01*
X78247504Y-35223255D01*
X78273022Y-35199818D01*
X78273499Y-35195972D01*
X78291131Y-35171736D01*
X78315833Y-35166083D01*
X78351209Y-35151115D01*
X78358166Y-35123749D01*
X78373133Y-35088373D01*
X78400499Y-35081416D01*
X78436142Y-35066236D01*
X78442833Y-35041551D01*
X78460710Y-35004305D01*
X78485166Y-34990616D01*
X78515254Y-34971389D01*
X78526779Y-34927361D01*
X78527499Y-34903481D01*
X78531970Y-34851593D01*
X78549551Y-34830244D01*
X78569833Y-34827416D01*
X78605345Y-34812322D01*
X78612166Y-34786134D01*
X78628308Y-34742220D01*
X78646748Y-34725500D01*
X78673219Y-34688374D01*
X78689882Y-34614922D01*
X78691600Y-34599258D01*
X78702341Y-34530304D01*
X78720319Y-34493896D01*
X78741685Y-34481957D01*
X78756793Y-34475109D01*
X78767522Y-34459512D01*
X78774614Y-34428828D01*
X78778809Y-34376716D01*
X78780849Y-34296837D01*
X78781476Y-34182850D01*
X78781499Y-34141481D01*
X78781240Y-34016703D01*
X78779936Y-33928088D01*
X78776796Y-33869467D01*
X78771028Y-33834669D01*
X78761841Y-33817526D01*
X78748444Y-33811868D01*
X78739166Y-33811416D01*
X78715522Y-33806782D01*
X78702746Y-33786426D01*
X78697611Y-33740666D01*
X78696833Y-33684416D01*
X78695133Y-33613143D01*
X78688056Y-33574629D01*
X78672636Y-33559369D01*
X78657204Y-33557416D01*
X78628256Y-33545693D01*
X78610273Y-33504663D01*
X78604038Y-33472749D01*
X78586639Y-33411337D01*
X78561037Y-33388183D01*
X78558999Y-33388083D01*
X78533423Y-33370457D01*
X78527499Y-33345749D01*
X78512532Y-33310373D01*
X78485166Y-33303416D01*
X78449790Y-33288449D01*
X78442833Y-33261083D01*
X78427865Y-33225706D01*
X78400499Y-33218749D01*
X78365123Y-33203782D01*
X78358166Y-33176416D01*
X78343199Y-33141040D01*
X78315833Y-33134083D01*
X78280456Y-33119115D01*
X78273499Y-33091749D01*
X78266399Y-33064053D01*
X78237702Y-33051813D01*
X78188833Y-33049416D01*
X78133440Y-33045866D01*
X78108959Y-33031517D01*
X78104166Y-33007083D01*
X78097066Y-32979386D01*
X78068369Y-32967146D01*
X78019499Y-32964749D01*
X77964107Y-32961199D01*
X77939626Y-32946851D01*
X77934833Y-32922416D01*
X77931150Y-32901033D01*
X77914344Y-32888286D01*
X77875777Y-32881909D01*
X77806811Y-32879636D01*
X77770791Y-32879376D01*
X77637657Y-32878891D01*
X77482736Y-32878472D01*
X77312425Y-32878124D01*
X77133117Y-32877849D01*
X76951208Y-32877654D01*
X76773093Y-32877540D01*
X76605168Y-32877513D01*
X76453825Y-32877577D01*
X76325462Y-32877735D01*
X76226473Y-32877992D01*
X76163253Y-32878351D01*
X76162124Y-32878362D01*
X76076147Y-32880066D01*
X76024114Y-32884507D01*
X75997638Y-32893799D01*
X75988335Y-32910057D01*
X75987499Y-32922416D01*
X75980399Y-32950112D01*
X75951702Y-32962352D01*
X75902833Y-32964749D01*
X75847440Y-32968299D01*
X75822959Y-32982648D01*
X75818166Y-33007083D01*
X75802986Y-33042726D01*
X75778301Y-33049416D01*
X75741055Y-33067294D01*
X75727366Y-33091749D01*
X75698998Y-33127583D01*
X75671981Y-33134083D01*
X75636592Y-33146106D01*
X75627666Y-33164151D01*
X75609442Y-33189983D01*
X75569458Y-33207092D01*
X75516567Y-33237577D01*
X75475490Y-33293651D01*
X75458350Y-33358570D01*
X75458333Y-33360552D01*
X75441300Y-33384926D01*
X75426583Y-33388083D01*
X75400725Y-33405729D01*
X75394833Y-33430416D01*
X75379865Y-33465792D01*
X75352499Y-33472749D01*
X75324803Y-33479849D01*
X75312563Y-33508546D01*
X75310166Y-33557416D01*
X75306616Y-33612808D01*
X75292267Y-33637289D01*
X75267833Y-33642083D01*
X75242189Y-33647804D01*
X75229556Y-33671967D01*
X75225626Y-33725066D01*
X75225499Y-33745270D01*
X75220739Y-33852478D01*
X75207200Y-33930051D01*
X75185995Y-33973270D01*
X75169937Y-33980749D01*
X75154676Y-33991193D01*
X75145539Y-34026913D01*
X75141395Y-34094492D01*
X75140833Y-34150083D01*
X74632833Y-34150083D01*
X74632954Y-33990740D01*
X74633594Y-33868749D01*
X74635168Y-33779125D01*
X74638092Y-33716887D01*
X74642780Y-33677051D01*
X74649648Y-33654635D01*
X74659111Y-33644657D01*
X74671585Y-33642133D01*
X74675166Y-33642083D01*
X74698810Y-33637449D01*
X74711586Y-33617093D01*
X74716721Y-33571333D01*
X74717499Y-33515083D01*
X74719044Y-33444150D01*
X74725829Y-33405822D01*
X74741082Y-33390417D01*
X74759833Y-33388083D01*
X74787529Y-33380982D01*
X74799769Y-33352285D01*
X74802166Y-33303416D01*
X74805716Y-33248024D01*
X74820064Y-33223543D01*
X74844499Y-33218749D01*
X74877695Y-33206347D01*
X74886833Y-33165833D01*
X74897563Y-33123711D01*
X74917623Y-33112916D01*
X74943150Y-33093500D01*
X74961647Y-33042246D01*
X74962312Y-33038833D01*
X74980105Y-32984730D01*
X75009349Y-32965169D01*
X75016188Y-32964749D01*
X75049841Y-32948677D01*
X75056166Y-32922416D01*
X75071133Y-32887040D01*
X75098499Y-32880083D01*
X75133875Y-32865115D01*
X75140833Y-32837749D01*
X75155800Y-32802373D01*
X75183166Y-32795416D01*
X75218542Y-32780449D01*
X75225499Y-32753083D01*
X75240466Y-32717706D01*
X75267833Y-32710749D01*
X75303428Y-32695593D01*
X75310166Y-32670276D01*
X75321502Y-32640808D01*
X75361555Y-32622362D01*
X75394833Y-32615499D01*
X75453504Y-32598588D01*
X75479022Y-32575151D01*
X75479499Y-32571305D01*
X75497131Y-32547070D01*
X75521833Y-32541416D01*
X75557209Y-32526449D01*
X75564166Y-32499083D01*
X75573301Y-32468985D01*
X75608103Y-32457434D01*
X75632958Y-32456460D01*
X75719541Y-32449515D01*
X75776124Y-32430798D01*
X75796985Y-32402231D01*
X75796999Y-32401364D01*
X75816506Y-32379026D01*
X75868437Y-32372082D01*
X75957881Y-32366709D01*
X76026511Y-32352112D01*
X76065951Y-32330574D01*
X76072166Y-32316520D01*
X76078021Y-32309408D01*
X76097844Y-32303512D01*
X76135019Y-32298729D01*
X76192930Y-32294950D01*
X76274962Y-32292072D01*
X76384499Y-32289987D01*
X76524925Y-32288591D01*
X76699625Y-32287778D01*
X76911983Y-32287441D01*
X77003499Y-32287416D01*
X77226162Y-32287459D01*
G37*
G36*
X116542833Y-88929416D02*
G01*
X116542833Y-89098749D01*
X111444312Y-89098749D01*
X110981875Y-89098803D01*
X110530179Y-89098963D01*
X110091082Y-89099223D01*
X109666442Y-89099580D01*
X109258116Y-89100027D01*
X108867962Y-89100561D01*
X108497837Y-89101176D01*
X108149600Y-89101868D01*
X107825107Y-89102633D01*
X107526217Y-89103464D01*
X107254786Y-89104358D01*
X107012673Y-89105310D01*
X106801735Y-89106315D01*
X106623829Y-89107369D01*
X106480814Y-89108466D01*
X106374547Y-89109601D01*
X106306885Y-89110771D01*
X106279687Y-89111970D01*
X106279645Y-89111978D01*
X106233977Y-89129211D01*
X106213573Y-89152922D01*
X106213499Y-89154312D01*
X106200817Y-89171680D01*
X106158509Y-89180889D01*
X106086499Y-89183416D01*
X106015567Y-89184960D01*
X105977239Y-89191746D01*
X105961834Y-89206999D01*
X105959499Y-89225749D01*
X105952399Y-89253445D01*
X105923702Y-89265686D01*
X105874833Y-89268083D01*
X105819440Y-89271633D01*
X105794959Y-89285981D01*
X105790166Y-89310416D01*
X105777764Y-89343612D01*
X105737249Y-89352749D01*
X105695127Y-89363479D01*
X105684333Y-89383540D01*
X105664917Y-89409066D01*
X105613662Y-89427564D01*
X105610249Y-89428229D01*
X105556147Y-89446022D01*
X105536586Y-89475266D01*
X105536166Y-89482105D01*
X105519845Y-89516056D01*
X105496188Y-89522083D01*
X105464336Y-89536246D01*
X105444889Y-89583638D01*
X105442312Y-89596166D01*
X105424365Y-89648819D01*
X105399053Y-89670190D01*
X105397623Y-89670249D01*
X105373114Y-89688690D01*
X105366833Y-89723166D01*
X105356911Y-89764661D01*
X105324499Y-89776083D01*
X105296803Y-89783183D01*
X105284563Y-89811880D01*
X105282166Y-89860749D01*
X105278616Y-89916141D01*
X105264267Y-89940622D01*
X105239833Y-89945416D01*
X105216006Y-89950140D01*
X105203233Y-89970821D01*
X105198198Y-90017218D01*
X105197499Y-90069947D01*
X105195483Y-90141496D01*
X105187223Y-90181443D01*
X105169399Y-90200419D01*
X105155166Y-90205549D01*
X105148471Y-90207862D01*
X105142522Y-90212678D01*
X105137274Y-90222369D01*
X105132685Y-90239308D01*
X105128709Y-90265866D01*
X105125303Y-90304416D01*
X105122423Y-90357331D01*
X105120024Y-90426981D01*
X105118063Y-90515740D01*
X105116495Y-90625979D01*
X105115276Y-90760071D01*
X105114363Y-90920388D01*
X105113712Y-91109302D01*
X105113278Y-91329185D01*
X105113017Y-91582410D01*
X105112885Y-91871348D01*
X105112838Y-92198372D01*
X105112833Y-92485416D01*
X105112822Y-92844227D01*
X105112761Y-93163078D01*
X105112606Y-93444339D01*
X105112312Y-93690384D01*
X105111836Y-93903584D01*
X105111133Y-94086312D01*
X105110160Y-94240939D01*
X105108872Y-94369839D01*
X105107226Y-94475383D01*
X105105176Y-94559942D01*
X105102680Y-94625891D01*
X105099693Y-94675600D01*
X105096172Y-94711442D01*
X105092071Y-94735789D01*
X105087347Y-94751013D01*
X105081957Y-94759487D01*
X105075855Y-94763582D01*
X105070499Y-94765283D01*
X105046356Y-94777527D01*
X105033511Y-94805186D01*
X105028645Y-94858890D01*
X105028166Y-94900885D01*
X105026560Y-94970976D01*
X105019530Y-95008548D01*
X105003757Y-95023361D01*
X104985833Y-95025416D01*
X104956955Y-95033449D01*
X104945073Y-95065039D01*
X104943499Y-95101481D01*
X104937177Y-95157196D01*
X104914351Y-95183874D01*
X104901166Y-95188616D01*
X104866724Y-95213340D01*
X104858833Y-95237083D01*
X104841040Y-95272160D01*
X104816499Y-95285549D01*
X104784598Y-95307563D01*
X104774238Y-95357387D01*
X104774166Y-95364083D01*
X104765587Y-95417165D01*
X104736022Y-95441405D01*
X104731833Y-95442616D01*
X104697244Y-95468496D01*
X104689499Y-95493551D01*
X104673379Y-95527116D01*
X104647166Y-95533416D01*
X104611790Y-95548383D01*
X104604833Y-95575749D01*
X104589758Y-95611440D01*
X104567203Y-95618083D01*
X104525477Y-95633210D01*
X104493327Y-95660416D01*
X104445622Y-95693210D01*
X104403956Y-95702749D01*
X104362357Y-95712589D01*
X104350833Y-95745083D01*
X104335969Y-95780358D01*
X104307835Y-95787416D01*
X104267240Y-95800951D01*
X104252875Y-95818590D01*
X104225589Y-95843283D01*
X104174930Y-95862033D01*
X104168574Y-95863335D01*
X104114119Y-95881670D01*
X104078983Y-95908019D01*
X104077494Y-95910397D01*
X104049006Y-95931910D01*
X103988499Y-95946086D01*
X103916371Y-95952955D01*
X103837569Y-95960014D01*
X103791703Y-95970659D01*
X103769379Y-95987889D01*
X103763610Y-96001718D01*
X103761487Y-96006456D01*
X103756530Y-96010802D01*
X103746980Y-96014772D01*
X103731081Y-96018383D01*
X103707074Y-96021653D01*
X103673202Y-96024598D01*
X103627705Y-96027235D01*
X103568828Y-96029581D01*
X103494810Y-96031654D01*
X103403896Y-96033469D01*
X103294326Y-96035045D01*
X103164343Y-96036398D01*
X103012188Y-96037544D01*
X102836105Y-96038502D01*
X102634335Y-96039288D01*
X102405121Y-96039918D01*
X102146703Y-96040411D01*
X101857325Y-96040782D01*
X101535229Y-96041049D01*
X101178656Y-96041229D01*
X100785849Y-96041338D01*
X100355049Y-96041395D01*
X99884500Y-96041414D01*
X99649364Y-96041416D01*
X95545499Y-96041416D01*
X95545499Y-95872083D01*
X95545499Y-95702749D01*
X99555071Y-95702749D01*
X100039974Y-95702733D01*
X100484325Y-95702675D01*
X100889906Y-95702558D01*
X101258500Y-95702367D01*
X101591886Y-95702085D01*
X101891849Y-95701697D01*
X102160168Y-95701185D01*
X102398625Y-95700535D01*
X102609004Y-95699730D01*
X102793084Y-95698753D01*
X102952648Y-95697590D01*
X103089478Y-95696223D01*
X103205355Y-95694637D01*
X103302061Y-95692815D01*
X103381377Y-95690742D01*
X103445086Y-95688401D01*
X103494969Y-95685777D01*
X103532808Y-95682853D01*
X103560385Y-95679613D01*
X103579481Y-95676041D01*
X103591878Y-95672120D01*
X103599358Y-95667836D01*
X103601177Y-95666214D01*
X103645818Y-95641540D01*
X103723682Y-95626319D01*
X103782605Y-95621493D01*
X103860079Y-95615602D01*
X103904112Y-95606941D01*
X103923596Y-95592556D01*
X103927499Y-95573361D01*
X103935520Y-95547042D01*
X103966703Y-95535461D01*
X104012166Y-95533416D01*
X104067558Y-95529866D01*
X104092039Y-95515517D01*
X104096833Y-95491083D01*
X104104866Y-95462205D01*
X104136456Y-95450323D01*
X104172897Y-95448749D01*
X104228613Y-95442427D01*
X104255291Y-95419601D01*
X104260033Y-95406416D01*
X104285913Y-95371828D01*
X104310968Y-95364083D01*
X104344532Y-95347962D01*
X104350833Y-95321749D01*
X104365800Y-95286373D01*
X104393166Y-95279416D01*
X104428809Y-95264236D01*
X104435499Y-95239551D01*
X104453377Y-95202305D01*
X104477833Y-95188616D01*
X104507920Y-95169389D01*
X104519446Y-95125361D01*
X104520166Y-95101481D01*
X104524637Y-95049593D01*
X104542218Y-95028244D01*
X104562499Y-95025416D01*
X104595649Y-95013068D01*
X104604833Y-94972292D01*
X104620472Y-94917748D01*
X104647166Y-94882921D01*
X104682442Y-94825183D01*
X104689499Y-94767764D01*
X104700332Y-94699064D01*
X104726541Y-94668125D01*
X104732420Y-94663035D01*
X104737658Y-94653139D01*
X104742298Y-94636066D01*
X104746386Y-94609445D01*
X104749966Y-94570907D01*
X104753080Y-94518080D01*
X104755775Y-94448594D01*
X104758093Y-94360078D01*
X104760079Y-94250162D01*
X104761777Y-94116476D01*
X104763232Y-93956647D01*
X104764487Y-93768307D01*
X104765587Y-93549085D01*
X104766575Y-93296609D01*
X104767497Y-93008509D01*
X104768396Y-92682415D01*
X104769156Y-92381074D01*
X104770127Y-92015038D01*
X104771157Y-91689156D01*
X104772280Y-91401250D01*
X104773530Y-91149139D01*
X104774939Y-90930645D01*
X104776540Y-90743589D01*
X104778366Y-90585791D01*
X104780451Y-90455072D01*
X104782827Y-90349253D01*
X104785528Y-90266155D01*
X104788586Y-90203598D01*
X104792035Y-90159404D01*
X104795908Y-90131394D01*
X104800238Y-90117388D01*
X104803552Y-90114749D01*
X104827750Y-90095054D01*
X104846365Y-90041594D01*
X104857108Y-89962812D01*
X104858833Y-89910813D01*
X104874352Y-89838374D01*
X104901166Y-89802921D01*
X104933828Y-89757326D01*
X104943499Y-89718462D01*
X104955065Y-89679873D01*
X104974290Y-89670249D01*
X104999816Y-89650834D01*
X105018314Y-89599579D01*
X105018979Y-89596166D01*
X105036772Y-89542064D01*
X105066016Y-89522503D01*
X105072855Y-89522083D01*
X105104575Y-89508334D01*
X105112833Y-89469166D01*
X105123563Y-89427044D01*
X105143623Y-89416249D01*
X105169150Y-89396834D01*
X105187647Y-89345579D01*
X105188312Y-89342166D01*
X105206105Y-89288064D01*
X105235349Y-89268503D01*
X105242188Y-89268083D01*
X105276139Y-89251761D01*
X105282166Y-89228105D01*
X105296330Y-89196252D01*
X105343721Y-89176806D01*
X105356249Y-89174229D01*
X105408902Y-89156282D01*
X105430273Y-89130970D01*
X105430333Y-89129540D01*
X105448773Y-89105030D01*
X105483249Y-89098749D01*
X105525236Y-89088363D01*
X105536166Y-89058771D01*
X105550330Y-89026919D01*
X105597721Y-89007473D01*
X105610249Y-89004896D01*
X105659151Y-88988689D01*
X105683669Y-88966790D01*
X105684333Y-88962912D01*
X105703609Y-88941272D01*
X105753904Y-88924081D01*
X105768999Y-88921288D01*
X105830411Y-88903889D01*
X105853565Y-88878287D01*
X105853666Y-88876249D01*
X105870738Y-88852472D01*
X105924179Y-88844750D01*
X105925103Y-88844749D01*
X106014547Y-88839376D01*
X106083177Y-88824778D01*
X106122617Y-88803241D01*
X106128833Y-88789187D01*
X106133796Y-88786035D01*
X106149656Y-88783111D01*
X106177869Y-88780408D01*
X106219890Y-88777918D01*
X106277177Y-88775631D01*
X106351184Y-88773540D01*
X106443368Y-88771637D01*
X106555185Y-88769913D01*
X106688091Y-88768362D01*
X106843542Y-88766973D01*
X107022993Y-88765740D01*
X107227901Y-88764654D01*
X107459721Y-88763706D01*
X107719910Y-88762890D01*
X108009924Y-88762196D01*
X108331218Y-88761617D01*
X108685249Y-88761144D01*
X109073473Y-88760770D01*
X109497345Y-88760486D01*
X109958322Y-88760283D01*
X110457859Y-88760155D01*
X110997413Y-88760092D01*
X111335833Y-88760083D01*
X116542833Y-88760083D01*
X116542833Y-88929416D01*
G37*
G36*
X129950611Y-100615605D02*
G01*
X129989833Y-100623699D01*
X130004119Y-100639987D01*
X130004833Y-100647147D01*
X130022602Y-100679224D01*
X130047166Y-100691949D01*
X130052465Y-100693746D01*
X130057303Y-100697472D01*
X130061700Y-100704979D01*
X130065677Y-100718119D01*
X130069256Y-100738743D01*
X130072457Y-100768702D01*
X130075301Y-100809848D01*
X130077810Y-100864032D01*
X130080005Y-100933105D01*
X130081906Y-101018918D01*
X130083534Y-101123323D01*
X130084912Y-101248171D01*
X130086059Y-101395313D01*
X130086997Y-101566601D01*
X130087747Y-101763886D01*
X130088329Y-101989020D01*
X130088766Y-102243852D01*
X130089078Y-102530236D01*
X130089286Y-102850022D01*
X130089411Y-103205061D01*
X130089474Y-103597205D01*
X130089496Y-104028305D01*
X130089499Y-104414249D01*
X130089481Y-104880112D01*
X130089414Y-105305484D01*
X130089282Y-105692206D01*
X130089065Y-106042122D01*
X130088747Y-106357073D01*
X130088309Y-106638902D01*
X130087734Y-106889451D01*
X130087004Y-107110561D01*
X130086102Y-107304076D01*
X130085009Y-107471837D01*
X130083708Y-107615687D01*
X130082181Y-107737468D01*
X130080410Y-107839021D01*
X130078378Y-107922190D01*
X130076067Y-107988815D01*
X130073458Y-108040741D01*
X130070535Y-108079808D01*
X130067279Y-108107859D01*
X130063673Y-108126736D01*
X130059699Y-108138281D01*
X130055340Y-108144336D01*
X130053527Y-108145610D01*
X130035733Y-108163695D01*
X130023475Y-108199604D01*
X130015168Y-108261224D01*
X130009229Y-108356444D01*
X130008669Y-108368912D01*
X130002186Y-108472395D01*
X129993119Y-108537550D01*
X129980772Y-108568337D01*
X129973026Y-108572083D01*
X129945937Y-108592063D01*
X129927935Y-108648617D01*
X129920550Y-108736666D01*
X129920455Y-108746708D01*
X129916152Y-108799991D01*
X129899767Y-108822565D01*
X129877833Y-108826083D01*
X129850136Y-108833183D01*
X129837896Y-108861880D01*
X129835499Y-108910749D01*
X129831719Y-108966528D01*
X129817013Y-108991073D01*
X129795521Y-108995416D01*
X129763201Y-109010043D01*
X129743818Y-109058562D01*
X129742029Y-109067455D01*
X129724565Y-109119469D01*
X129700004Y-109150201D01*
X129697340Y-109151458D01*
X129671674Y-109179975D01*
X129666166Y-109206418D01*
X129651532Y-109242247D01*
X129623833Y-109249416D01*
X129588456Y-109264383D01*
X129581499Y-109291749D01*
X129566532Y-109327125D01*
X129539166Y-109334083D01*
X129503790Y-109349050D01*
X129496833Y-109376416D01*
X129481865Y-109411792D01*
X129454499Y-109418749D01*
X129419123Y-109433716D01*
X129412166Y-109461083D01*
X129396986Y-109496726D01*
X129372301Y-109503416D01*
X129335055Y-109521294D01*
X129321366Y-109545749D01*
X129299352Y-109577651D01*
X129249528Y-109588010D01*
X129242833Y-109588083D01*
X129189750Y-109596661D01*
X129165510Y-109626226D01*
X129164299Y-109630416D01*
X129140528Y-109664848D01*
X129118068Y-109672749D01*
X129078358Y-109687794D01*
X129046660Y-109715083D01*
X129000020Y-109747811D01*
X128959758Y-109757416D01*
X128913067Y-109773301D01*
X128898033Y-109799749D01*
X128885202Y-109824509D01*
X128856123Y-109837329D01*
X128799866Y-109841814D01*
X128769616Y-109842083D01*
X128694854Y-109845728D01*
X128651577Y-109858521D01*
X128631540Y-109879124D01*
X128627958Y-109882890D01*
X128620590Y-109886397D01*
X128607953Y-109889654D01*
X128588565Y-109892674D01*
X128560946Y-109895467D01*
X128523613Y-109898044D01*
X128475085Y-109900416D01*
X128413880Y-109902593D01*
X128338516Y-109904587D01*
X128247512Y-109906409D01*
X128139385Y-109908069D01*
X128012655Y-109909579D01*
X127865839Y-109910949D01*
X127697456Y-109912190D01*
X127506024Y-109913313D01*
X127290062Y-109914330D01*
X127048087Y-109915250D01*
X126778618Y-109916085D01*
X126480173Y-109916845D01*
X126151271Y-109917542D01*
X125790430Y-109918187D01*
X125396168Y-109918790D01*
X124967004Y-109919363D01*
X124501456Y-109919915D01*
X123998041Y-109920459D01*
X123455279Y-109921005D01*
X122871688Y-109921564D01*
X122862572Y-109921572D01*
X117114333Y-109926978D01*
X117114333Y-109823676D01*
X117117147Y-109746094D01*
X117124212Y-109674354D01*
X117127562Y-109654228D01*
X117140791Y-109588083D01*
X122808343Y-109588083D01*
X123387339Y-109588080D01*
X123925497Y-109588066D01*
X124424316Y-109588028D01*
X124885291Y-109587955D01*
X125309919Y-109587838D01*
X125699696Y-109587663D01*
X126056119Y-109587420D01*
X126380685Y-109587098D01*
X126674891Y-109586686D01*
X126940232Y-109586173D01*
X127178205Y-109585547D01*
X127390307Y-109584797D01*
X127578034Y-109583913D01*
X127742884Y-109582882D01*
X127886352Y-109581694D01*
X128009935Y-109580338D01*
X128115130Y-109578803D01*
X128203433Y-109577076D01*
X128276341Y-109575148D01*
X128335351Y-109573007D01*
X128381958Y-109570642D01*
X128417660Y-109568041D01*
X128443953Y-109565194D01*
X128462334Y-109562090D01*
X128474298Y-109558716D01*
X128481344Y-109555063D01*
X128484967Y-109551119D01*
X128486664Y-109546872D01*
X128486966Y-109545749D01*
X128499705Y-109521083D01*
X128528563Y-109508258D01*
X128584426Y-109503713D01*
X128616434Y-109503416D01*
X128684406Y-109501640D01*
X128720076Y-109493935D01*
X128733408Y-109476740D01*
X128734833Y-109461083D01*
X128741933Y-109433386D01*
X128770630Y-109421146D01*
X128819499Y-109418749D01*
X128874891Y-109415199D01*
X128899372Y-109400851D01*
X128904166Y-109376416D01*
X128912199Y-109347538D01*
X128943789Y-109335656D01*
X128980231Y-109334083D01*
X129035946Y-109327761D01*
X129062624Y-109304935D01*
X129067366Y-109291749D01*
X129093246Y-109257161D01*
X129118301Y-109249416D01*
X129151866Y-109233295D01*
X129158166Y-109207083D01*
X129173133Y-109171706D01*
X129200499Y-109164749D01*
X129235875Y-109149782D01*
X129242833Y-109122416D01*
X129257800Y-109087040D01*
X129285166Y-109080083D01*
X129320542Y-109065115D01*
X129327499Y-109037749D01*
X129342683Y-109002091D01*
X129367127Y-108995416D01*
X129396076Y-108983693D01*
X129414059Y-108942663D01*
X129420294Y-108910749D01*
X129437693Y-108849337D01*
X129463295Y-108826183D01*
X129465333Y-108826083D01*
X129491837Y-108808726D01*
X129496833Y-108788453D01*
X129511960Y-108746727D01*
X129539166Y-108714577D01*
X129569637Y-108671171D01*
X129581119Y-108603310D01*
X129581499Y-108582873D01*
X129584540Y-108522736D01*
X129596475Y-108494358D01*
X129620519Y-108487416D01*
X129635394Y-108484219D01*
X129646459Y-108470588D01*
X129654675Y-108440459D01*
X129661002Y-108387772D01*
X129666402Y-108306464D01*
X129671835Y-108190472D01*
X129673365Y-108154041D01*
X129674875Y-108096401D01*
X129676340Y-107998894D01*
X129677750Y-107863985D01*
X129679098Y-107694140D01*
X129680375Y-107491825D01*
X129681571Y-107259505D01*
X129682677Y-106999646D01*
X129683686Y-106714715D01*
X129684588Y-106407176D01*
X129685374Y-106079495D01*
X129686035Y-105734139D01*
X129686564Y-105373573D01*
X129686950Y-105000263D01*
X129687186Y-104616674D01*
X129687262Y-104259374D01*
X129687302Y-103800620D01*
X129687414Y-103382372D01*
X129687614Y-103002804D01*
X129687919Y-102660090D01*
X129688344Y-102352404D01*
X129688907Y-102077918D01*
X129689623Y-101834806D01*
X129690509Y-101621242D01*
X129691581Y-101435399D01*
X129692856Y-101275451D01*
X129694349Y-101139571D01*
X129696078Y-101025932D01*
X129698058Y-100932708D01*
X129700306Y-100858073D01*
X129702837Y-100800200D01*
X129705670Y-100757263D01*
X129708818Y-100727434D01*
X129712300Y-100708888D01*
X129716131Y-100699798D01*
X129719083Y-100698083D01*
X129744940Y-100680436D01*
X129750833Y-100655749D01*
X129755466Y-100632105D01*
X129775822Y-100619329D01*
X129821582Y-100614194D01*
X129877833Y-100613416D01*
X129950611Y-100615605D01*
G37*
G36*
X80051499Y-104465749D02*
G01*
X80051537Y-104947633D01*
X80051657Y-105388880D01*
X80051874Y-105791188D01*
X80052200Y-106156253D01*
X80052648Y-106485771D01*
X80053231Y-106781441D01*
X80053962Y-107044959D01*
X80054854Y-107278021D01*
X80055919Y-107482325D01*
X80057171Y-107659567D01*
X80058622Y-107811445D01*
X80060285Y-107939654D01*
X80062174Y-108045892D01*
X80064300Y-108131856D01*
X80066678Y-108199242D01*
X80069320Y-108249748D01*
X80072238Y-108285070D01*
X80075446Y-108306905D01*
X80078957Y-108316950D01*
X80080780Y-108318083D01*
X80110170Y-108338314D01*
X80128689Y-108397839D01*
X80135816Y-108494902D01*
X80135877Y-108503498D01*
X80145650Y-108579803D01*
X80176784Y-108628412D01*
X80178499Y-108629910D01*
X80210736Y-108669156D01*
X80220833Y-108699083D01*
X80235803Y-108736973D01*
X80263166Y-108768255D01*
X80295960Y-108815960D01*
X80305499Y-108857625D01*
X80315339Y-108899225D01*
X80347833Y-108910749D01*
X80383476Y-108925929D01*
X80390166Y-108950614D01*
X80408044Y-108987860D01*
X80432499Y-109001549D01*
X80465104Y-109024730D01*
X80474832Y-109076751D01*
X80474833Y-109077142D01*
X80479886Y-109121142D01*
X80503336Y-109143562D01*
X80551647Y-109156075D01*
X80613759Y-109178574D01*
X80638783Y-109209951D01*
X80665256Y-109242825D01*
X80688968Y-109249416D01*
X80722532Y-109265536D01*
X80728833Y-109291749D01*
X80743800Y-109327125D01*
X80771166Y-109334083D01*
X80805538Y-109347198D01*
X80813499Y-109365582D01*
X80833869Y-109391688D01*
X80892732Y-109409715D01*
X80898166Y-109410621D01*
X80956011Y-109425357D01*
X80980414Y-109448464D01*
X80982833Y-109463788D01*
X80988280Y-109486027D01*
X81010959Y-109498045D01*
X81060376Y-109502806D01*
X81109833Y-109503416D01*
X81185446Y-109506284D01*
X81225591Y-109515893D01*
X81236833Y-109532697D01*
X81254710Y-109560313D01*
X81284458Y-109574741D01*
X81309469Y-109575840D01*
X81375063Y-109576915D01*
X81479488Y-109577964D01*
X81620992Y-109578981D01*
X81797824Y-109579963D01*
X82008233Y-109580906D01*
X82250468Y-109581807D01*
X82522777Y-109582660D01*
X82823409Y-109583462D01*
X83150613Y-109584209D01*
X83502637Y-109584897D01*
X83877730Y-109585521D01*
X84274141Y-109586079D01*
X84690119Y-109586566D01*
X85123912Y-109586978D01*
X85573769Y-109587310D01*
X86037939Y-109587560D01*
X86514670Y-109587722D01*
X86999458Y-109587793D01*
X92666833Y-109588083D01*
X92666833Y-109757416D01*
X92666833Y-109926749D01*
X86909499Y-109926749D01*
X86325776Y-109926747D01*
X85782904Y-109926733D01*
X85279402Y-109926697D01*
X84813787Y-109926627D01*
X84384578Y-109926513D01*
X83990292Y-109926343D01*
X83629448Y-109926107D01*
X83300564Y-109925795D01*
X83002157Y-109925394D01*
X82732747Y-109924895D01*
X82490850Y-109924286D01*
X82274984Y-109923556D01*
X82083669Y-109922694D01*
X81915422Y-109921691D01*
X81768761Y-109920534D01*
X81642204Y-109919212D01*
X81534269Y-109917716D01*
X81443474Y-109916033D01*
X81368338Y-109914154D01*
X81307378Y-109912067D01*
X81259112Y-109909761D01*
X81222058Y-109907226D01*
X81194735Y-109904450D01*
X81175661Y-109901422D01*
X81163353Y-109898133D01*
X81156329Y-109894570D01*
X81153109Y-109890723D01*
X81152209Y-109886581D01*
X81152166Y-109884416D01*
X81147532Y-109860772D01*
X81127176Y-109847996D01*
X81081416Y-109842861D01*
X81025166Y-109842083D01*
X80954234Y-109840538D01*
X80915906Y-109833753D01*
X80900501Y-109818499D01*
X80898166Y-109799749D01*
X80891066Y-109772053D01*
X80862369Y-109759813D01*
X80813499Y-109757416D01*
X80758107Y-109753866D01*
X80733626Y-109739517D01*
X80728833Y-109715083D01*
X80721732Y-109687386D01*
X80693035Y-109675146D01*
X80644166Y-109672749D01*
X80588774Y-109669199D01*
X80564293Y-109654851D01*
X80559499Y-109630416D01*
X80544532Y-109595040D01*
X80517166Y-109588083D01*
X80481790Y-109573115D01*
X80474833Y-109545749D01*
X80459865Y-109510373D01*
X80432499Y-109503416D01*
X80397821Y-109489938D01*
X80390166Y-109471142D01*
X80372465Y-109440374D01*
X80337249Y-109418749D01*
X80297998Y-109396644D01*
X80284333Y-109376940D01*
X80267197Y-109357699D01*
X80252583Y-109355249D01*
X80227047Y-109336849D01*
X80220833Y-109302333D01*
X80210911Y-109260837D01*
X80178499Y-109249416D01*
X80143123Y-109234449D01*
X80136166Y-109207083D01*
X80121199Y-109171706D01*
X80093833Y-109164749D01*
X80058456Y-109149782D01*
X80051499Y-109122416D01*
X80036532Y-109087040D01*
X80009166Y-109080083D01*
X79981470Y-109072982D01*
X79969229Y-109044285D01*
X79966833Y-108995416D01*
X79963282Y-108940024D01*
X79948934Y-108915543D01*
X79924499Y-108910749D01*
X79896803Y-108903649D01*
X79884563Y-108874952D01*
X79882166Y-108826083D01*
X79878616Y-108770690D01*
X79864267Y-108746209D01*
X79839833Y-108741416D01*
X79816006Y-108736691D01*
X79803233Y-108716011D01*
X79798198Y-108669613D01*
X79797499Y-108616885D01*
X79795483Y-108545336D01*
X79787223Y-108505389D01*
X79769399Y-108486413D01*
X79755166Y-108481283D01*
X79750008Y-108479538D01*
X79745288Y-108475920D01*
X79740985Y-108468630D01*
X79737080Y-108455868D01*
X79733554Y-108435835D01*
X79730388Y-108406733D01*
X79727561Y-108366761D01*
X79725056Y-108314122D01*
X79722852Y-108247015D01*
X79720931Y-108163642D01*
X79719272Y-108062204D01*
X79717857Y-107940901D01*
X79716666Y-107797934D01*
X79715679Y-107631505D01*
X79714879Y-107439814D01*
X79714244Y-107221063D01*
X79713757Y-106973451D01*
X79713397Y-106695180D01*
X79713145Y-106384451D01*
X79712982Y-106039464D01*
X79712889Y-105658421D01*
X79712845Y-105239523D01*
X79712833Y-104780969D01*
X79712833Y-104541814D01*
X79712833Y-100613416D01*
X79882166Y-100613416D01*
X80051499Y-100613416D01*
X80051499Y-104465749D01*
G37*
G36*
X124808889Y-117412839D02*
G01*
X124846550Y-117415146D01*
X124976500Y-117420362D01*
X125123299Y-117421452D01*
X125262840Y-117418387D01*
X125316416Y-117415672D01*
X125444648Y-117410733D01*
X125591054Y-117409905D01*
X125731675Y-117413170D01*
X125787374Y-117416014D01*
X125918402Y-117421113D01*
X126067103Y-117422042D01*
X126209022Y-117418800D01*
X126263624Y-117416014D01*
X126393652Y-117410888D01*
X126540391Y-117409847D01*
X126679883Y-117412908D01*
X126734583Y-117415672D01*
X126864283Y-117420666D01*
X127011379Y-117421455D01*
X127151144Y-117418050D01*
X127200249Y-117415465D01*
X127328374Y-117410458D01*
X127474724Y-117409605D01*
X127615395Y-117412890D01*
X127671572Y-117415784D01*
X127802546Y-117420964D01*
X127951078Y-117421968D01*
X128092804Y-117418787D01*
X128147822Y-117415990D01*
X128277827Y-117410872D01*
X128424589Y-117409844D01*
X128564099Y-117412923D01*
X128618416Y-117415672D01*
X128747469Y-117420627D01*
X128894260Y-117421394D01*
X129034403Y-117417994D01*
X129086371Y-117415268D01*
X129214990Y-117410177D01*
X129361992Y-117409193D01*
X129503626Y-117412317D01*
X129562621Y-117415268D01*
X129692847Y-117420397D01*
X129839411Y-117421498D01*
X129978767Y-117418553D01*
X130036583Y-117415672D01*
X130166291Y-117410655D01*
X130313396Y-117409807D01*
X130453165Y-117413128D01*
X130502249Y-117415672D01*
X130630472Y-117420583D01*
X130776867Y-117421341D01*
X130917482Y-117417974D01*
X130973208Y-117415076D01*
X131104224Y-117409890D01*
X131252912Y-117408945D01*
X131394823Y-117412241D01*
X131449458Y-117415076D01*
X131579476Y-117420314D01*
X131726205Y-117421442D01*
X131865691Y-117418430D01*
X131920416Y-117415672D01*
X132050065Y-117410659D01*
X132197142Y-117409812D01*
X132336947Y-117413132D01*
X132386290Y-117415688D01*
X132511979Y-117420938D01*
X132651153Y-117422572D01*
X132781126Y-117420460D01*
X132830790Y-117418239D01*
X132921197Y-117414869D01*
X132994996Y-117415526D01*
X133042540Y-117419931D01*
X133054816Y-117424702D01*
X133081249Y-117436876D01*
X133136320Y-117448840D01*
X133187108Y-117455648D01*
X133265981Y-117468667D01*
X133303373Y-117487242D01*
X133306833Y-117496544D01*
X133326268Y-117518784D01*
X133377649Y-117536098D01*
X133391499Y-117538621D01*
X133449345Y-117553357D01*
X133473748Y-117576464D01*
X133476166Y-117591788D01*
X133490083Y-117623249D01*
X133529290Y-117631416D01*
X133583834Y-117647055D01*
X133618660Y-117673749D01*
X133659823Y-117706119D01*
X133692537Y-117716083D01*
X133724261Y-117733041D01*
X133730166Y-117758416D01*
X133742981Y-117792733D01*
X133760957Y-117800749D01*
X133786437Y-117820323D01*
X133805201Y-117872703D01*
X133806158Y-117877564D01*
X133828658Y-117939675D01*
X133860034Y-117964700D01*
X133892906Y-117990696D01*
X133899499Y-118013833D01*
X133916255Y-118056627D01*
X133933489Y-118071667D01*
X133958911Y-118107152D01*
X133975900Y-118175657D01*
X133978197Y-118194427D01*
X133992121Y-118265534D01*
X134014493Y-118315644D01*
X134023582Y-118325535D01*
X134026882Y-118330327D01*
X134029971Y-118340236D01*
X134032859Y-118356635D01*
X134035553Y-118380893D01*
X134038061Y-118414384D01*
X134040392Y-118458479D01*
X134042555Y-118514548D01*
X134044556Y-118583964D01*
X134046405Y-118668098D01*
X134048110Y-118768321D01*
X134049680Y-118886005D01*
X134051121Y-119022522D01*
X134052443Y-119179243D01*
X134053654Y-119357540D01*
X134054762Y-119558783D01*
X134055776Y-119784346D01*
X134056703Y-120035598D01*
X134057552Y-120313912D01*
X134058332Y-120620658D01*
X134059049Y-120957210D01*
X134059714Y-121324937D01*
X134060334Y-121725213D01*
X134060917Y-122159407D01*
X134061471Y-122628892D01*
X134062005Y-123135039D01*
X134062527Y-123679220D01*
X134063046Y-124262805D01*
X134063569Y-124887168D01*
X134063640Y-124974665D01*
X134064150Y-125602177D01*
X134064616Y-126188739D01*
X134065032Y-126735736D01*
X134065391Y-127244552D01*
X134065683Y-127716572D01*
X134065902Y-128153179D01*
X134066039Y-128555758D01*
X134066088Y-128925693D01*
X134066040Y-129264367D01*
X134065887Y-129573166D01*
X134065622Y-129853473D01*
X134065237Y-130106673D01*
X134064725Y-130334150D01*
X134064077Y-130537287D01*
X134063286Y-130717469D01*
X134062344Y-130876081D01*
X134061244Y-131014506D01*
X134059977Y-131134128D01*
X134058537Y-131236332D01*
X134056914Y-131322502D01*
X134055102Y-131394022D01*
X134053093Y-131452276D01*
X134050879Y-131498648D01*
X134048452Y-131534523D01*
X134045805Y-131561285D01*
X134042930Y-131580317D01*
X134039819Y-131593005D01*
X134036464Y-131600731D01*
X134032858Y-131604881D01*
X134028992Y-131606839D01*
X134026599Y-131607523D01*
X134001881Y-131620242D01*
X133989028Y-131649013D01*
X133984468Y-131704732D01*
X133984166Y-131737018D01*
X133982390Y-131804989D01*
X133974685Y-131840659D01*
X133957490Y-131853991D01*
X133941833Y-131855416D01*
X133914136Y-131862516D01*
X133901896Y-131891213D01*
X133899499Y-131940083D01*
X133895949Y-131995475D01*
X133881601Y-132019956D01*
X133857166Y-132024749D01*
X133821790Y-132039716D01*
X133814833Y-132067083D01*
X133799865Y-132102459D01*
X133772499Y-132109416D01*
X133737123Y-132124383D01*
X133730166Y-132151749D01*
X133715199Y-132187125D01*
X133687833Y-132194083D01*
X133652456Y-132209050D01*
X133645499Y-132236416D01*
X133630532Y-132271792D01*
X133603166Y-132278749D01*
X133567790Y-132293716D01*
X133560833Y-132321083D01*
X133548485Y-132354232D01*
X133507709Y-132363416D01*
X133453165Y-132379055D01*
X133418338Y-132405749D01*
X133361675Y-132440702D01*
X133302128Y-132448083D01*
X133248635Y-132452095D01*
X133225846Y-132468084D01*
X133222166Y-132490416D01*
X133221815Y-132495299D01*
X133219633Y-132499792D01*
X133213925Y-132503910D01*
X133202997Y-132507670D01*
X133185153Y-132511088D01*
X133158700Y-132514180D01*
X133121942Y-132516963D01*
X133073185Y-132519453D01*
X133010734Y-132521667D01*
X132932894Y-132523620D01*
X132837971Y-132525329D01*
X132724271Y-132526810D01*
X132590097Y-132528080D01*
X132433757Y-132529154D01*
X132253555Y-132530050D01*
X132047796Y-132530783D01*
X131814786Y-132531369D01*
X131552831Y-132531826D01*
X131260234Y-132532169D01*
X130935303Y-132532414D01*
X130576342Y-132532578D01*
X130181656Y-132532677D01*
X129749551Y-132532728D01*
X129278333Y-132532747D01*
X128819499Y-132532749D01*
X128304606Y-132532719D01*
X127830435Y-132532623D01*
X127395377Y-132532449D01*
X126997822Y-132532186D01*
X126636160Y-132531823D01*
X126308780Y-132531350D01*
X126014072Y-132530754D01*
X125750426Y-132530027D01*
X125516232Y-132529155D01*
X125309880Y-132528128D01*
X125129759Y-132526936D01*
X124974259Y-132525567D01*
X124841770Y-132524011D01*
X124730682Y-132522256D01*
X124639385Y-132520291D01*
X124566268Y-132518105D01*
X124509721Y-132515687D01*
X124468135Y-132513027D01*
X124439898Y-132510114D01*
X124423401Y-132506935D01*
X124417034Y-132503481D01*
X124416833Y-132502681D01*
X124398438Y-132477989D01*
X124354036Y-132460485D01*
X124353333Y-132460348D01*
X124281789Y-132446529D01*
X124226333Y-132435817D01*
X124181690Y-132418484D01*
X124162836Y-132393818D01*
X124162833Y-132393484D01*
X124145203Y-132369105D01*
X124120499Y-132363416D01*
X124085123Y-132348449D01*
X124078166Y-132321083D01*
X124063794Y-132285753D01*
X124043631Y-132278749D01*
X124011144Y-132264579D01*
X123961830Y-132227786D01*
X123916631Y-132186284D01*
X123867592Y-132131953D01*
X123834066Y-132084685D01*
X123824166Y-132059284D01*
X123806669Y-132030349D01*
X123784188Y-132024749D01*
X123751867Y-132010122D01*
X123732485Y-131961603D01*
X123730696Y-131952710D01*
X123713232Y-131900696D01*
X123688671Y-131869964D01*
X123686007Y-131868707D01*
X123662666Y-131837790D01*
X123654833Y-131773882D01*
X123649719Y-131715994D01*
X123630737Y-131687479D01*
X123612499Y-131679949D01*
X123608504Y-131678619D01*
X123604769Y-131675867D01*
X123601285Y-131670315D01*
X123598043Y-131660586D01*
X123595034Y-131645302D01*
X123592250Y-131623084D01*
X123589681Y-131592554D01*
X123587321Y-131552334D01*
X123585158Y-131501046D01*
X123583185Y-131437313D01*
X123581394Y-131359755D01*
X123579775Y-131266995D01*
X123578319Y-131157655D01*
X123577019Y-131030356D01*
X123575864Y-130883721D01*
X123574848Y-130716372D01*
X123573960Y-130526930D01*
X123573192Y-130314017D01*
X123572535Y-130076256D01*
X123571981Y-129812268D01*
X123571521Y-129520675D01*
X123571146Y-129200099D01*
X123570847Y-128849161D01*
X123570617Y-128466485D01*
X123570445Y-128050692D01*
X123570323Y-127600403D01*
X123570244Y-127114241D01*
X123570197Y-126590827D01*
X123570174Y-126028784D01*
X123570166Y-125426733D01*
X123570166Y-124988814D01*
X123570187Y-124347971D01*
X123570253Y-123748170D01*
X123570371Y-123188120D01*
X123570546Y-122666531D01*
X123570725Y-122301890D01*
X123992706Y-122301890D01*
X123992712Y-122763160D01*
X123992740Y-123259150D01*
X123992786Y-123791116D01*
X123992843Y-124360314D01*
X123992909Y-124968001D01*
X123992976Y-125615433D01*
X123993041Y-126303865D01*
X123993045Y-126346791D01*
X123993096Y-126903525D01*
X123993156Y-127419478D01*
X123993239Y-127896200D01*
X123993358Y-128335242D01*
X123993524Y-128738155D01*
X123993750Y-129106491D01*
X123994050Y-129441801D01*
X123994435Y-129745637D01*
X123994919Y-130019548D01*
X123995513Y-130265088D01*
X123996231Y-130483806D01*
X123997085Y-130677254D01*
X123998089Y-130846984D01*
X123999253Y-130994546D01*
X124000592Y-131121491D01*
X124002118Y-131229372D01*
X124003842Y-131319739D01*
X124005779Y-131394143D01*
X124007941Y-131454135D01*
X124010340Y-131501268D01*
X124012988Y-131537091D01*
X124015899Y-131563157D01*
X124019086Y-131581016D01*
X124022560Y-131592220D01*
X124026335Y-131598319D01*
X124030422Y-131600866D01*
X124034836Y-131601411D01*
X124035833Y-131601416D01*
X124063529Y-131608516D01*
X124075769Y-131637213D01*
X124078166Y-131686083D01*
X124081716Y-131741475D01*
X124096064Y-131765956D01*
X124120499Y-131770749D01*
X124155875Y-131785716D01*
X124162833Y-131813083D01*
X124176919Y-131848221D01*
X124196564Y-131855416D01*
X124228641Y-131873186D01*
X124241366Y-131897749D01*
X124267246Y-131932337D01*
X124292301Y-131940083D01*
X124326184Y-131956445D01*
X124332166Y-131979711D01*
X124343888Y-132008659D01*
X124384919Y-132026642D01*
X124416833Y-132032877D01*
X124478245Y-132050276D01*
X124501398Y-132075878D01*
X124501499Y-132077916D01*
X124505041Y-132081618D01*
X124516770Y-132085023D01*
X124538342Y-132088144D01*
X124571412Y-132090992D01*
X124617635Y-132093580D01*
X124678668Y-132095919D01*
X124756166Y-132098022D01*
X124851784Y-132099900D01*
X124967177Y-132101567D01*
X125104002Y-132103033D01*
X125263913Y-132104311D01*
X125448567Y-132105413D01*
X125659618Y-132106351D01*
X125898723Y-132107138D01*
X126167536Y-132107784D01*
X126467713Y-132108303D01*
X126800910Y-132108707D01*
X127168782Y-132109007D01*
X127572984Y-132109215D01*
X128015173Y-132109344D01*
X128497003Y-132109406D01*
X128819499Y-132109416D01*
X129322255Y-132109412D01*
X129784389Y-132109391D01*
X130207611Y-132109334D01*
X130593634Y-132109226D01*
X130944169Y-132109049D01*
X131260926Y-132108787D01*
X131545616Y-132108423D01*
X131799952Y-132107941D01*
X132025645Y-132107322D01*
X132224404Y-132106551D01*
X132397942Y-132105612D01*
X132547970Y-132104486D01*
X132676199Y-132103158D01*
X132784341Y-132101610D01*
X132874105Y-132099826D01*
X132947205Y-132097788D01*
X133005350Y-132095481D01*
X133050252Y-132092888D01*
X133083622Y-132089991D01*
X133107172Y-132086774D01*
X133122612Y-132083220D01*
X133131654Y-132079313D01*
X133136009Y-132075035D01*
X133137388Y-132070370D01*
X133137499Y-132067083D01*
X133144599Y-132039386D01*
X133173296Y-132027146D01*
X133222166Y-132024749D01*
X133277558Y-132021199D01*
X133302039Y-132006851D01*
X133306833Y-131982416D01*
X133321800Y-131947040D01*
X133349166Y-131940083D01*
X133384542Y-131925115D01*
X133391499Y-131897749D01*
X133406466Y-131862373D01*
X133433833Y-131855416D01*
X133469476Y-131840236D01*
X133476166Y-131815551D01*
X133494044Y-131778305D01*
X133518499Y-131764616D01*
X133548789Y-131745093D01*
X133560211Y-131700422D01*
X133560833Y-131678533D01*
X133572647Y-131611490D01*
X133597874Y-131582790D01*
X133601401Y-131579373D01*
X133604700Y-131572277D01*
X133607781Y-131560118D01*
X133610653Y-131541513D01*
X133613324Y-131515077D01*
X133615803Y-131479426D01*
X133618099Y-131433177D01*
X133620221Y-131374946D01*
X133622178Y-131303349D01*
X133623979Y-131217001D01*
X133625633Y-131114519D01*
X133627148Y-130994520D01*
X133628533Y-130855619D01*
X133629798Y-130696432D01*
X133630952Y-130515575D01*
X133632002Y-130311665D01*
X133632959Y-130083317D01*
X133633830Y-129829149D01*
X133634625Y-129547775D01*
X133635353Y-129237811D01*
X133636023Y-128897875D01*
X133636643Y-128526582D01*
X133637222Y-128122548D01*
X133637770Y-127684390D01*
X133638295Y-127210723D01*
X133638806Y-126700163D01*
X133639312Y-126151327D01*
X133639822Y-125562831D01*
X133640308Y-124977738D01*
X133640819Y-124352064D01*
X133641287Y-123767337D01*
X133641704Y-123222172D01*
X133642063Y-122715182D01*
X133642356Y-122244983D01*
X133642575Y-121810189D01*
X133642712Y-121409413D01*
X133642760Y-121041270D01*
X133642710Y-120704374D01*
X133642555Y-120397340D01*
X133642288Y-120118781D01*
X133641899Y-119867312D01*
X133641382Y-119641547D01*
X133640729Y-119440101D01*
X133639932Y-119261587D01*
X133638983Y-119104619D01*
X133637874Y-118967813D01*
X133636597Y-118849782D01*
X133635146Y-118749140D01*
X133633511Y-118664502D01*
X133631685Y-118594482D01*
X133629661Y-118537694D01*
X133627430Y-118492752D01*
X133624985Y-118458271D01*
X133622318Y-118432865D01*
X133619421Y-118415148D01*
X133616286Y-118403734D01*
X133612906Y-118397237D01*
X133609272Y-118394272D01*
X133605378Y-118393454D01*
X133603266Y-118393416D01*
X133575512Y-118386350D01*
X133563243Y-118357747D01*
X133560833Y-118308749D01*
X133557282Y-118253357D01*
X133542934Y-118228876D01*
X133518499Y-118224083D01*
X133484826Y-118211114D01*
X133476166Y-118173282D01*
X133459326Y-118122460D01*
X133416962Y-118064732D01*
X133361310Y-118012336D01*
X133304606Y-117977506D01*
X133272966Y-117970083D01*
X133232558Y-117959275D01*
X133222166Y-117927749D01*
X133215066Y-117900053D01*
X133186369Y-117887813D01*
X133137499Y-117885416D01*
X133076447Y-117879266D01*
X133053224Y-117860177D01*
X133052833Y-117856135D01*
X133034955Y-117828519D01*
X133005208Y-117814090D01*
X132979566Y-117812814D01*
X132913638Y-117811569D01*
X132809467Y-117810363D01*
X132669101Y-117809202D01*
X132494585Y-117808092D01*
X132287965Y-117807039D01*
X132051287Y-117806050D01*
X131786597Y-117805131D01*
X131495940Y-117804288D01*
X131181362Y-117803528D01*
X130844910Y-117802856D01*
X130488629Y-117802280D01*
X130114565Y-117801806D01*
X129724763Y-117801439D01*
X129321271Y-117801186D01*
X128906132Y-117801054D01*
X128771874Y-117801038D01*
X128277198Y-117801008D01*
X127823116Y-117800999D01*
X127407892Y-117801030D01*
X127029788Y-117801117D01*
X126687064Y-117801278D01*
X126377984Y-117801532D01*
X126100809Y-117801894D01*
X125853801Y-117802383D01*
X125635222Y-117803016D01*
X125443334Y-117803810D01*
X125276400Y-117804784D01*
X125132680Y-117805953D01*
X125010437Y-117807337D01*
X124907934Y-117808952D01*
X124823431Y-117810816D01*
X124755192Y-117812945D01*
X124701477Y-117815359D01*
X124660549Y-117818074D01*
X124630670Y-117821107D01*
X124610102Y-117824477D01*
X124597107Y-117828200D01*
X124589946Y-117832294D01*
X124586882Y-117836776D01*
X124586177Y-117841665D01*
X124586166Y-117843083D01*
X124579128Y-117870694D01*
X124550630Y-117882956D01*
X124500835Y-117885416D01*
X124433829Y-117893519D01*
X124403541Y-117916590D01*
X124376244Y-117941319D01*
X124325627Y-117960035D01*
X124319539Y-117961279D01*
X124266242Y-117979395D01*
X124247717Y-118009795D01*
X124247499Y-118014771D01*
X124231427Y-118048424D01*
X124205166Y-118054749D01*
X124169653Y-118069843D01*
X124162833Y-118096031D01*
X124147385Y-118139524D01*
X124129653Y-118155881D01*
X124104883Y-118186813D01*
X124082165Y-118242389D01*
X124075813Y-118266399D01*
X124056516Y-118328001D01*
X124032805Y-118372620D01*
X124024561Y-118381174D01*
X124021759Y-118382053D01*
X124019123Y-118381219D01*
X124016649Y-118379930D01*
X124014332Y-118379440D01*
X124012166Y-118381007D01*
X124010146Y-118385887D01*
X124008268Y-118395336D01*
X124006527Y-118410610D01*
X124004917Y-118432966D01*
X124003434Y-118463660D01*
X124002072Y-118503948D01*
X124000828Y-118555086D01*
X123999695Y-118618331D01*
X123998668Y-118694939D01*
X123997744Y-118786166D01*
X123996916Y-118893269D01*
X123996181Y-119017504D01*
X123995532Y-119160127D01*
X123994965Y-119322394D01*
X123994475Y-119505562D01*
X123994056Y-119710886D01*
X123993705Y-119939625D01*
X123993416Y-120193032D01*
X123993184Y-120472366D01*
X123993004Y-120778881D01*
X123992871Y-121113835D01*
X123992781Y-121478484D01*
X123992727Y-121874083D01*
X123992706Y-122301890D01*
X123570725Y-122301890D01*
X123570784Y-122182111D01*
X123571090Y-121733570D01*
X123571470Y-121319616D01*
X123571930Y-120938959D01*
X123572474Y-120590307D01*
X123573110Y-120272369D01*
X123573843Y-119983855D01*
X123574678Y-119723474D01*
X123575620Y-119489934D01*
X123576676Y-119281945D01*
X123577852Y-119098215D01*
X123579152Y-118937455D01*
X123580583Y-118798371D01*
X123582151Y-118679675D01*
X123583860Y-118580074D01*
X123585716Y-118498278D01*
X123587726Y-118432996D01*
X123589895Y-118382936D01*
X123592228Y-118346809D01*
X123594732Y-118323322D01*
X123597411Y-118311185D01*
X123599447Y-118308749D01*
X123628559Y-118288709D01*
X123647305Y-118231073D01*
X123654507Y-118139570D01*
X123654543Y-118134124D01*
X123658846Y-118080840D01*
X123675232Y-118058267D01*
X123697166Y-118054749D01*
X123730316Y-118042402D01*
X123739499Y-118001625D01*
X123755138Y-117947081D01*
X123781833Y-117912255D01*
X123814203Y-117871092D01*
X123824166Y-117838378D01*
X123841124Y-117806654D01*
X123866499Y-117800749D01*
X123901875Y-117785782D01*
X123908833Y-117758416D01*
X123923800Y-117723040D01*
X123951166Y-117716083D01*
X123986801Y-117700905D01*
X123993499Y-117676105D01*
X124008126Y-117643784D01*
X124056645Y-117624402D01*
X124065539Y-117622612D01*
X124117552Y-117605149D01*
X124148284Y-117580587D01*
X124149541Y-117577923D01*
X124178184Y-117551742D01*
X124202033Y-117546749D01*
X124240129Y-117528726D01*
X124253632Y-117504416D01*
X124266877Y-117479250D01*
X124296966Y-117466424D01*
X124355006Y-117462139D01*
X124377809Y-117461952D01*
X124455133Y-117456010D01*
X124524472Y-117441046D01*
X124550217Y-117430890D01*
X124586742Y-117417072D01*
X124636133Y-117409771D01*
X124707234Y-117408517D01*
X124808889Y-117412839D01*
G37*
G36*
X113133198Y-117383049D02*
G01*
X113246120Y-117389257D01*
X113328189Y-117397699D01*
X113412126Y-117406332D01*
X113524463Y-117412813D01*
X113651296Y-117416571D01*
X113778722Y-117417037D01*
X113794614Y-117416826D01*
X113918596Y-117415073D01*
X114041341Y-117413629D01*
X114149858Y-117412629D01*
X114231158Y-117412207D01*
X114240958Y-117412202D01*
X114327337Y-117412240D01*
X114445223Y-117412281D01*
X114583792Y-117412322D01*
X114732217Y-117412360D01*
X114879673Y-117412393D01*
X115015334Y-117412418D01*
X115128374Y-117412432D01*
X115177583Y-117412434D01*
X115248892Y-117412429D01*
X115350704Y-117412415D01*
X115471187Y-117412393D01*
X115598510Y-117412367D01*
X115643249Y-117412356D01*
X115771373Y-117412328D01*
X115898046Y-117412305D01*
X116011023Y-117412288D01*
X116098060Y-117412279D01*
X116119499Y-117412279D01*
X116194972Y-117412279D01*
X116300532Y-117412279D01*
X116423937Y-117412279D01*
X116552941Y-117412279D01*
X116595749Y-117412279D01*
X116723873Y-117412279D01*
X116850546Y-117412279D01*
X116963523Y-117412279D01*
X117050560Y-117412279D01*
X117071999Y-117412279D01*
X117147472Y-117412284D01*
X117253032Y-117412298D01*
X117376437Y-117412320D01*
X117505441Y-117412347D01*
X117548249Y-117412356D01*
X117675152Y-117412384D01*
X117799427Y-117412408D01*
X117909242Y-117412425D01*
X117992767Y-117412434D01*
X118013916Y-117412434D01*
X118085225Y-117412429D01*
X118187037Y-117412415D01*
X118307520Y-117412393D01*
X118434843Y-117412367D01*
X118479583Y-117412356D01*
X118607706Y-117412328D01*
X118734379Y-117412305D01*
X118847356Y-117412288D01*
X118934394Y-117412279D01*
X118955833Y-117412279D01*
X119031305Y-117412284D01*
X119136866Y-117412298D01*
X119260270Y-117412320D01*
X119389274Y-117412347D01*
X119432083Y-117412356D01*
X119606947Y-117412395D01*
X119747143Y-117412411D01*
X119860336Y-117412399D01*
X119954189Y-117412347D01*
X120036370Y-117412250D01*
X120114541Y-117412098D01*
X120196368Y-117411882D01*
X120289516Y-117411595D01*
X120368708Y-117411337D01*
X120607770Y-117411326D01*
X120805196Y-117413022D01*
X120961647Y-117416448D01*
X121077787Y-117421629D01*
X121154278Y-117428589D01*
X121191784Y-117437351D01*
X121195971Y-117441215D01*
X121219179Y-117452348D01*
X121272162Y-117459919D01*
X121328263Y-117462083D01*
X121398595Y-117463671D01*
X121436383Y-117470629D01*
X121451366Y-117486251D01*
X121453499Y-117504416D01*
X121461532Y-117533294D01*
X121493123Y-117545175D01*
X121529564Y-117546749D01*
X121585279Y-117553071D01*
X121611957Y-117575897D01*
X121616699Y-117589083D01*
X121642580Y-117623671D01*
X121667635Y-117631416D01*
X121701199Y-117647536D01*
X121707499Y-117673749D01*
X121722466Y-117709125D01*
X121749833Y-117716083D01*
X121785209Y-117731050D01*
X121792166Y-117758416D01*
X121807133Y-117793792D01*
X121834499Y-117800749D01*
X121869875Y-117815716D01*
X121876833Y-117843083D01*
X121891800Y-117878459D01*
X121919166Y-117885416D01*
X121946862Y-117892516D01*
X121959102Y-117921213D01*
X121961499Y-117970083D01*
X121965317Y-118025927D01*
X121980084Y-118050481D01*
X122001139Y-118054749D01*
X122025889Y-118062648D01*
X122040820Y-118092721D01*
X122050341Y-118154533D01*
X122051224Y-118163448D01*
X122066089Y-118243790D01*
X122090996Y-118287861D01*
X122096251Y-118291500D01*
X122099527Y-118295517D01*
X122102591Y-118304689D01*
X122105449Y-118320380D01*
X122108110Y-118343954D01*
X122110579Y-118376774D01*
X122112865Y-118420205D01*
X122114973Y-118475609D01*
X122116912Y-118544351D01*
X122118687Y-118627795D01*
X122120307Y-118727303D01*
X122121778Y-118844241D01*
X122123107Y-118979971D01*
X122124301Y-119135858D01*
X122125368Y-119313265D01*
X122126314Y-119513556D01*
X122127146Y-119738095D01*
X122127871Y-119988245D01*
X122128498Y-120265370D01*
X122129031Y-120570834D01*
X122129479Y-120906002D01*
X122129849Y-121272235D01*
X122130147Y-121670899D01*
X122130381Y-122103357D01*
X122130558Y-122570972D01*
X122130684Y-123075109D01*
X122130767Y-123617132D01*
X122130814Y-124198403D01*
X122130832Y-124820287D01*
X122130833Y-124989866D01*
X122130831Y-125620176D01*
X122130819Y-126209530D01*
X122130790Y-126759308D01*
X122130734Y-127270887D01*
X122130642Y-127745645D01*
X122130506Y-128184961D01*
X122130316Y-128590213D01*
X122130065Y-128962778D01*
X122129744Y-129304036D01*
X122129343Y-129615365D01*
X122128854Y-129898141D01*
X122128269Y-130153745D01*
X122127578Y-130383554D01*
X122126774Y-130588946D01*
X122125846Y-130771299D01*
X122124787Y-130931991D01*
X122123588Y-131072402D01*
X122122239Y-131193908D01*
X122120733Y-131297888D01*
X122119061Y-131385721D01*
X122117213Y-131458784D01*
X122115182Y-131518456D01*
X122112958Y-131566115D01*
X122110533Y-131603138D01*
X122107897Y-131630905D01*
X122105043Y-131650794D01*
X122101962Y-131664182D01*
X122098644Y-131672448D01*
X122095081Y-131676970D01*
X122091265Y-131679126D01*
X122088499Y-131679949D01*
X122058679Y-131698793D01*
X122047025Y-131741976D01*
X122046166Y-131768514D01*
X122031089Y-131846107D01*
X122003833Y-131882255D01*
X121971038Y-131929960D01*
X121961499Y-131971625D01*
X121951660Y-132013225D01*
X121919166Y-132024749D01*
X121883790Y-132039716D01*
X121876833Y-132067083D01*
X121862746Y-132102221D01*
X121843101Y-132109416D01*
X121811024Y-132127186D01*
X121798299Y-132151749D01*
X121776191Y-132186161D01*
X121755966Y-132194083D01*
X121725911Y-132211833D01*
X121713632Y-132236416D01*
X121687752Y-132271004D01*
X121662697Y-132278749D01*
X121629133Y-132294870D01*
X121622833Y-132321083D01*
X121607738Y-132356595D01*
X121581551Y-132363416D01*
X121537637Y-132379558D01*
X121520916Y-132397998D01*
X121483629Y-132424494D01*
X121409290Y-132441224D01*
X121392865Y-132443024D01*
X121327080Y-132452226D01*
X121294060Y-132466365D01*
X121284240Y-132489850D01*
X121284166Y-132493109D01*
X121283310Y-132497706D01*
X121279607Y-132501932D01*
X121271356Y-132505801D01*
X121256854Y-132509326D01*
X121234398Y-132512523D01*
X121202288Y-132515406D01*
X121158821Y-132517989D01*
X121102294Y-132520286D01*
X121031006Y-132522312D01*
X120943255Y-132524082D01*
X120837338Y-132525609D01*
X120711554Y-132526908D01*
X120564200Y-132527993D01*
X120393574Y-132528879D01*
X120197974Y-132529580D01*
X119975698Y-132530110D01*
X119725045Y-132530484D01*
X119444311Y-132530716D01*
X119131794Y-132530821D01*
X118785794Y-132530813D01*
X118404607Y-132530705D01*
X117986531Y-132530514D01*
X117529865Y-132530252D01*
X117032906Y-132529935D01*
X116929124Y-132529867D01*
X116502256Y-132529540D01*
X116086358Y-132529136D01*
X115683435Y-132528660D01*
X115295492Y-132528117D01*
X114924534Y-132527513D01*
X114572564Y-132526853D01*
X114241588Y-132526143D01*
X113933610Y-132525389D01*
X113650634Y-132524595D01*
X113394665Y-132523767D01*
X113167707Y-132522911D01*
X112971766Y-132522033D01*
X112808844Y-132521137D01*
X112680948Y-132520229D01*
X112590081Y-132519315D01*
X112538249Y-132518400D01*
X112526458Y-132517811D01*
X112489239Y-132499201D01*
X112478833Y-132478360D01*
X112462797Y-132456888D01*
X112411591Y-132448380D01*
X112394166Y-132448083D01*
X112338774Y-132444532D01*
X112314293Y-132430184D01*
X112309499Y-132405749D01*
X112302399Y-132378053D01*
X112273702Y-132365813D01*
X112224833Y-132363416D01*
X112169440Y-132359866D01*
X112144959Y-132345517D01*
X112140166Y-132321083D01*
X112125199Y-132285706D01*
X112097833Y-132278749D01*
X112062456Y-132263782D01*
X112055499Y-132236416D01*
X112040532Y-132201040D01*
X112013166Y-132194083D01*
X111977790Y-132179115D01*
X111970833Y-132151749D01*
X111955865Y-132116373D01*
X111928499Y-132109416D01*
X111892856Y-132094236D01*
X111886166Y-132069551D01*
X111868288Y-132032305D01*
X111843833Y-132018616D01*
X111813745Y-131999389D01*
X111802219Y-131955361D01*
X111801499Y-131931481D01*
X111797028Y-131879593D01*
X111779447Y-131858244D01*
X111759166Y-131855416D01*
X111735339Y-131850691D01*
X111722567Y-131830011D01*
X111717531Y-131783613D01*
X111716833Y-131730885D01*
X111714816Y-131659336D01*
X111706556Y-131619389D01*
X111688732Y-131600413D01*
X111674499Y-131595283D01*
X111670479Y-131593943D01*
X111666722Y-131591173D01*
X111663220Y-131585585D01*
X111659962Y-131575792D01*
X111656940Y-131560407D01*
X111654146Y-131538042D01*
X111651570Y-131507312D01*
X111649204Y-131466829D01*
X111647038Y-131415205D01*
X111645064Y-131351055D01*
X111643273Y-131272990D01*
X111641656Y-131179624D01*
X111640204Y-131069569D01*
X111638908Y-130941439D01*
X111637760Y-130793847D01*
X111636750Y-130625405D01*
X111635869Y-130434727D01*
X111635109Y-130220426D01*
X111634461Y-129981114D01*
X111633916Y-129715404D01*
X111633465Y-129421910D01*
X111633099Y-129099244D01*
X111632809Y-128746019D01*
X111632586Y-128360848D01*
X111632422Y-127942345D01*
X111632307Y-127489122D01*
X111632233Y-126999792D01*
X111632191Y-126472968D01*
X111632172Y-125907264D01*
X111632166Y-125301291D01*
X111632166Y-124989866D01*
X111632167Y-124955083D01*
X112055499Y-124955083D01*
X112055521Y-125590043D01*
X112055588Y-126183973D01*
X112055709Y-126738174D01*
X112055887Y-127253950D01*
X112056130Y-127732602D01*
X112056442Y-128175434D01*
X112056830Y-128583747D01*
X112057300Y-128958845D01*
X112057856Y-129302029D01*
X112058506Y-129614603D01*
X112059255Y-129897868D01*
X112060108Y-130153128D01*
X112061072Y-130381685D01*
X112062152Y-130584841D01*
X112063355Y-130763899D01*
X112064685Y-130920162D01*
X112066149Y-131054931D01*
X112067753Y-131169510D01*
X112069502Y-131265201D01*
X112071402Y-131343306D01*
X112073459Y-131405128D01*
X112075679Y-131451969D01*
X112078068Y-131485133D01*
X112080631Y-131505921D01*
X112083375Y-131515636D01*
X112084780Y-131516749D01*
X112113643Y-131536630D01*
X112132593Y-131592712D01*
X112139858Y-131679649D01*
X112139877Y-131682772D01*
X112147781Y-131736972D01*
X112174798Y-131762194D01*
X112182499Y-131764616D01*
X112217087Y-131790496D01*
X112224833Y-131815551D01*
X112240953Y-131849116D01*
X112267166Y-131855416D01*
X112302542Y-131870383D01*
X112309499Y-131897749D01*
X112324466Y-131933125D01*
X112351833Y-131940083D01*
X112387209Y-131955050D01*
X112394166Y-131982416D01*
X112401266Y-132010112D01*
X112429963Y-132022352D01*
X112478833Y-132024749D01*
X112534225Y-132028299D01*
X112558706Y-132042648D01*
X112563499Y-132067083D01*
X112563854Y-132072011D01*
X112566059Y-132076542D01*
X112571826Y-132080691D01*
X112582866Y-132084476D01*
X112600890Y-132087913D01*
X112627609Y-132091018D01*
X112664734Y-132093809D01*
X112713977Y-132096303D01*
X112777049Y-132098515D01*
X112855661Y-132100464D01*
X112951524Y-132102165D01*
X113066350Y-132103636D01*
X113201849Y-132104893D01*
X113359733Y-132105953D01*
X113541713Y-132106834D01*
X113749500Y-132107550D01*
X113984806Y-132108120D01*
X114249341Y-132108560D01*
X114544817Y-132108888D01*
X114872945Y-132109119D01*
X115235436Y-132109270D01*
X115634001Y-132109359D01*
X116070352Y-132109401D01*
X116546200Y-132109415D01*
X116881499Y-132109416D01*
X117384255Y-132109412D01*
X117846389Y-132109391D01*
X118269611Y-132109334D01*
X118655634Y-132109226D01*
X119006169Y-132109049D01*
X119322926Y-132108787D01*
X119607616Y-132108423D01*
X119861952Y-132107941D01*
X120087645Y-132107322D01*
X120286404Y-132106551D01*
X120459942Y-132105612D01*
X120609970Y-132104486D01*
X120738199Y-132103158D01*
X120846341Y-132101610D01*
X120936105Y-132099826D01*
X121009205Y-132097788D01*
X121067350Y-132095481D01*
X121112252Y-132092888D01*
X121145622Y-132089991D01*
X121169172Y-132086774D01*
X121184612Y-132083220D01*
X121193654Y-132079313D01*
X121198009Y-132075035D01*
X121199388Y-132070370D01*
X121199499Y-132067083D01*
X121206599Y-132039386D01*
X121235296Y-132027146D01*
X121284166Y-132024749D01*
X121339558Y-132021199D01*
X121364039Y-132006851D01*
X121368833Y-131982416D01*
X121383800Y-131947040D01*
X121411166Y-131940083D01*
X121446542Y-131925115D01*
X121453499Y-131897749D01*
X121468466Y-131862373D01*
X121495833Y-131855416D01*
X121531209Y-131840449D01*
X121538166Y-131813083D01*
X121553133Y-131777706D01*
X121580499Y-131770749D01*
X121608195Y-131763649D01*
X121620436Y-131734952D01*
X121622833Y-131686083D01*
X121626383Y-131630690D01*
X121640731Y-131606209D01*
X121665166Y-131601416D01*
X121669173Y-131601141D01*
X121672919Y-131599395D01*
X121676412Y-131594798D01*
X121679662Y-131585971D01*
X121682677Y-131571532D01*
X121685466Y-131550103D01*
X121688038Y-131520301D01*
X121690402Y-131480748D01*
X121692566Y-131430064D01*
X121694539Y-131366867D01*
X121696330Y-131289778D01*
X121697949Y-131197417D01*
X121699402Y-131088403D01*
X121700701Y-130961357D01*
X121701852Y-130814898D01*
X121702866Y-130647645D01*
X121703750Y-130458220D01*
X121704514Y-130245241D01*
X121705166Y-130007328D01*
X121705716Y-129743102D01*
X121706172Y-129451181D01*
X121706542Y-129130187D01*
X121706837Y-128778738D01*
X121707063Y-128395455D01*
X121707232Y-127978957D01*
X121707350Y-127527864D01*
X121707427Y-127040797D01*
X121707471Y-126516374D01*
X121707492Y-125953215D01*
X121707499Y-125349941D01*
X121707499Y-124963684D01*
X121707497Y-124335389D01*
X121707486Y-123748046D01*
X121707456Y-123200270D01*
X121707399Y-122690680D01*
X121707307Y-122217894D01*
X121707169Y-121780529D01*
X121706978Y-121377202D01*
X121706725Y-121006531D01*
X121706400Y-120667133D01*
X121705996Y-120357627D01*
X121705502Y-120076629D01*
X121704912Y-119822757D01*
X121704215Y-119594628D01*
X121703402Y-119390861D01*
X121702466Y-119210072D01*
X121701397Y-119050879D01*
X121700186Y-118911900D01*
X121698825Y-118791752D01*
X121697305Y-118689052D01*
X121695617Y-118602419D01*
X121693752Y-118530469D01*
X121691702Y-118471820D01*
X121689457Y-118425090D01*
X121687009Y-118388897D01*
X121684349Y-118361857D01*
X121681468Y-118342588D01*
X121678358Y-118329708D01*
X121675009Y-118321834D01*
X121671413Y-118317584D01*
X121667561Y-118315576D01*
X121665166Y-118314882D01*
X121634595Y-118294943D01*
X121623326Y-118249375D01*
X121622833Y-118230216D01*
X121615962Y-118175271D01*
X121591445Y-118149270D01*
X121580499Y-118145549D01*
X121545911Y-118119669D01*
X121538166Y-118094614D01*
X121522045Y-118061049D01*
X121495833Y-118054749D01*
X121460456Y-118039782D01*
X121453499Y-118012416D01*
X121438885Y-117977366D01*
X121409184Y-117970083D01*
X121367801Y-117953099D01*
X121354466Y-117930299D01*
X121333707Y-117901927D01*
X121284065Y-117884951D01*
X121247417Y-117879622D01*
X121178829Y-117864792D01*
X121136512Y-117841097D01*
X121131751Y-117834739D01*
X121126988Y-117830723D01*
X121116243Y-117827034D01*
X121097806Y-117823658D01*
X121069965Y-117820580D01*
X121031011Y-117817789D01*
X120979232Y-117815269D01*
X120912920Y-117813007D01*
X120830362Y-117810989D01*
X120729850Y-117809202D01*
X120609673Y-117807633D01*
X120468120Y-117806266D01*
X120303480Y-117805090D01*
X120114045Y-117804089D01*
X119898102Y-117803251D01*
X119653943Y-117802562D01*
X119379855Y-117802007D01*
X119074131Y-117801574D01*
X118735058Y-117801249D01*
X118360926Y-117801017D01*
X117950026Y-117800866D01*
X117500646Y-117800782D01*
X117011076Y-117800750D01*
X116880447Y-117800749D01*
X116382912Y-117800753D01*
X115925982Y-117800775D01*
X115507928Y-117800833D01*
X115127022Y-117800945D01*
X114781536Y-117801127D01*
X114469741Y-117801397D01*
X114189908Y-117801772D01*
X113940310Y-117802270D01*
X113719218Y-117802907D01*
X113524903Y-117803702D01*
X113355637Y-117804670D01*
X113209692Y-117805831D01*
X113085339Y-117807200D01*
X112980849Y-117808795D01*
X112894494Y-117810634D01*
X112824547Y-117812733D01*
X112769278Y-117815111D01*
X112726958Y-117817784D01*
X112695860Y-117820770D01*
X112674255Y-117824085D01*
X112660415Y-117827748D01*
X112652611Y-117831775D01*
X112649115Y-117836184D01*
X112648198Y-117840992D01*
X112648166Y-117843083D01*
X112640823Y-117871100D01*
X112611359Y-117883253D01*
X112565968Y-117885416D01*
X112508295Y-117890631D01*
X112479959Y-117909944D01*
X112472699Y-117927749D01*
X112450685Y-117959651D01*
X112400861Y-117970010D01*
X112394166Y-117970083D01*
X112340311Y-117979104D01*
X112316467Y-118009266D01*
X112316144Y-118010459D01*
X112288527Y-118049386D01*
X112265209Y-118061394D01*
X112234389Y-118084527D01*
X112224839Y-118137420D01*
X112224833Y-118139416D01*
X112216254Y-118192498D01*
X112186689Y-118216739D01*
X112182499Y-118217949D01*
X112153499Y-118235660D01*
X112141506Y-118276294D01*
X112140166Y-118311218D01*
X112136384Y-118365618D01*
X112121209Y-118389217D01*
X112097833Y-118393416D01*
X112093803Y-118393693D01*
X112090038Y-118395450D01*
X112086528Y-118400074D01*
X112083264Y-118408954D01*
X112080237Y-118423479D01*
X112077439Y-118445035D01*
X112074860Y-118475012D01*
X112072492Y-118514798D01*
X112070325Y-118565780D01*
X112068351Y-118629347D01*
X112066560Y-118706887D01*
X112064944Y-118799788D01*
X112063493Y-118909438D01*
X112062199Y-119037226D01*
X112061053Y-119184539D01*
X112060046Y-119352766D01*
X112059168Y-119543295D01*
X112058412Y-119757515D01*
X112057767Y-119996812D01*
X112057225Y-120262576D01*
X112056777Y-120556194D01*
X112056414Y-120879055D01*
X112056128Y-121232547D01*
X112055908Y-121618058D01*
X112055747Y-122036975D01*
X112055635Y-122490689D01*
X112055563Y-122980585D01*
X112055522Y-123508054D01*
X112055504Y-124074482D01*
X112055499Y-124681258D01*
X112055499Y-124955083D01*
X111632167Y-124955083D01*
X111632171Y-124681258D01*
X111632177Y-124361652D01*
X111632214Y-123774396D01*
X111632284Y-123226723D01*
X111632396Y-122717258D01*
X111632555Y-122244624D01*
X111632771Y-121807448D01*
X111633049Y-121404353D01*
X111633397Y-121033964D01*
X111633822Y-120694906D01*
X111634332Y-120385804D01*
X111634934Y-120105283D01*
X111635636Y-119851966D01*
X111636444Y-119624479D01*
X111637365Y-119421447D01*
X111638408Y-119241494D01*
X111639579Y-119083244D01*
X111640887Y-118945324D01*
X111642337Y-118826357D01*
X111643937Y-118724967D01*
X111645695Y-118639781D01*
X111647618Y-118569422D01*
X111649713Y-118512515D01*
X111651988Y-118467685D01*
X111654450Y-118433556D01*
X111657105Y-118408754D01*
X111659962Y-118391902D01*
X111663028Y-118381627D01*
X111666310Y-118376552D01*
X111667252Y-118375884D01*
X111692993Y-118340981D01*
X111708978Y-118268801D01*
X111712206Y-118237249D01*
X111723447Y-118159003D01*
X111740918Y-118121823D01*
X111750244Y-118118249D01*
X111772515Y-118099728D01*
X111790224Y-118054322D01*
X111791947Y-118046114D01*
X111814792Y-117986680D01*
X111845823Y-117963429D01*
X111874822Y-117943276D01*
X111885685Y-117896362D01*
X111886166Y-117876814D01*
X111890637Y-117824926D01*
X111908218Y-117803577D01*
X111928499Y-117800749D01*
X111963875Y-117785782D01*
X111970833Y-117758416D01*
X111985800Y-117723040D01*
X112013166Y-117716083D01*
X112048542Y-117701115D01*
X112055499Y-117673749D01*
X112063532Y-117644871D01*
X112095123Y-117632990D01*
X112131564Y-117631416D01*
X112187279Y-117625094D01*
X112213957Y-117602268D01*
X112218699Y-117589083D01*
X112244580Y-117554494D01*
X112269635Y-117546749D01*
X112302599Y-117533883D01*
X112309499Y-117517468D01*
X112329521Y-117488385D01*
X112386969Y-117469616D01*
X112477920Y-117462406D01*
X112483072Y-117462372D01*
X112552121Y-117450840D01*
X112582087Y-117425041D01*
X112595974Y-117409614D01*
X112622198Y-117398612D01*
X112667730Y-117391019D01*
X112739542Y-117385814D01*
X112844606Y-117381980D01*
X112884005Y-117380935D01*
X113007469Y-117380085D01*
X113133198Y-117383049D01*
G37*
G36*
X105197499Y-143793416D02*
G01*
X105197499Y-143962749D01*
X99694166Y-143962749D01*
X94190833Y-143962749D01*
X94190833Y-143793416D01*
X94190833Y-143624083D01*
X99694166Y-143624083D01*
X105197499Y-143624083D01*
X105197499Y-143793416D01*
G37*
G36*
X86015208Y-143629334D02*
G01*
X91555583Y-143634666D01*
X91555583Y-143793416D01*
X91555583Y-143952166D01*
X86015208Y-143957497D01*
X80474833Y-143962829D01*
X80474833Y-143793416D01*
X80474833Y-143624003D01*
X86015208Y-143629334D01*
G37*
G36*
X126499871Y-134313471D02*
G01*
X126828426Y-134313661D01*
X127191400Y-134313974D01*
X127590515Y-134314395D01*
X128027491Y-134314910D01*
X128504051Y-134315502D01*
X128808464Y-134315888D01*
X129310409Y-134316538D01*
X129771739Y-134317174D01*
X130194169Y-134317812D01*
X130579416Y-134318468D01*
X130929198Y-134319161D01*
X131245231Y-134319906D01*
X131529233Y-134320721D01*
X131782921Y-134321622D01*
X132008010Y-134322627D01*
X132206219Y-134323753D01*
X132379265Y-134325015D01*
X132528863Y-134326433D01*
X132656732Y-134328021D01*
X132764588Y-134329798D01*
X132854148Y-134331780D01*
X132927129Y-134333983D01*
X132985248Y-134336426D01*
X133030222Y-134339125D01*
X133063768Y-134342096D01*
X133087604Y-134345357D01*
X133103445Y-134348925D01*
X133113008Y-134352816D01*
X133118012Y-134357048D01*
X133118874Y-134358374D01*
X133149840Y-134384455D01*
X133209744Y-134394897D01*
X133234008Y-134395416D01*
X133309355Y-134403386D01*
X133357362Y-134429975D01*
X133364660Y-134437749D01*
X133405823Y-134470119D01*
X133438537Y-134480083D01*
X133470205Y-134494294D01*
X133476166Y-134510873D01*
X133495740Y-134536354D01*
X133548120Y-134555118D01*
X133552981Y-134556075D01*
X133615092Y-134578574D01*
X133640116Y-134609951D01*
X133666589Y-134642825D01*
X133690301Y-134649416D01*
X133724176Y-134665791D01*
X133730166Y-134689280D01*
X133748044Y-134726527D01*
X133772499Y-134740216D01*
X133808330Y-134768596D01*
X133814833Y-134795808D01*
X133830190Y-134843203D01*
X133857166Y-134876577D01*
X133889536Y-134917740D01*
X133899499Y-134950453D01*
X133913033Y-134982137D01*
X133928780Y-134988083D01*
X133957892Y-135008123D01*
X133976638Y-135065759D01*
X133983841Y-135157261D01*
X133983877Y-135162708D01*
X133991283Y-135222137D01*
X134013021Y-135242081D01*
X134013270Y-135242083D01*
X134037045Y-135260488D01*
X134054946Y-135305102D01*
X134055603Y-135308228D01*
X134056661Y-135334460D01*
X134057696Y-135401396D01*
X134058706Y-135507405D01*
X134059686Y-135650857D01*
X134060635Y-135830123D01*
X134061549Y-136043573D01*
X134062424Y-136289576D01*
X134063258Y-136566503D01*
X134064047Y-136872724D01*
X134064787Y-137206609D01*
X134065476Y-137566528D01*
X134066110Y-137950851D01*
X134066686Y-138357948D01*
X134067201Y-138786189D01*
X134067652Y-139233944D01*
X134068035Y-139699584D01*
X134068346Y-140181478D01*
X134068584Y-140677996D01*
X134068744Y-141187509D01*
X134068824Y-141708387D01*
X134068833Y-141945960D01*
X134068831Y-142571013D01*
X134068819Y-143155122D01*
X134068789Y-143699677D01*
X134068731Y-144206067D01*
X134068637Y-144675681D01*
X134068497Y-145109909D01*
X134068303Y-145510140D01*
X134068046Y-145877765D01*
X134067717Y-146214171D01*
X134067306Y-146520749D01*
X134066805Y-146798889D01*
X134066206Y-147049979D01*
X134065498Y-147275409D01*
X134064673Y-147476568D01*
X134063723Y-147654846D01*
X134062637Y-147811633D01*
X134061408Y-147948318D01*
X134060027Y-148066290D01*
X134058484Y-148166938D01*
X134056770Y-148251653D01*
X134054877Y-148321823D01*
X134052795Y-148378839D01*
X134050516Y-148424089D01*
X134048031Y-148458963D01*
X134045331Y-148484850D01*
X134042406Y-148503140D01*
X134039249Y-148515223D01*
X134035849Y-148522487D01*
X134032198Y-148526322D01*
X134028288Y-148528118D01*
X134026499Y-148528616D01*
X134002356Y-148540860D01*
X133989511Y-148568519D01*
X133984645Y-148622224D01*
X133984166Y-148664218D01*
X133982560Y-148734309D01*
X133975530Y-148771881D01*
X133959757Y-148786694D01*
X133941833Y-148788749D01*
X133912955Y-148796782D01*
X133901073Y-148828373D01*
X133899499Y-148864814D01*
X133893177Y-148920529D01*
X133870351Y-148947207D01*
X133857166Y-148951949D01*
X133822578Y-148977830D01*
X133814833Y-149002885D01*
X133798712Y-149036449D01*
X133772499Y-149042749D01*
X133737123Y-149057716D01*
X133730166Y-149085083D01*
X133715199Y-149120459D01*
X133687833Y-149127416D01*
X133652456Y-149142383D01*
X133645499Y-149169749D01*
X133630532Y-149205125D01*
X133603166Y-149212083D01*
X133567790Y-149227050D01*
X133560833Y-149254416D01*
X133552799Y-149283294D01*
X133521209Y-149295175D01*
X133484768Y-149296749D01*
X133429052Y-149303071D01*
X133402374Y-149325897D01*
X133397632Y-149339083D01*
X133379922Y-149368083D01*
X133339287Y-149380075D01*
X133304364Y-149381416D01*
X133244020Y-149388031D01*
X133222286Y-149408269D01*
X133222166Y-149410520D01*
X133203760Y-149434295D01*
X133159146Y-149452196D01*
X133156020Y-149452853D01*
X133128616Y-149454153D01*
X133060900Y-149455417D01*
X132954890Y-149456641D01*
X132812608Y-149457817D01*
X132636074Y-149458941D01*
X132427308Y-149460005D01*
X132188330Y-149461004D01*
X131921161Y-149461932D01*
X131627821Y-149462782D01*
X131310331Y-149463549D01*
X130970709Y-149464227D01*
X130610978Y-149464809D01*
X130233157Y-149465289D01*
X129839266Y-149465661D01*
X129431326Y-149465920D01*
X129011356Y-149466059D01*
X128753353Y-149466083D01*
X128249476Y-149466079D01*
X127786225Y-149466058D01*
X127361892Y-149466001D01*
X126974770Y-149465894D01*
X126623151Y-149465718D01*
X126305328Y-149465458D01*
X126019593Y-149465096D01*
X125764238Y-149464617D01*
X125537556Y-149464002D01*
X125337840Y-149463237D01*
X125163382Y-149462303D01*
X125012474Y-149461184D01*
X124883409Y-149459864D01*
X124774480Y-149458327D01*
X124683978Y-149456554D01*
X124610197Y-149454530D01*
X124551428Y-149452238D01*
X124505964Y-149449661D01*
X124472098Y-149446783D01*
X124448123Y-149443586D01*
X124432329Y-149440055D01*
X124423011Y-149436173D01*
X124418460Y-149431922D01*
X124416970Y-149427287D01*
X124416833Y-149423749D01*
X124409795Y-149396137D01*
X124381296Y-149383875D01*
X124331502Y-149381416D01*
X124264496Y-149373312D01*
X124234208Y-149350242D01*
X124206911Y-149325513D01*
X124156294Y-149306796D01*
X124150205Y-149305553D01*
X124096908Y-149287437D01*
X124078383Y-149257036D01*
X124078166Y-149252060D01*
X124062094Y-149218408D01*
X124035833Y-149212083D01*
X124000694Y-149197996D01*
X123993499Y-149178351D01*
X123975798Y-149145852D01*
X123953123Y-149134061D01*
X123914196Y-149106444D01*
X123902188Y-149083126D01*
X123878676Y-149049765D01*
X123857897Y-149042749D01*
X123829899Y-149025071D01*
X123824166Y-149000416D01*
X123808982Y-148964758D01*
X123784538Y-148958083D01*
X123755589Y-148946360D01*
X123737606Y-148905329D01*
X123731371Y-148873416D01*
X123713972Y-148812004D01*
X123688370Y-148788850D01*
X123686332Y-148788749D01*
X123664061Y-148774019D01*
X123655216Y-148725851D01*
X123654833Y-148706551D01*
X123649617Y-148648878D01*
X123630305Y-148620542D01*
X123612499Y-148613283D01*
X123608504Y-148611952D01*
X123604769Y-148609200D01*
X123601285Y-148603649D01*
X123598043Y-148593920D01*
X123595034Y-148578635D01*
X123592250Y-148556417D01*
X123589681Y-148525887D01*
X123587321Y-148485667D01*
X123585158Y-148434380D01*
X123583185Y-148370646D01*
X123581394Y-148293088D01*
X123579775Y-148200328D01*
X123578319Y-148090988D01*
X123577019Y-147963690D01*
X123575864Y-147817055D01*
X123574848Y-147649705D01*
X123573960Y-147460263D01*
X123573192Y-147247351D01*
X123572535Y-147009589D01*
X123571981Y-146745601D01*
X123571521Y-146454008D01*
X123571146Y-146133432D01*
X123570847Y-145782495D01*
X123570617Y-145399818D01*
X123570445Y-144984025D01*
X123570323Y-144533736D01*
X123570244Y-144047574D01*
X123570197Y-143524160D01*
X123570174Y-142962117D01*
X123570166Y-142360066D01*
X123570166Y-141922147D01*
X123570166Y-141919959D01*
X123993499Y-141919959D01*
X123993501Y-142547128D01*
X123993512Y-143133347D01*
X123993542Y-143679998D01*
X123993598Y-144188463D01*
X123993691Y-144660124D01*
X123993828Y-145096366D01*
X123994019Y-145498569D01*
X123994273Y-145868118D01*
X123994598Y-146206393D01*
X123995003Y-146514778D01*
X123995497Y-146794656D01*
X123996089Y-147047408D01*
X123996788Y-147274418D01*
X123997603Y-147477068D01*
X123998542Y-147656741D01*
X123999614Y-147814819D01*
X124000828Y-147952685D01*
X124002194Y-148071721D01*
X124003719Y-148173310D01*
X124005413Y-148258834D01*
X124007284Y-148329677D01*
X124009342Y-148387220D01*
X124011595Y-148432846D01*
X124014053Y-148467938D01*
X124016723Y-148493879D01*
X124019615Y-148512050D01*
X124022737Y-148523835D01*
X124026099Y-148530616D01*
X124029710Y-148533775D01*
X124033577Y-148534696D01*
X124035833Y-148534749D01*
X124063529Y-148541849D01*
X124075769Y-148570546D01*
X124078166Y-148619416D01*
X124081716Y-148674808D01*
X124096064Y-148699289D01*
X124120499Y-148704083D01*
X124155875Y-148719050D01*
X124162833Y-148746416D01*
X124177800Y-148781792D01*
X124205166Y-148788749D01*
X124240542Y-148803716D01*
X124247499Y-148831083D01*
X124262466Y-148866459D01*
X124289833Y-148873416D01*
X124325209Y-148888383D01*
X124332166Y-148915749D01*
X124339266Y-148943445D01*
X124367963Y-148955686D01*
X124416833Y-148958083D01*
X124472225Y-148961633D01*
X124496706Y-148975981D01*
X124501499Y-149000416D01*
X124501854Y-149005345D01*
X124504059Y-149009876D01*
X124509826Y-149014025D01*
X124520866Y-149017809D01*
X124538890Y-149021246D01*
X124565609Y-149024351D01*
X124602734Y-149027142D01*
X124651977Y-149029636D01*
X124715049Y-149031849D01*
X124793661Y-149033797D01*
X124889524Y-149035499D01*
X125004350Y-149036969D01*
X125139849Y-149038227D01*
X125297733Y-149039287D01*
X125479713Y-149040167D01*
X125687500Y-149040884D01*
X125922806Y-149041454D01*
X126187341Y-149041894D01*
X126482817Y-149042221D01*
X126810945Y-149042452D01*
X127173436Y-149042603D01*
X127572001Y-149042692D01*
X128008352Y-149042735D01*
X128484200Y-149042748D01*
X128819499Y-149042749D01*
X129322255Y-149042746D01*
X129784389Y-149042724D01*
X130207611Y-149042668D01*
X130593634Y-149042559D01*
X130944169Y-149042383D01*
X131260926Y-149042121D01*
X131545616Y-149041757D01*
X131799952Y-149041274D01*
X132025645Y-149040656D01*
X132224404Y-149039885D01*
X132397942Y-149038945D01*
X132547970Y-149037819D01*
X132676199Y-149036491D01*
X132784341Y-149034943D01*
X132874105Y-149033159D01*
X132947205Y-149031122D01*
X133005350Y-149028815D01*
X133050252Y-149026221D01*
X133083622Y-149023324D01*
X133107172Y-149020108D01*
X133122612Y-149016554D01*
X133131654Y-149012646D01*
X133136009Y-149008368D01*
X133137388Y-149003703D01*
X133137499Y-149000416D01*
X133144599Y-148972720D01*
X133173296Y-148960479D01*
X133222166Y-148958083D01*
X133277558Y-148954532D01*
X133302039Y-148940184D01*
X133306833Y-148915749D01*
X133321800Y-148880373D01*
X133349166Y-148873416D01*
X133384542Y-148858449D01*
X133391499Y-148831083D01*
X133406466Y-148795706D01*
X133433833Y-148788749D01*
X133469476Y-148773569D01*
X133476166Y-148748885D01*
X133494044Y-148711638D01*
X133518499Y-148697949D01*
X133548789Y-148678427D01*
X133560211Y-148633755D01*
X133560833Y-148611866D01*
X133572647Y-148544824D01*
X133597874Y-148516123D01*
X133601401Y-148512706D01*
X133604700Y-148505610D01*
X133607781Y-148493452D01*
X133610653Y-148474846D01*
X133613324Y-148448410D01*
X133615803Y-148412760D01*
X133618099Y-148366511D01*
X133620221Y-148308279D01*
X133622178Y-148236682D01*
X133623979Y-148150334D01*
X133625633Y-148047853D01*
X133627148Y-147927853D01*
X133628533Y-147788952D01*
X133629798Y-147629765D01*
X133630952Y-147448908D01*
X133632002Y-147244998D01*
X133632959Y-147016651D01*
X133633830Y-146762482D01*
X133634625Y-146481108D01*
X133635353Y-146171145D01*
X133636023Y-145831209D01*
X133636643Y-145459916D01*
X133637222Y-145055882D01*
X133637770Y-144617723D01*
X133638295Y-144144056D01*
X133638806Y-143633497D01*
X133639312Y-143084661D01*
X133639822Y-142496164D01*
X133640308Y-141911072D01*
X133640819Y-141285397D01*
X133641287Y-140700670D01*
X133641704Y-140155505D01*
X133642063Y-139648516D01*
X133642356Y-139178317D01*
X133642575Y-138743522D01*
X133642712Y-138342746D01*
X133642760Y-137974603D01*
X133642710Y-137637708D01*
X133642555Y-137330673D01*
X133642288Y-137052114D01*
X133641899Y-136800645D01*
X133641382Y-136574881D01*
X133640729Y-136373434D01*
X133639932Y-136194920D01*
X133638983Y-136037953D01*
X133637874Y-135901146D01*
X133636597Y-135783115D01*
X133635146Y-135682473D01*
X133633511Y-135597835D01*
X133631685Y-135527815D01*
X133629661Y-135471027D01*
X133627430Y-135426085D01*
X133624985Y-135391604D01*
X133622318Y-135366198D01*
X133619421Y-135348481D01*
X133616286Y-135337067D01*
X133612906Y-135330570D01*
X133609272Y-135327606D01*
X133605378Y-135326787D01*
X133603266Y-135326749D01*
X133575190Y-135319441D01*
X133563009Y-135290072D01*
X133560833Y-135244551D01*
X133555617Y-135186878D01*
X133536305Y-135158542D01*
X133518499Y-135151283D01*
X133486598Y-135129269D01*
X133476238Y-135079445D01*
X133476166Y-135072749D01*
X133467144Y-135018894D01*
X133436983Y-134995050D01*
X133435789Y-134994727D01*
X133396862Y-134967111D01*
X133384854Y-134943792D01*
X133361721Y-134912972D01*
X133308828Y-134903422D01*
X133306833Y-134903416D01*
X133253750Y-134894837D01*
X133229510Y-134865272D01*
X133228299Y-134861083D01*
X133210588Y-134832082D01*
X133169954Y-134820090D01*
X133135030Y-134818749D01*
X133080630Y-134814967D01*
X133057031Y-134799793D01*
X133052833Y-134776416D01*
X133052473Y-134771440D01*
X133050244Y-134766870D01*
X133044416Y-134762689D01*
X133033262Y-134758879D01*
X133015052Y-134755424D01*
X132988059Y-134752305D01*
X132950555Y-134749506D01*
X132900812Y-134747009D01*
X132837100Y-134744798D01*
X132757693Y-134742854D01*
X132660861Y-134741161D01*
X132544876Y-134739701D01*
X132408011Y-134738457D01*
X132248537Y-134737412D01*
X132064726Y-134736548D01*
X131854850Y-134735848D01*
X131617179Y-134735295D01*
X131349987Y-134734871D01*
X131051545Y-134734560D01*
X130720125Y-134734344D01*
X130353998Y-134734205D01*
X129951437Y-134734127D01*
X129510712Y-134734092D01*
X129030096Y-134734083D01*
X128819499Y-134734083D01*
X128312739Y-134734117D01*
X127846703Y-134734229D01*
X127419780Y-134734430D01*
X127030361Y-134734729D01*
X126676836Y-134735139D01*
X126357596Y-134735670D01*
X126071030Y-134736333D01*
X125815529Y-134737140D01*
X125589483Y-134738101D01*
X125391282Y-134739228D01*
X125219316Y-134740531D01*
X125071976Y-134742021D01*
X124947652Y-134743710D01*
X124844734Y-134745608D01*
X124761612Y-134747727D01*
X124696676Y-134750077D01*
X124648317Y-134752670D01*
X124614925Y-134755516D01*
X124594890Y-134758627D01*
X124586602Y-134762014D01*
X124586166Y-134763079D01*
X124565623Y-134785084D01*
X124506470Y-134806334D01*
X124459166Y-134817060D01*
X124377312Y-134838074D01*
X124336993Y-134860861D01*
X124332166Y-134872731D01*
X124314545Y-134897606D01*
X124289833Y-134903416D01*
X124254456Y-134918383D01*
X124247499Y-134945749D01*
X124232532Y-134981125D01*
X124205166Y-134988083D01*
X124169523Y-135003263D01*
X124162833Y-135027947D01*
X124144955Y-135065193D01*
X124120499Y-135078882D01*
X124089465Y-135099524D01*
X124078477Y-135146577D01*
X124078166Y-135161313D01*
X124062633Y-135233484D01*
X124035833Y-135268921D01*
X124031819Y-135272673D01*
X124028067Y-135277752D01*
X124024568Y-135285548D01*
X124021314Y-135297452D01*
X124018296Y-135314853D01*
X124015504Y-135339142D01*
X124012930Y-135371709D01*
X124010565Y-135413945D01*
X124008400Y-135467238D01*
X124006426Y-135532980D01*
X124004635Y-135612561D01*
X124003017Y-135707371D01*
X124001565Y-135818800D01*
X124000268Y-135948238D01*
X123999118Y-136097075D01*
X123998106Y-136266702D01*
X123997224Y-136458508D01*
X123996462Y-136673884D01*
X123995812Y-136914220D01*
X123995265Y-137180907D01*
X123994811Y-137475334D01*
X123994443Y-137798891D01*
X123994151Y-138152969D01*
X123993926Y-138538958D01*
X123993760Y-138958248D01*
X123993644Y-139412229D01*
X123993569Y-139902292D01*
X123993526Y-140429826D01*
X123993505Y-140996221D01*
X123993499Y-141602869D01*
X123993499Y-141919959D01*
X123570166Y-141919959D01*
X123570176Y-141602869D01*
X123570187Y-141280804D01*
X123570255Y-140680507D01*
X123570375Y-140119971D01*
X123570553Y-139597909D01*
X123570794Y-139113035D01*
X123571104Y-138664062D01*
X123571488Y-138249704D01*
X123571953Y-137868674D01*
X123572503Y-137519686D01*
X123573145Y-137201453D01*
X123573884Y-136912690D01*
X123574725Y-136652110D01*
X123575674Y-136418426D01*
X123576738Y-136210352D01*
X123577920Y-136026601D01*
X123579228Y-135865888D01*
X123580666Y-135726925D01*
X123582240Y-135608427D01*
X123583956Y-135509106D01*
X123585819Y-135427677D01*
X123587836Y-135362853D01*
X123590011Y-135313347D01*
X123592350Y-135277874D01*
X123594859Y-135255147D01*
X123597544Y-135243878D01*
X123599270Y-135242083D01*
X123623292Y-135222555D01*
X123642181Y-135170393D01*
X123653164Y-135095233D01*
X123654833Y-135048937D01*
X123662144Y-135003653D01*
X123688933Y-134988438D01*
X123697166Y-134988083D01*
X123726044Y-134980049D01*
X123737925Y-134948459D01*
X123739499Y-134912018D01*
X123745821Y-134856302D01*
X123768647Y-134829624D01*
X123781833Y-134824882D01*
X123816421Y-134799002D01*
X123824166Y-134773947D01*
X123840286Y-134740383D01*
X123866499Y-134734083D01*
X123901875Y-134719115D01*
X123908833Y-134691749D01*
X123923800Y-134656373D01*
X123951166Y-134649416D01*
X123986542Y-134634449D01*
X123993499Y-134607083D01*
X124008679Y-134571439D01*
X124033364Y-134564749D01*
X124070610Y-134546871D01*
X124084299Y-134522416D01*
X124103526Y-134492328D01*
X124147554Y-134480803D01*
X124171434Y-134480083D01*
X124223322Y-134475612D01*
X124244671Y-134458030D01*
X124247499Y-134437749D01*
X124252224Y-134413922D01*
X124272904Y-134401150D01*
X124319302Y-134396114D01*
X124372030Y-134395416D01*
X124443551Y-134393409D01*
X124483482Y-134385167D01*
X124502470Y-134367354D01*
X124507672Y-134352930D01*
X124509307Y-134347968D01*
X124512657Y-134343410D01*
X124519443Y-134339243D01*
X124531386Y-134335450D01*
X124550207Y-134332017D01*
X124577628Y-134328930D01*
X124615370Y-134326173D01*
X124665154Y-134323732D01*
X124728702Y-134321592D01*
X124807735Y-134319737D01*
X124903974Y-134318154D01*
X125019141Y-134316827D01*
X125154957Y-134315742D01*
X125313143Y-134314883D01*
X125495420Y-134314236D01*
X125703510Y-134313787D01*
X125939135Y-134313519D01*
X126204015Y-134313419D01*
X126499871Y-134313471D01*
G37*
G36*
X119607193Y-134313440D02*
G01*
X119860094Y-134313606D01*
X120084432Y-134313945D01*
X120281929Y-134314472D01*
X120454306Y-134315202D01*
X120603284Y-134316150D01*
X120730584Y-134317331D01*
X120837928Y-134318760D01*
X120927036Y-134320450D01*
X120999632Y-134322418D01*
X121057435Y-134324677D01*
X121102166Y-134327244D01*
X121135548Y-134330132D01*
X121159302Y-134333356D01*
X121175149Y-134336932D01*
X121184809Y-134340874D01*
X121190005Y-134345196D01*
X121192458Y-134349915D01*
X121193326Y-134352930D01*
X121205542Y-134377151D01*
X121233072Y-134390039D01*
X121286561Y-134394928D01*
X121328968Y-134395416D01*
X121399059Y-134397022D01*
X121436631Y-134404052D01*
X121451444Y-134419824D01*
X121453499Y-134437749D01*
X121461532Y-134466627D01*
X121493123Y-134478509D01*
X121529564Y-134480083D01*
X121585279Y-134486404D01*
X121611957Y-134509230D01*
X121616699Y-134522416D01*
X121642580Y-134557004D01*
X121667635Y-134564749D01*
X121701199Y-134580870D01*
X121707499Y-134607083D01*
X121722466Y-134642459D01*
X121749833Y-134649416D01*
X121785209Y-134664383D01*
X121792166Y-134691749D01*
X121807133Y-134727125D01*
X121834499Y-134734083D01*
X121869875Y-134749050D01*
X121876833Y-134776416D01*
X121891800Y-134811792D01*
X121919166Y-134818749D01*
X121946862Y-134825849D01*
X121959102Y-134854546D01*
X121961499Y-134903416D01*
X121965317Y-134959261D01*
X121980084Y-134983814D01*
X122001139Y-134988083D01*
X122025889Y-134995981D01*
X122040820Y-135026054D01*
X122050341Y-135087866D01*
X122051224Y-135096781D01*
X122066089Y-135177124D01*
X122090996Y-135221194D01*
X122096251Y-135224833D01*
X122099527Y-135228850D01*
X122102591Y-135238022D01*
X122105449Y-135253714D01*
X122108110Y-135277287D01*
X122110579Y-135310108D01*
X122112865Y-135353538D01*
X122114973Y-135408942D01*
X122116912Y-135477684D01*
X122118687Y-135561128D01*
X122120307Y-135660637D01*
X122121778Y-135777574D01*
X122123107Y-135913304D01*
X122124301Y-136069191D01*
X122125368Y-136246598D01*
X122126314Y-136446889D01*
X122127146Y-136671428D01*
X122127871Y-136921578D01*
X122128498Y-137198703D01*
X122129031Y-137504168D01*
X122129479Y-137839335D01*
X122129849Y-138205568D01*
X122130147Y-138604232D01*
X122130381Y-139036690D01*
X122130558Y-139504306D01*
X122130684Y-140008443D01*
X122130767Y-140550465D01*
X122130814Y-141131736D01*
X122130832Y-141753621D01*
X122130833Y-141923199D01*
X122130831Y-142553509D01*
X122130819Y-143142864D01*
X122130790Y-143692641D01*
X122130734Y-144204220D01*
X122130642Y-144678978D01*
X122130506Y-145118294D01*
X122130316Y-145523546D01*
X122130065Y-145896112D01*
X122129744Y-146237370D01*
X122129343Y-146548698D01*
X122128854Y-146831475D01*
X122128269Y-147087078D01*
X122127578Y-147316887D01*
X122126774Y-147522279D01*
X122125846Y-147704632D01*
X122124787Y-147865325D01*
X122123588Y-148005735D01*
X122122239Y-148127241D01*
X122120733Y-148231222D01*
X122119061Y-148319054D01*
X122117213Y-148392117D01*
X122115182Y-148451789D01*
X122112958Y-148499448D01*
X122110533Y-148536472D01*
X122107897Y-148564239D01*
X122105043Y-148584127D01*
X122101962Y-148597515D01*
X122098644Y-148605781D01*
X122095081Y-148610303D01*
X122091265Y-148612459D01*
X122088499Y-148613283D01*
X122059608Y-148630848D01*
X122047576Y-148671149D01*
X122046166Y-148707216D01*
X122037904Y-148772426D01*
X122014992Y-148802040D01*
X121990263Y-148829337D01*
X121971546Y-148879954D01*
X121970303Y-148886043D01*
X121952187Y-148939340D01*
X121921786Y-148957865D01*
X121916810Y-148958083D01*
X121883158Y-148974154D01*
X121876833Y-149000416D01*
X121863355Y-149035094D01*
X121844559Y-149042749D01*
X121813791Y-149060450D01*
X121792166Y-149095666D01*
X121766386Y-149135078D01*
X121739773Y-149148583D01*
X121711376Y-149165292D01*
X121707499Y-149180333D01*
X121689853Y-149206190D01*
X121665166Y-149212083D01*
X121629790Y-149227050D01*
X121622833Y-149254416D01*
X121607738Y-149289928D01*
X121581551Y-149296749D01*
X121537637Y-149312892D01*
X121520916Y-149331331D01*
X121483629Y-149357827D01*
X121409290Y-149374557D01*
X121392865Y-149376357D01*
X121327080Y-149385559D01*
X121294060Y-149399699D01*
X121284240Y-149423184D01*
X121284166Y-149426442D01*
X121283310Y-149431040D01*
X121279607Y-149435266D01*
X121271356Y-149439134D01*
X121256854Y-149442660D01*
X121234398Y-149445857D01*
X121202288Y-149448739D01*
X121158821Y-149451322D01*
X121102294Y-149453620D01*
X121031006Y-149455646D01*
X120943255Y-149457415D01*
X120837338Y-149458942D01*
X120711554Y-149460241D01*
X120564200Y-149461326D01*
X120393574Y-149462212D01*
X120197974Y-149462913D01*
X119975698Y-149463443D01*
X119725045Y-149463817D01*
X119444311Y-149464050D01*
X119131794Y-149464154D01*
X118785794Y-149464146D01*
X118404607Y-149464039D01*
X117986531Y-149463847D01*
X117529865Y-149463586D01*
X117032906Y-149463268D01*
X116929124Y-149463200D01*
X116502256Y-149462874D01*
X116086358Y-149462470D01*
X115683435Y-149461993D01*
X115295492Y-149461450D01*
X114924534Y-149460846D01*
X114572564Y-149460187D01*
X114241588Y-149459477D01*
X113933610Y-149458722D01*
X113650634Y-149457928D01*
X113394665Y-149457100D01*
X113167707Y-149456245D01*
X112971766Y-149455366D01*
X112808844Y-149454470D01*
X112680948Y-149453562D01*
X112590081Y-149452648D01*
X112538249Y-149451733D01*
X112526458Y-149451144D01*
X112489239Y-149432535D01*
X112478833Y-149411694D01*
X112462797Y-149390222D01*
X112411591Y-149381714D01*
X112394166Y-149381416D01*
X112338774Y-149377866D01*
X112314293Y-149363517D01*
X112309499Y-149339083D01*
X112302399Y-149311386D01*
X112273702Y-149299146D01*
X112224833Y-149296749D01*
X112169440Y-149293199D01*
X112144959Y-149278851D01*
X112140166Y-149254416D01*
X112125199Y-149219040D01*
X112097833Y-149212083D01*
X112062456Y-149197115D01*
X112055499Y-149169749D01*
X112040532Y-149134373D01*
X112013166Y-149127416D01*
X111977790Y-149112449D01*
X111970833Y-149085083D01*
X111955865Y-149049706D01*
X111928499Y-149042749D01*
X111892856Y-149027569D01*
X111886166Y-149002885D01*
X111868288Y-148965638D01*
X111843833Y-148951949D01*
X111813745Y-148932722D01*
X111802219Y-148888694D01*
X111801499Y-148864814D01*
X111797028Y-148812926D01*
X111779447Y-148791577D01*
X111759166Y-148788749D01*
X111735339Y-148784025D01*
X111722567Y-148763344D01*
X111717531Y-148716947D01*
X111716833Y-148664218D01*
X111714816Y-148592669D01*
X111706556Y-148552722D01*
X111688732Y-148533746D01*
X111674499Y-148528616D01*
X111670479Y-148527277D01*
X111666722Y-148524506D01*
X111663220Y-148518918D01*
X111659962Y-148509125D01*
X111656940Y-148493740D01*
X111654146Y-148471376D01*
X111651570Y-148440645D01*
X111649204Y-148400162D01*
X111647038Y-148348539D01*
X111645064Y-148284388D01*
X111643273Y-148206323D01*
X111641656Y-148112957D01*
X111640204Y-148002902D01*
X111638908Y-147874773D01*
X111637760Y-147727180D01*
X111636750Y-147558739D01*
X111635869Y-147368061D01*
X111635109Y-147153759D01*
X111634461Y-146914447D01*
X111633916Y-146648737D01*
X111633465Y-146355243D01*
X111633099Y-146032577D01*
X111632809Y-145679352D01*
X111632586Y-145294182D01*
X111632422Y-144875679D01*
X111632307Y-144422455D01*
X111632233Y-143933126D01*
X111632191Y-143406302D01*
X111632172Y-142840597D01*
X111632166Y-142234624D01*
X111632166Y-141923199D01*
X111632167Y-141888416D01*
X112055499Y-141888416D01*
X112055521Y-142523376D01*
X112055588Y-143117306D01*
X112055709Y-143671507D01*
X112055887Y-144187283D01*
X112056130Y-144665935D01*
X112056442Y-145108767D01*
X112056830Y-145517080D01*
X112057300Y-145892178D01*
X112057856Y-146235362D01*
X112058506Y-146547936D01*
X112059255Y-146831202D01*
X112060108Y-147086462D01*
X112061072Y-147315018D01*
X112062152Y-147518175D01*
X112063355Y-147697233D01*
X112064685Y-147853495D01*
X112066149Y-147988264D01*
X112067753Y-148102843D01*
X112069502Y-148198534D01*
X112071402Y-148276639D01*
X112073459Y-148338461D01*
X112075679Y-148385303D01*
X112078068Y-148418466D01*
X112080631Y-148439254D01*
X112083375Y-148448970D01*
X112084780Y-148450083D01*
X112113643Y-148469964D01*
X112132593Y-148526045D01*
X112139858Y-148612982D01*
X112139877Y-148616106D01*
X112147781Y-148670305D01*
X112174798Y-148695527D01*
X112182499Y-148697949D01*
X112217087Y-148723830D01*
X112224833Y-148748885D01*
X112240953Y-148782449D01*
X112267166Y-148788749D01*
X112302542Y-148803716D01*
X112309499Y-148831083D01*
X112324466Y-148866459D01*
X112351833Y-148873416D01*
X112387209Y-148888383D01*
X112394166Y-148915749D01*
X112401266Y-148943445D01*
X112429963Y-148955686D01*
X112478833Y-148958083D01*
X112534225Y-148961633D01*
X112558706Y-148975981D01*
X112563499Y-149000416D01*
X112563854Y-149005346D01*
X112566060Y-149009878D01*
X112571829Y-149014028D01*
X112582872Y-149017813D01*
X112600901Y-149021251D01*
X112627628Y-149024356D01*
X112664764Y-149027148D01*
X112714022Y-149029641D01*
X112777112Y-149031854D01*
X112855747Y-149033802D01*
X112951638Y-149035504D01*
X113066497Y-149036974D01*
X113202035Y-149038231D01*
X113359965Y-149039291D01*
X113541997Y-149040170D01*
X113749844Y-149040886D01*
X113985218Y-149041456D01*
X114249829Y-149041896D01*
X114545391Y-149042222D01*
X114873613Y-149042453D01*
X115236209Y-149042604D01*
X115634889Y-149042692D01*
X116071365Y-149042735D01*
X116547350Y-149042748D01*
X116879030Y-149042749D01*
X117381642Y-149042746D01*
X117843636Y-149042723D01*
X118266729Y-149042666D01*
X118652637Y-149042556D01*
X119003076Y-149042378D01*
X119319762Y-149042114D01*
X119604411Y-149041747D01*
X119858739Y-149041261D01*
X120084463Y-149040639D01*
X120283298Y-149039864D01*
X120456961Y-149038920D01*
X120607167Y-149037789D01*
X120735634Y-149036455D01*
X120844075Y-149034901D01*
X120934209Y-149033110D01*
X121007751Y-149031065D01*
X121066417Y-149028751D01*
X121111923Y-149026149D01*
X121145985Y-149023243D01*
X121170320Y-149020016D01*
X121186643Y-149016452D01*
X121196670Y-149012533D01*
X121202118Y-149008243D01*
X121204703Y-149003565D01*
X121205632Y-149000416D01*
X121224860Y-148970328D01*
X121268887Y-148958803D01*
X121292768Y-148958083D01*
X121344655Y-148953612D01*
X121366005Y-148936030D01*
X121368833Y-148915749D01*
X121383800Y-148880373D01*
X121411166Y-148873416D01*
X121446542Y-148858449D01*
X121453499Y-148831083D01*
X121468466Y-148795706D01*
X121495833Y-148788749D01*
X121531209Y-148773782D01*
X121538166Y-148746416D01*
X121553133Y-148711040D01*
X121580499Y-148704083D01*
X121608195Y-148696982D01*
X121620436Y-148668285D01*
X121622833Y-148619416D01*
X121626383Y-148564024D01*
X121640731Y-148539543D01*
X121665166Y-148534749D01*
X121669173Y-148534474D01*
X121672919Y-148532728D01*
X121676412Y-148528132D01*
X121679662Y-148519304D01*
X121682677Y-148504866D01*
X121685466Y-148483436D01*
X121688038Y-148453635D01*
X121690402Y-148414082D01*
X121692566Y-148363397D01*
X121694539Y-148300200D01*
X121696330Y-148223112D01*
X121697949Y-148130750D01*
X121699402Y-148021737D01*
X121700701Y-147894690D01*
X121701852Y-147748231D01*
X121702866Y-147580979D01*
X121703750Y-147391553D01*
X121704514Y-147178574D01*
X121705166Y-146940661D01*
X121705716Y-146676435D01*
X121706172Y-146384515D01*
X121706542Y-146063520D01*
X121706837Y-145712072D01*
X121707063Y-145328788D01*
X121707232Y-144912290D01*
X121707350Y-144461198D01*
X121707427Y-143974130D01*
X121707471Y-143449707D01*
X121707492Y-142886549D01*
X121707499Y-142283275D01*
X121707499Y-141897018D01*
X121707497Y-141268723D01*
X121707486Y-140681379D01*
X121707456Y-140133603D01*
X121707399Y-139624014D01*
X121707307Y-139151227D01*
X121707169Y-138713862D01*
X121706978Y-138310535D01*
X121706725Y-137939864D01*
X121706400Y-137600467D01*
X121705996Y-137290960D01*
X121705502Y-137009962D01*
X121704912Y-136756090D01*
X121704215Y-136527962D01*
X121703402Y-136324194D01*
X121702466Y-136143405D01*
X121701397Y-135984212D01*
X121700186Y-135845233D01*
X121698825Y-135725085D01*
X121697305Y-135622385D01*
X121695617Y-135535752D01*
X121693752Y-135463802D01*
X121691702Y-135405154D01*
X121689457Y-135358424D01*
X121687009Y-135322230D01*
X121684349Y-135295190D01*
X121681468Y-135275921D01*
X121678358Y-135263041D01*
X121675009Y-135255168D01*
X121671413Y-135250918D01*
X121667561Y-135248909D01*
X121665166Y-135248216D01*
X121634595Y-135228277D01*
X121623326Y-135182708D01*
X121622833Y-135163549D01*
X121615962Y-135108604D01*
X121591445Y-135082603D01*
X121580499Y-135078882D01*
X121545911Y-135053002D01*
X121538166Y-135027947D01*
X121522045Y-134994383D01*
X121495833Y-134988083D01*
X121460456Y-134973115D01*
X121453499Y-134945749D01*
X121438405Y-134910237D01*
X121412218Y-134903416D01*
X121368724Y-134887968D01*
X121352368Y-134870236D01*
X121321516Y-134845612D01*
X121265815Y-134822826D01*
X121240324Y-134816054D01*
X121179876Y-134796929D01*
X121137813Y-134773526D01*
X121129789Y-134764567D01*
X121123574Y-134760936D01*
X121108056Y-134757598D01*
X121081577Y-134754542D01*
X121042480Y-134751755D01*
X120989108Y-134749226D01*
X120919801Y-134746942D01*
X120832902Y-134744892D01*
X120726755Y-134743064D01*
X120599700Y-134741446D01*
X120450080Y-134740026D01*
X120276238Y-134738793D01*
X120076515Y-134737734D01*
X119849254Y-134736837D01*
X119592798Y-134736090D01*
X119305487Y-134735483D01*
X118985666Y-134735002D01*
X118631675Y-134734636D01*
X118241857Y-134734373D01*
X117814555Y-134734201D01*
X117348110Y-134734108D01*
X116880447Y-134734083D01*
X116382912Y-134734086D01*
X115925982Y-134734108D01*
X115507928Y-134734167D01*
X115127022Y-134734278D01*
X114781536Y-134734460D01*
X114469741Y-134734730D01*
X114189908Y-134735106D01*
X113940310Y-134735603D01*
X113719218Y-134736241D01*
X113524903Y-134737035D01*
X113355637Y-134738004D01*
X113209692Y-134739164D01*
X113085339Y-134740533D01*
X112980849Y-134742128D01*
X112894494Y-134743967D01*
X112824547Y-134746067D01*
X112769278Y-134748444D01*
X112726958Y-134751117D01*
X112695860Y-134754103D01*
X112674255Y-134757418D01*
X112660415Y-134761081D01*
X112652611Y-134765108D01*
X112649115Y-134769517D01*
X112648198Y-134774325D01*
X112648166Y-134776416D01*
X112640823Y-134804433D01*
X112611359Y-134816587D01*
X112565968Y-134818749D01*
X112508295Y-134823965D01*
X112479959Y-134843277D01*
X112472699Y-134861083D01*
X112450685Y-134892984D01*
X112400861Y-134903344D01*
X112394166Y-134903416D01*
X112340311Y-134912437D01*
X112316467Y-134942599D01*
X112316144Y-134943792D01*
X112288527Y-134982719D01*
X112265209Y-134994727D01*
X112234389Y-135017861D01*
X112224839Y-135070754D01*
X112224833Y-135072749D01*
X112216254Y-135125831D01*
X112186689Y-135150072D01*
X112182499Y-135151283D01*
X112153499Y-135168993D01*
X112141506Y-135209628D01*
X112140166Y-135244551D01*
X112136384Y-135298952D01*
X112121209Y-135322550D01*
X112097833Y-135326749D01*
X112093803Y-135327026D01*
X112090038Y-135328783D01*
X112086528Y-135333407D01*
X112083264Y-135342288D01*
X112080237Y-135356812D01*
X112077439Y-135378369D01*
X112074860Y-135408345D01*
X112072492Y-135448131D01*
X112070325Y-135499113D01*
X112068351Y-135562680D01*
X112066560Y-135640220D01*
X112064944Y-135733121D01*
X112063493Y-135842771D01*
X112062199Y-135970559D01*
X112061053Y-136117873D01*
X112060046Y-136286100D01*
X112059168Y-136476629D01*
X112058412Y-136690848D01*
X112057767Y-136930145D01*
X112057225Y-137195909D01*
X112056777Y-137489527D01*
X112056414Y-137812388D01*
X112056128Y-138165880D01*
X112055908Y-138551391D01*
X112055747Y-138970309D01*
X112055635Y-139424022D01*
X112055563Y-139913919D01*
X112055522Y-140441387D01*
X112055504Y-141007815D01*
X112055499Y-141614591D01*
X112055499Y-141888416D01*
X111632167Y-141888416D01*
X111632171Y-141614591D01*
X111632177Y-141294985D01*
X111632214Y-140707730D01*
X111632284Y-140160057D01*
X111632396Y-139650591D01*
X111632555Y-139177958D01*
X111632771Y-138740781D01*
X111633049Y-138337686D01*
X111633397Y-137967297D01*
X111633822Y-137628240D01*
X111634332Y-137319138D01*
X111634934Y-137038616D01*
X111635636Y-136785299D01*
X111636444Y-136557812D01*
X111637365Y-136354780D01*
X111638408Y-136174827D01*
X111639579Y-136016578D01*
X111640887Y-135878657D01*
X111642337Y-135759690D01*
X111643937Y-135658301D01*
X111645695Y-135573114D01*
X111647618Y-135502755D01*
X111649713Y-135445848D01*
X111651988Y-135401018D01*
X111654450Y-135366889D01*
X111657105Y-135342087D01*
X111659962Y-135325236D01*
X111663028Y-135314960D01*
X111666310Y-135309885D01*
X111667252Y-135309218D01*
X111692993Y-135274315D01*
X111708978Y-135202134D01*
X111712206Y-135170582D01*
X111723447Y-135092336D01*
X111740918Y-135055156D01*
X111750244Y-135051583D01*
X111772515Y-135033062D01*
X111790224Y-134987656D01*
X111791947Y-134979447D01*
X111814792Y-134920013D01*
X111845823Y-134896762D01*
X111874822Y-134876610D01*
X111885685Y-134829695D01*
X111886166Y-134810147D01*
X111890637Y-134758260D01*
X111908218Y-134736910D01*
X111928499Y-134734083D01*
X111963875Y-134719115D01*
X111970833Y-134691749D01*
X111985800Y-134656373D01*
X112013166Y-134649416D01*
X112048542Y-134634449D01*
X112055499Y-134607083D01*
X112063532Y-134578205D01*
X112095123Y-134566323D01*
X112131564Y-134564749D01*
X112187279Y-134558427D01*
X112213957Y-134535601D01*
X112218699Y-134522416D01*
X112244580Y-134487828D01*
X112269635Y-134480083D01*
X112302599Y-134467217D01*
X112309499Y-134450801D01*
X112329521Y-134421718D01*
X112386969Y-134402949D01*
X112477920Y-134395739D01*
X112483072Y-134395705D01*
X112552169Y-134384153D01*
X112582124Y-134358374D01*
X112586103Y-134354038D01*
X112594132Y-134350047D01*
X112607927Y-134346385D01*
X112629206Y-134343035D01*
X112659686Y-134339979D01*
X112701083Y-134337201D01*
X112755114Y-134334684D01*
X112823497Y-134332411D01*
X112907949Y-134330365D01*
X113010185Y-134328529D01*
X113131924Y-134326886D01*
X113274883Y-134325420D01*
X113440777Y-134324113D01*
X113631325Y-134322948D01*
X113848243Y-134321909D01*
X114093248Y-134320979D01*
X114368058Y-134320140D01*
X114674388Y-134319376D01*
X115013956Y-134318669D01*
X115388480Y-134318004D01*
X115799675Y-134317363D01*
X116249259Y-134316728D01*
X116738949Y-134316084D01*
X116892535Y-134315888D01*
X117393572Y-134315255D01*
X117853998Y-134314692D01*
X118275533Y-134314214D01*
X118659899Y-134313834D01*
X119008816Y-134313569D01*
X119324007Y-134313433D01*
X119607193Y-134313440D01*
G37*
G36*
X76510179Y-154740164D02*
G01*
X76549554Y-154748624D01*
X76558999Y-154757749D01*
X76579756Y-154765460D01*
X76640442Y-154771541D01*
X76738678Y-154775877D01*
X76872088Y-154778351D01*
X76992916Y-154778916D01*
X77150982Y-154777903D01*
X77275647Y-154774943D01*
X77364531Y-154770151D01*
X77415258Y-154763643D01*
X77426833Y-154757749D01*
X77444910Y-154744135D01*
X77488000Y-154737636D01*
X77539384Y-154738230D01*
X77582348Y-154745894D01*
X77599768Y-154757974D01*
X77622589Y-154768387D01*
X77678217Y-154779065D01*
X77757165Y-154788454D01*
X77813199Y-154792916D01*
X77921267Y-154802324D01*
X77988912Y-154813850D01*
X78018005Y-154827855D01*
X78019499Y-154832379D01*
X78038903Y-154854139D01*
X78090098Y-154871873D01*
X78162556Y-154882727D01*
X78212645Y-154884749D01*
X78257929Y-154892061D01*
X78273143Y-154918850D01*
X78273499Y-154927083D01*
X78280599Y-154954779D01*
X78309296Y-154967019D01*
X78358166Y-154969416D01*
X78413558Y-154972966D01*
X78438039Y-154987314D01*
X78442833Y-155011749D01*
X78457800Y-155047125D01*
X78485166Y-155054083D01*
X78519483Y-155066898D01*
X78527499Y-155084873D01*
X78547073Y-155110354D01*
X78599453Y-155129118D01*
X78604314Y-155130075D01*
X78666425Y-155152574D01*
X78691450Y-155183951D01*
X78717922Y-155216825D01*
X78741635Y-155223416D01*
X78775199Y-155239536D01*
X78781499Y-155265749D01*
X78796466Y-155301125D01*
X78823833Y-155308083D01*
X78859476Y-155323263D01*
X78866166Y-155347947D01*
X78884044Y-155385193D01*
X78908499Y-155398882D01*
X78941481Y-155422706D01*
X78950833Y-155472966D01*
X78961043Y-155524728D01*
X78993166Y-155547049D01*
X79028999Y-155575417D01*
X79035499Y-155602434D01*
X79049460Y-155639125D01*
X79077833Y-155646749D01*
X79105529Y-155653849D01*
X79117769Y-155682546D01*
X79120166Y-155731416D01*
X79123716Y-155786808D01*
X79138064Y-155811289D01*
X79162499Y-155816083D01*
X79190330Y-155823284D01*
X79202535Y-155852302D01*
X79204833Y-155899697D01*
X79213952Y-155968602D01*
X79241874Y-156004041D01*
X79261004Y-156022943D01*
X79273641Y-156059589D01*
X79281662Y-156122508D01*
X79286397Y-156206603D01*
X79291584Y-156298071D01*
X79299406Y-156356203D01*
X79311969Y-156389995D01*
X79331381Y-156408444D01*
X79334022Y-156409921D01*
X79353699Y-156425798D01*
X79365718Y-156453709D01*
X79371841Y-156502752D01*
X79373828Y-156582030D01*
X79373877Y-156615869D01*
X79371585Y-156736021D01*
X79364502Y-156818932D01*
X79351660Y-156869524D01*
X79332089Y-156892717D01*
X79318780Y-156895583D01*
X79301625Y-156907737D01*
X79292262Y-156948585D01*
X79289220Y-157024701D01*
X79289210Y-157027874D01*
X79285325Y-157138572D01*
X79273694Y-157210902D01*
X79253495Y-157248258D01*
X79234114Y-157255416D01*
X79212999Y-157273198D01*
X79204968Y-157328395D01*
X79204833Y-157340083D01*
X79201282Y-157395475D01*
X79186934Y-157419956D01*
X79162499Y-157424749D01*
X79134803Y-157431849D01*
X79122563Y-157460546D01*
X79120166Y-157509416D01*
X79116347Y-157565263D01*
X79101578Y-157589817D01*
X79080538Y-157594083D01*
X79051589Y-157605805D01*
X79033606Y-157646836D01*
X79027371Y-157678749D01*
X79009972Y-157740161D01*
X78984370Y-157763315D01*
X78982332Y-157763416D01*
X78956756Y-157781041D01*
X78950833Y-157805749D01*
X78935865Y-157841125D01*
X78908499Y-157848083D01*
X78873123Y-157863050D01*
X78866166Y-157890416D01*
X78851199Y-157925792D01*
X78823833Y-157932749D01*
X78788456Y-157947716D01*
X78781499Y-157975083D01*
X78766532Y-158010459D01*
X78739166Y-158017416D01*
X78703790Y-158032383D01*
X78696833Y-158059749D01*
X78681865Y-158095125D01*
X78654499Y-158102083D01*
X78620174Y-158114531D01*
X78612166Y-158131972D01*
X78592341Y-158156034D01*
X78538164Y-158174196D01*
X78527499Y-158176166D01*
X78468588Y-158192190D01*
X78444439Y-158216681D01*
X78442833Y-158228238D01*
X78429519Y-158256567D01*
X78384502Y-158274562D01*
X78358166Y-158279544D01*
X78296754Y-158296943D01*
X78273600Y-158322545D01*
X78273499Y-158324583D01*
X78259205Y-158346551D01*
X78212108Y-158355555D01*
X78188833Y-158356083D01*
X78128948Y-158361752D01*
X78105082Y-158379940D01*
X78104166Y-158386536D01*
X78084128Y-158410278D01*
X78023418Y-158426683D01*
X78003624Y-158429456D01*
X77917446Y-158441659D01*
X77823991Y-158457036D01*
X77797249Y-158461916D01*
X77638062Y-158486074D01*
X77507940Y-158492094D01*
X77405666Y-158481909D01*
X77351699Y-158475616D01*
X77269943Y-158470453D01*
X77169008Y-158466507D01*
X77057505Y-158463865D01*
X76944045Y-158462615D01*
X76837237Y-158462844D01*
X76745692Y-158464640D01*
X76678021Y-158468091D01*
X76642834Y-158473282D01*
X76640998Y-158474148D01*
X76610497Y-158479012D01*
X76548364Y-158479346D01*
X76462852Y-158475890D01*
X76362214Y-158469381D01*
X76254701Y-158460561D01*
X76148568Y-158450168D01*
X76052066Y-158438941D01*
X75973447Y-158427619D01*
X75920966Y-158416943D01*
X75902833Y-158408018D01*
X75883446Y-158386563D01*
X75832383Y-158368989D01*
X75760289Y-158358157D01*
X75709687Y-158356083D01*
X75663839Y-158348316D01*
X75648969Y-158321052D01*
X75648833Y-158316454D01*
X75637110Y-158287506D01*
X75596079Y-158269523D01*
X75564166Y-158263288D01*
X75502754Y-158245889D01*
X75479600Y-158220287D01*
X75479499Y-158218249D01*
X75461874Y-158192673D01*
X75437166Y-158186749D01*
X75401790Y-158171782D01*
X75394833Y-158144416D01*
X75379969Y-158109140D01*
X75351835Y-158102083D01*
X75311802Y-158089902D01*
X75298037Y-158073937D01*
X75272492Y-158048034D01*
X75223842Y-158021097D01*
X75214925Y-158017420D01*
X75155918Y-157981270D01*
X75129458Y-157929148D01*
X75110856Y-157886189D01*
X75086234Y-157869249D01*
X75062223Y-157851529D01*
X75056166Y-157824934D01*
X75038018Y-157782678D01*
X75013833Y-157769549D01*
X74979244Y-157743669D01*
X74971499Y-157718614D01*
X74955137Y-157684731D01*
X74931871Y-157678749D01*
X74902922Y-157667027D01*
X74884939Y-157625996D01*
X74878704Y-157594083D01*
X74862916Y-157536872D01*
X74840966Y-157510214D01*
X74836371Y-157509416D01*
X74813792Y-157489891D01*
X74796410Y-157437885D01*
X74794038Y-157424749D01*
X74776639Y-157363337D01*
X74751037Y-157340183D01*
X74748999Y-157340083D01*
X74723974Y-157321246D01*
X74717499Y-157279228D01*
X74711882Y-157195722D01*
X74696876Y-157130061D01*
X74675255Y-157091882D01*
X74661937Y-157086083D01*
X74652189Y-157079258D01*
X74644794Y-157055676D01*
X74639463Y-157010671D01*
X74635901Y-156939579D01*
X74633820Y-156837734D01*
X74632925Y-156700473D01*
X74632856Y-156640631D01*
X75140833Y-156640631D01*
X75142129Y-156726962D01*
X75147454Y-156780745D01*
X75158964Y-156811722D01*
X75178810Y-156829637D01*
X75183166Y-156832083D01*
X75208715Y-156854117D01*
X75221590Y-156892783D01*
X75225465Y-156960085D01*
X75225499Y-156970411D01*
X75228426Y-157040518D01*
X75238629Y-157076452D01*
X75256999Y-157086083D01*
X75283104Y-157106453D01*
X75301131Y-157165315D01*
X75302038Y-157170749D01*
X75317826Y-157227960D01*
X75339776Y-157254617D01*
X75344371Y-157255416D01*
X75366950Y-157274940D01*
X75384332Y-157326946D01*
X75386704Y-157340083D01*
X75401441Y-157397928D01*
X75424547Y-157422331D01*
X75439871Y-157424749D01*
X75473251Y-157440970D01*
X75479499Y-157467083D01*
X75494466Y-157502459D01*
X75521833Y-157509416D01*
X75557209Y-157524383D01*
X75564166Y-157551749D01*
X75579133Y-157587125D01*
X75606499Y-157594083D01*
X75641875Y-157609050D01*
X75648833Y-157636416D01*
X75663800Y-157671792D01*
X75691166Y-157678749D01*
X75725538Y-157691864D01*
X75733499Y-157710249D01*
X75753869Y-157736354D01*
X75812732Y-157754381D01*
X75818166Y-157755288D01*
X75876011Y-157770024D01*
X75900414Y-157793131D01*
X75902833Y-157808454D01*
X75914759Y-157838310D01*
X75956626Y-157847994D01*
X75963687Y-157848083D01*
X76047193Y-157853700D01*
X76112854Y-157868705D01*
X76151033Y-157890327D01*
X76156833Y-157903645D01*
X76162878Y-157911359D01*
X76183468Y-157917631D01*
X76222283Y-157922599D01*
X76283002Y-157926401D01*
X76369307Y-157929173D01*
X76484878Y-157931053D01*
X76633395Y-157932177D01*
X76818538Y-157932684D01*
X76937353Y-157932749D01*
X77117793Y-157932397D01*
X77287092Y-157931395D01*
X77440043Y-157929825D01*
X77571437Y-157927767D01*
X77676065Y-157925304D01*
X77748720Y-157922516D01*
X77784020Y-157919520D01*
X77829688Y-157902288D01*
X77850092Y-157878577D01*
X77850166Y-157877187D01*
X77868297Y-157856130D01*
X77924275Y-157848193D01*
X77934833Y-157848083D01*
X77993880Y-157842765D01*
X78018081Y-157825242D01*
X78019499Y-157816583D01*
X78039869Y-157790477D01*
X78098732Y-157772450D01*
X78104166Y-157771544D01*
X78162011Y-157756808D01*
X78186414Y-157733701D01*
X78188833Y-157718377D01*
X78205053Y-157684998D01*
X78231166Y-157678749D01*
X78265510Y-157667154D01*
X78273499Y-157650950D01*
X78291380Y-157626022D01*
X78335687Y-157599186D01*
X78349014Y-157593521D01*
X78408658Y-157558568D01*
X78435311Y-157509798D01*
X78435952Y-157506778D01*
X78458089Y-157460202D01*
X78487437Y-157439189D01*
X78520906Y-157411491D01*
X78527499Y-157384397D01*
X78541460Y-157347706D01*
X78569833Y-157340083D01*
X78597529Y-157332982D01*
X78609769Y-157304285D01*
X78612166Y-157255416D01*
X78615716Y-157200024D01*
X78630064Y-157175543D01*
X78654499Y-157170749D01*
X78682195Y-157163649D01*
X78694436Y-157134952D01*
X78696833Y-157086083D01*
X78703065Y-157024828D01*
X78722307Y-157001738D01*
X78725937Y-157001416D01*
X78746838Y-156990208D01*
X78762238Y-156953904D01*
X78772711Y-156888483D01*
X78778825Y-156789924D01*
X78781154Y-156654206D01*
X78781210Y-156612478D01*
X78779855Y-156478641D01*
X78775596Y-156381900D01*
X78767620Y-156317071D01*
X78755117Y-156278968D01*
X78737274Y-156262406D01*
X78726114Y-156260583D01*
X78706173Y-156244724D01*
X78697485Y-156194012D01*
X78696833Y-156165333D01*
X78694063Y-156105809D01*
X78682561Y-156077662D01*
X78657540Y-156070119D01*
X78654499Y-156070083D01*
X78626803Y-156062982D01*
X78614563Y-156034285D01*
X78612166Y-155985416D01*
X78608616Y-155930024D01*
X78594267Y-155905543D01*
X78569833Y-155900749D01*
X78534456Y-155885782D01*
X78527499Y-155858416D01*
X78512532Y-155823040D01*
X78485166Y-155816083D01*
X78449790Y-155801115D01*
X78442833Y-155773749D01*
X78428746Y-155738611D01*
X78409101Y-155731416D01*
X78377024Y-155713646D01*
X78364299Y-155689083D01*
X78338419Y-155654494D01*
X78313364Y-155646749D01*
X78279799Y-155630629D01*
X78273499Y-155604416D01*
X78258319Y-155568773D01*
X78233635Y-155562083D01*
X78196388Y-155544205D01*
X78182699Y-155519749D01*
X78163472Y-155489661D01*
X78119444Y-155478136D01*
X78095564Y-155477416D01*
X78043128Y-155472593D01*
X78021791Y-155454499D01*
X78019499Y-155438044D01*
X78012039Y-155414380D01*
X77983510Y-155399383D01*
X77924690Y-155389082D01*
X77899268Y-155386263D01*
X77816686Y-155371831D01*
X77768360Y-155349979D01*
X77760633Y-155340968D01*
X77751389Y-155332054D01*
X77731917Y-155324882D01*
X77698080Y-155319268D01*
X77645738Y-155315031D01*
X77570752Y-155311987D01*
X77468984Y-155309954D01*
X77336295Y-155308748D01*
X77168547Y-155308189D01*
X77015677Y-155308083D01*
X76800425Y-155308343D01*
X76623802Y-155309283D01*
X76482109Y-155311143D01*
X76371642Y-155314162D01*
X76288702Y-155318580D01*
X76229586Y-155324635D01*
X76190594Y-155332568D01*
X76168024Y-155342618D01*
X76158175Y-155355024D01*
X76156833Y-155363645D01*
X76138843Y-155384620D01*
X76083176Y-155392616D01*
X76071502Y-155392749D01*
X76004496Y-155400853D01*
X75974208Y-155423923D01*
X75946833Y-155448890D01*
X75896500Y-155467377D01*
X75892154Y-155468247D01*
X75834294Y-155491004D01*
X75811512Y-155521739D01*
X75791360Y-155550739D01*
X75744445Y-155561601D01*
X75724897Y-155562083D01*
X75673010Y-155566553D01*
X75651660Y-155584135D01*
X75648833Y-155604416D01*
X75633865Y-155639792D01*
X75606499Y-155646749D01*
X75571123Y-155661716D01*
X75564166Y-155689083D01*
X75549199Y-155724459D01*
X75521833Y-155731416D01*
X75486456Y-155746383D01*
X75479499Y-155773749D01*
X75464532Y-155809125D01*
X75437166Y-155816083D01*
X75408288Y-155824116D01*
X75396406Y-155855706D01*
X75394833Y-155892147D01*
X75388511Y-155947863D01*
X75365685Y-155974541D01*
X75352499Y-155979283D01*
X75321928Y-155999222D01*
X75310660Y-156044790D01*
X75310166Y-156063949D01*
X75303295Y-156118894D01*
X75278779Y-156144895D01*
X75267833Y-156148616D01*
X75243292Y-156161235D01*
X75230460Y-156189801D01*
X75225836Y-156245140D01*
X75225499Y-156279514D01*
X75221663Y-156356893D01*
X75207818Y-156405364D01*
X75183166Y-156435588D01*
X75161318Y-156460736D01*
X75148431Y-156496881D01*
X75142329Y-156554562D01*
X75140833Y-156640631D01*
X74632856Y-156640631D01*
X74632833Y-156620416D01*
X74633252Y-156464620D01*
X74634708Y-156346462D01*
X74637496Y-156261250D01*
X74641909Y-156204294D01*
X74648243Y-156170905D01*
X74656793Y-156156393D01*
X74662114Y-156154749D01*
X74691157Y-156134754D01*
X74709959Y-156077559D01*
X74717179Y-155987354D01*
X74717210Y-155982593D01*
X74723640Y-155926513D01*
X74746210Y-155899581D01*
X74759833Y-155894616D01*
X74790404Y-155874677D01*
X74801672Y-155829109D01*
X74802166Y-155809949D01*
X74809036Y-155755005D01*
X74833553Y-155729004D01*
X74844499Y-155725283D01*
X74874587Y-155706055D01*
X74886112Y-155662028D01*
X74886833Y-155638147D01*
X74891303Y-155586260D01*
X74908885Y-155564910D01*
X74929166Y-155562083D01*
X74964542Y-155547115D01*
X74971499Y-155519749D01*
X74986466Y-155484373D01*
X75013833Y-155477416D01*
X75049209Y-155462449D01*
X75056166Y-155435083D01*
X75070252Y-155399944D01*
X75089897Y-155392749D01*
X75121974Y-155374979D01*
X75134699Y-155350416D01*
X75156807Y-155316004D01*
X75177033Y-155308083D01*
X75207087Y-155290332D01*
X75219366Y-155265749D01*
X75245246Y-155231161D01*
X75270301Y-155223416D01*
X75303866Y-155207295D01*
X75310166Y-155181083D01*
X75325133Y-155145706D01*
X75352499Y-155138749D01*
X75388094Y-155123593D01*
X75394833Y-155098276D01*
X75406169Y-155068808D01*
X75446222Y-155050362D01*
X75479499Y-155043499D01*
X75533992Y-155028115D01*
X75562551Y-155007517D01*
X75564166Y-155001661D01*
X75582682Y-154979808D01*
X75628069Y-154962315D01*
X75636205Y-154960612D01*
X75688219Y-154943149D01*
X75718951Y-154918587D01*
X75720208Y-154915923D01*
X75751347Y-154892580D01*
X75817502Y-154884749D01*
X75876623Y-154879588D01*
X75901171Y-154862447D01*
X75902833Y-154852999D01*
X75905726Y-154824405D01*
X75908124Y-154820676D01*
X75930057Y-154818528D01*
X75984665Y-154813228D01*
X76062482Y-154805691D01*
X76114103Y-154800698D01*
X76201376Y-154790132D01*
X76271144Y-154777669D01*
X76313779Y-154765241D01*
X76322242Y-154758938D01*
X76344943Y-154746498D01*
X76393450Y-154739174D01*
X76453336Y-154737038D01*
X76510179Y-154740164D01*
G37*
G36*
X133069586Y-154732698D02*
G01*
X133209588Y-154734857D01*
X133336027Y-154738154D01*
X133442693Y-154742578D01*
X133523377Y-154748122D01*
X133571872Y-154754774D01*
X133583103Y-154759536D01*
X133611215Y-154773693D01*
X133672614Y-154787528D01*
X133758283Y-154799164D01*
X133786358Y-154801856D01*
X133870116Y-154809295D01*
X133935806Y-154815336D01*
X133973592Y-154819064D01*
X133978874Y-154819745D01*
X133983596Y-154838550D01*
X133984166Y-154852999D01*
X133998037Y-154874997D01*
X134044106Y-154884131D01*
X134069497Y-154884749D01*
X134136502Y-154892853D01*
X134166790Y-154915923D01*
X134194087Y-154940652D01*
X134244704Y-154959369D01*
X134250793Y-154960612D01*
X134298887Y-154976945D01*
X134322374Y-154999271D01*
X134322833Y-155002562D01*
X134341593Y-155024884D01*
X134388566Y-155043047D01*
X134399647Y-155045408D01*
X134461759Y-155067908D01*
X134486783Y-155099284D01*
X134513256Y-155132158D01*
X134536968Y-155138749D01*
X134570532Y-155154870D01*
X134576833Y-155181083D01*
X134591800Y-155216459D01*
X134619166Y-155223416D01*
X134654542Y-155238383D01*
X134661499Y-155265749D01*
X134676466Y-155301125D01*
X134703833Y-155308083D01*
X134739209Y-155323050D01*
X134746166Y-155350416D01*
X134761133Y-155385792D01*
X134788499Y-155392749D01*
X134823875Y-155407716D01*
X134830833Y-155435083D01*
X134845800Y-155470459D01*
X134873166Y-155477416D01*
X134908856Y-155492490D01*
X134915499Y-155515045D01*
X134930627Y-155556771D01*
X134957833Y-155588921D01*
X134990627Y-155636626D01*
X135000166Y-155678292D01*
X135010005Y-155719891D01*
X135042499Y-155731416D01*
X135070516Y-155738759D01*
X135082670Y-155768223D01*
X135084833Y-155813614D01*
X135090048Y-155871287D01*
X135109360Y-155899623D01*
X135127166Y-155906882D01*
X135151926Y-155919713D01*
X135164746Y-155948792D01*
X135169231Y-156005049D01*
X135169499Y-156035299D01*
X135173145Y-156110061D01*
X135185937Y-156153338D01*
X135206541Y-156173375D01*
X135219195Y-156183990D01*
X135228616Y-156203446D01*
X135235272Y-156237384D01*
X135239629Y-156291443D01*
X135242155Y-156371261D01*
X135243316Y-156482480D01*
X135243583Y-156620416D01*
X135243276Y-156766226D01*
X135242043Y-156875344D01*
X135239418Y-156953411D01*
X135234933Y-157006065D01*
X135228120Y-157038947D01*
X135218513Y-157057695D01*
X135206541Y-157067456D01*
X135183586Y-157091853D01*
X135172184Y-157138759D01*
X135169499Y-157205533D01*
X135167206Y-157274765D01*
X135157925Y-157312730D01*
X135138053Y-157330359D01*
X135127166Y-157333949D01*
X135098166Y-157351660D01*
X135086173Y-157392294D01*
X135084833Y-157427218D01*
X135080769Y-157482084D01*
X135065163Y-157505736D01*
X135045204Y-157509416D01*
X135016256Y-157521138D01*
X134998273Y-157562169D01*
X134992038Y-157594083D01*
X134974639Y-157655495D01*
X134949037Y-157678648D01*
X134946999Y-157678749D01*
X134921423Y-157696375D01*
X134915499Y-157721083D01*
X134900532Y-157756459D01*
X134873166Y-157763416D01*
X134837790Y-157778383D01*
X134830833Y-157805749D01*
X134815865Y-157841125D01*
X134788499Y-157848083D01*
X134753123Y-157863050D01*
X134746166Y-157890416D01*
X134732080Y-157925554D01*
X134712434Y-157932749D01*
X134680357Y-157950519D01*
X134667632Y-157975083D01*
X134641752Y-158009671D01*
X134616697Y-158017416D01*
X134583133Y-158033536D01*
X134576833Y-158059749D01*
X134561865Y-158095125D01*
X134534499Y-158102083D01*
X134498841Y-158117266D01*
X134492166Y-158141711D01*
X134480443Y-158170659D01*
X134439413Y-158188642D01*
X134407499Y-158194877D01*
X134349688Y-158210884D01*
X134323489Y-158233273D01*
X134322833Y-158237560D01*
X134304097Y-158260911D01*
X134257394Y-158278867D01*
X134250793Y-158280219D01*
X134198780Y-158297683D01*
X134168048Y-158322244D01*
X134166790Y-158324908D01*
X134135651Y-158348252D01*
X134069497Y-158356083D01*
X134010376Y-158361244D01*
X133985827Y-158378385D01*
X133984166Y-158387833D01*
X133981255Y-158416992D01*
X133978874Y-158421087D01*
X133956895Y-158423473D01*
X133902575Y-158428584D01*
X133825750Y-158435505D01*
X133786358Y-158438975D01*
X133677022Y-158452008D01*
X133607665Y-158468362D01*
X133580776Y-158485096D01*
X133568602Y-158493879D01*
X133541293Y-158500931D01*
X133494671Y-158506467D01*
X133424557Y-158510701D01*
X133326775Y-158513847D01*
X133197145Y-158516119D01*
X133031489Y-158517733D01*
X132931918Y-158518370D01*
X132770907Y-158518897D01*
X132622227Y-158518667D01*
X132491544Y-158517746D01*
X132384526Y-158516197D01*
X132306840Y-158514087D01*
X132264152Y-158511481D01*
X132259083Y-158510630D01*
X132218258Y-158492217D01*
X132203842Y-158478896D01*
X132177478Y-158466862D01*
X132121481Y-158455710D01*
X132055676Y-158448535D01*
X131939943Y-158438834D01*
X131860673Y-158428756D01*
X131812009Y-158416977D01*
X131788090Y-158402172D01*
X131782833Y-158386873D01*
X131767575Y-158365200D01*
X131718187Y-158356474D01*
X131698166Y-158356083D01*
X131637754Y-158350195D01*
X131614153Y-158331596D01*
X131613499Y-158326193D01*
X131593772Y-158302088D01*
X131540296Y-158284076D01*
X131530906Y-158282350D01*
X131465842Y-158261891D01*
X131437660Y-158227658D01*
X131437638Y-158227572D01*
X131414787Y-158196510D01*
X131362642Y-158186765D01*
X131359499Y-158186749D01*
X131306417Y-158178170D01*
X131282176Y-158148605D01*
X131280966Y-158144416D01*
X131255085Y-158109828D01*
X131230030Y-158102083D01*
X131196466Y-158085962D01*
X131190166Y-158059749D01*
X131175199Y-158024373D01*
X131147833Y-158017416D01*
X131112456Y-158002449D01*
X131105499Y-157975083D01*
X131090532Y-157939706D01*
X131063166Y-157932749D01*
X131027790Y-157917782D01*
X131020833Y-157890416D01*
X131005865Y-157855040D01*
X130978499Y-157848083D01*
X130943123Y-157833115D01*
X130936166Y-157805749D01*
X130920982Y-157770091D01*
X130896538Y-157763416D01*
X130867589Y-157751693D01*
X130849606Y-157710663D01*
X130843371Y-157678749D01*
X130825972Y-157617337D01*
X130800370Y-157594183D01*
X130798332Y-157594083D01*
X130771828Y-157576726D01*
X130766833Y-157556453D01*
X130751705Y-157513954D01*
X130727292Y-157484969D01*
X130699771Y-157443370D01*
X130678069Y-157379183D01*
X130673079Y-157353264D01*
X130657812Y-157289440D01*
X130637444Y-157257581D01*
X130630341Y-157255416D01*
X130613272Y-157239907D01*
X130601393Y-157190559D01*
X130593795Y-157105312D01*
X130586113Y-157018599D01*
X130573620Y-156965700D01*
X130554100Y-156938177D01*
X130549073Y-156934927D01*
X130534447Y-156921880D01*
X130524312Y-156897362D01*
X130517880Y-156854539D01*
X130514363Y-156786579D01*
X130512975Y-156686651D01*
X130512833Y-156620416D01*
X131105499Y-156620416D01*
X131106045Y-156759835D01*
X131107944Y-156862049D01*
X131111590Y-156932178D01*
X131117377Y-156975340D01*
X131125697Y-156996653D01*
X131134780Y-157001416D01*
X131162804Y-157020818D01*
X131182434Y-157072468D01*
X131189877Y-157144498D01*
X131205582Y-157194662D01*
X131232499Y-157228577D01*
X131264799Y-157268729D01*
X131274833Y-157299985D01*
X131292612Y-157333232D01*
X131317166Y-157346216D01*
X131349537Y-157369004D01*
X131359489Y-157420303D01*
X131359499Y-157422768D01*
X131368149Y-157473672D01*
X131391773Y-157488249D01*
X131422541Y-157505950D01*
X131444166Y-157541166D01*
X131468306Y-157580510D01*
X131491855Y-157594083D01*
X131525413Y-157608873D01*
X131555671Y-157636416D01*
X131599703Y-157668978D01*
X131636440Y-157678749D01*
X131678398Y-157696195D01*
X131691638Y-157719572D01*
X131719749Y-157753837D01*
X131784734Y-157774320D01*
X131784906Y-157774350D01*
X131842304Y-157791186D01*
X131867113Y-157814730D01*
X131867499Y-157818193D01*
X131884175Y-157839520D01*
X131936860Y-157847852D01*
X131952166Y-157848083D01*
X132012208Y-157853817D01*
X132035999Y-157872129D01*
X132036833Y-157878360D01*
X132054829Y-157905488D01*
X132084458Y-157917811D01*
X132121076Y-157920788D01*
X132193816Y-157923347D01*
X132296584Y-157925482D01*
X132423284Y-157927187D01*
X132567821Y-157928455D01*
X132724101Y-157929280D01*
X132886029Y-157929654D01*
X133047510Y-157929571D01*
X133202448Y-157929025D01*
X133344750Y-157928009D01*
X133468320Y-157926516D01*
X133567062Y-157924540D01*
X133634883Y-157922074D01*
X133664020Y-157919520D01*
X133709688Y-157902288D01*
X133730092Y-157878577D01*
X133730166Y-157877187D01*
X133748156Y-157856211D01*
X133803823Y-157848216D01*
X133815497Y-157848083D01*
X133882502Y-157839979D01*
X133912790Y-157816908D01*
X133940166Y-157791941D01*
X133990499Y-157773455D01*
X133994845Y-157772585D01*
X134052704Y-157749827D01*
X134075486Y-157719092D01*
X134098641Y-157688290D01*
X134151591Y-157678755D01*
X134153499Y-157678749D01*
X134206581Y-157670170D01*
X134230822Y-157640605D01*
X134232033Y-157636416D01*
X134257913Y-157601828D01*
X134282968Y-157594083D01*
X134316532Y-157577962D01*
X134322833Y-157551749D01*
X134337800Y-157516373D01*
X134365166Y-157509416D01*
X134400442Y-157494552D01*
X134407499Y-157466418D01*
X134421034Y-157425823D01*
X134438673Y-157411458D01*
X134463402Y-157384161D01*
X134482119Y-157333544D01*
X134483362Y-157327455D01*
X134501478Y-157274158D01*
X134531879Y-157255633D01*
X134536855Y-157255416D01*
X134563505Y-157247145D01*
X134575006Y-157215190D01*
X134576833Y-157173218D01*
X134582048Y-157115545D01*
X134601360Y-157087209D01*
X134619166Y-157079949D01*
X134640210Y-157069973D01*
X134653403Y-157047592D01*
X134660965Y-157003955D01*
X134665118Y-156930214D01*
X134666270Y-156892272D01*
X134668105Y-156772967D01*
X134667793Y-156643576D01*
X134665592Y-156514319D01*
X134661761Y-156395411D01*
X134656558Y-156297070D01*
X134650241Y-156229513D01*
X134649354Y-156223541D01*
X134632753Y-156173448D01*
X134607623Y-156154749D01*
X134585950Y-156139492D01*
X134577224Y-156090104D01*
X134576833Y-156070083D01*
X134573282Y-156014690D01*
X134558934Y-155990209D01*
X134534499Y-155985416D01*
X134498809Y-155970342D01*
X134492166Y-155947787D01*
X134477038Y-155906061D01*
X134449833Y-155873910D01*
X134417271Y-155829879D01*
X134407499Y-155793141D01*
X134389424Y-155750731D01*
X134365166Y-155737549D01*
X134330762Y-155716003D01*
X134322833Y-155696533D01*
X134305485Y-155664970D01*
X134285791Y-155653279D01*
X134242004Y-155627773D01*
X134210883Y-155601027D01*
X134165067Y-155570681D01*
X134129526Y-155562083D01*
X134088588Y-155544609D01*
X134075486Y-155521739D01*
X134045523Y-155486241D01*
X133994845Y-155468247D01*
X133943525Y-155450705D01*
X133913661Y-155425871D01*
X133912790Y-155423923D01*
X133881651Y-155400580D01*
X133815497Y-155392749D01*
X133753999Y-155386613D01*
X133730557Y-155367627D01*
X133730166Y-155363645D01*
X133726080Y-155349624D01*
X133711340Y-155338137D01*
X133682224Y-155328940D01*
X133635007Y-155321787D01*
X133565967Y-155316435D01*
X133471380Y-155312639D01*
X133347524Y-155310156D01*
X133190675Y-155308739D01*
X132997110Y-155308147D01*
X132883499Y-155308083D01*
X132669852Y-155308351D01*
X132494813Y-155309318D01*
X132354658Y-155311229D01*
X132245665Y-155314327D01*
X132164110Y-155318858D01*
X132106270Y-155325065D01*
X132068422Y-155333193D01*
X132046842Y-155343487D01*
X132037809Y-155356189D01*
X132036833Y-155363645D01*
X132018701Y-155384701D01*
X131962724Y-155392638D01*
X131952166Y-155392749D01*
X131893118Y-155398067D01*
X131868917Y-155415589D01*
X131867499Y-155424249D01*
X131847129Y-155450354D01*
X131788266Y-155468381D01*
X131782833Y-155469288D01*
X131724987Y-155484024D01*
X131700584Y-155507131D01*
X131698166Y-155522454D01*
X131682007Y-155555758D01*
X131655168Y-155562083D01*
X131614467Y-155575875D01*
X131599987Y-155593833D01*
X131575214Y-155621929D01*
X131561686Y-155625583D01*
X131527490Y-155641183D01*
X131479899Y-155680519D01*
X131429431Y-155732392D01*
X131386602Y-155785605D01*
X131361929Y-155828959D01*
X131359499Y-155840860D01*
X131341183Y-155881537D01*
X131317166Y-155894616D01*
X131282734Y-155918387D01*
X131274833Y-155940847D01*
X131259787Y-155980557D01*
X131232499Y-156012255D01*
X131199728Y-156057716D01*
X131189877Y-156096334D01*
X131182078Y-156169960D01*
X131162193Y-156220928D01*
X131134780Y-156239416D01*
X131124066Y-156246516D01*
X131116210Y-156271229D01*
X131110820Y-156318672D01*
X131107503Y-156393965D01*
X131105865Y-156502226D01*
X131105499Y-156620416D01*
X130512833Y-156620416D01*
X130513431Y-156501340D01*
X130515753Y-156417754D01*
X130520584Y-156362827D01*
X130528712Y-156329727D01*
X130540924Y-156311620D01*
X130549073Y-156305905D01*
X130570292Y-156282508D01*
X130584035Y-156235452D01*
X130592515Y-156156297D01*
X130593795Y-156135520D01*
X130602105Y-156046521D01*
X130614988Y-155997438D01*
X130629169Y-155985416D01*
X130655281Y-155966106D01*
X130674167Y-155915351D01*
X130681864Y-155843913D01*
X130681877Y-155842334D01*
X130697582Y-155792169D01*
X130724499Y-155758255D01*
X130756799Y-155718102D01*
X130766833Y-155686847D01*
X130784612Y-155653600D01*
X130809166Y-155640616D01*
X130839254Y-155621389D01*
X130850779Y-155577361D01*
X130851499Y-155553481D01*
X130855970Y-155501593D01*
X130873551Y-155480244D01*
X130893833Y-155477416D01*
X130929209Y-155462449D01*
X130936166Y-155435083D01*
X130951133Y-155399706D01*
X130978499Y-155392749D01*
X131013875Y-155377782D01*
X131020833Y-155350416D01*
X131035800Y-155315040D01*
X131063166Y-155308083D01*
X131098542Y-155293115D01*
X131105499Y-155265749D01*
X131120466Y-155230373D01*
X131147833Y-155223416D01*
X131183209Y-155208449D01*
X131190166Y-155181083D01*
X131205346Y-155145439D01*
X131230030Y-155138749D01*
X131267277Y-155120871D01*
X131280966Y-155096416D01*
X131300193Y-155066328D01*
X131344221Y-155054803D01*
X131368101Y-155054083D01*
X131420481Y-155049294D01*
X131441822Y-155031253D01*
X131444166Y-155014454D01*
X131455888Y-154985506D01*
X131496919Y-154967523D01*
X131528833Y-154961288D01*
X131590245Y-154943889D01*
X131613398Y-154918287D01*
X131613499Y-154916249D01*
X131627793Y-154894281D01*
X131674890Y-154885277D01*
X131698166Y-154884749D01*
X131757037Y-154879506D01*
X131781296Y-154862127D01*
X131782833Y-154852999D01*
X131785726Y-154824405D01*
X131788124Y-154820676D01*
X131810061Y-154818527D01*
X131864628Y-154813229D01*
X131942321Y-154805703D01*
X131992417Y-154800856D01*
X132080390Y-154790079D01*
X132151890Y-154777076D01*
X132196765Y-154763903D01*
X132206335Y-154757476D01*
X132231329Y-154750203D01*
X132292430Y-154744142D01*
X132383429Y-154739283D01*
X132498117Y-154735618D01*
X132630286Y-154733135D01*
X132773726Y-154731827D01*
X132922229Y-154731685D01*
X133069586Y-154732698D01*
G37*
%TD*%
M02*
